<?xml version="1.0"?>
<!-- Generated by SVGo -->
<svg width="360" height="360"
     xmlns="http://www.w3.org/2000/svg"
     xmlns:xlink="http://www.w3.org/1999/xlink">
<rect x="0" y="0" width="360" height="360" />
<rect x="0" y="315" width="45" height="45" style="fill: #a57551" />
<text x="2" y="326" style="font-size:11px;fill: #ebd1a6" >1</text>
<text x="42" y="357" style="text-anchor:end;font-size:11px;fill: #ebd1a6" >a</text>
<rect x="45" y="315" width="45" height="45" style="fill: #ebd1a6" />
<text x="87" y="357" style="text-anchor:end;font-size:11px;fill: #a57551" >b</text>
<rect x="90" y="315" width="45" height="45" style="fill: #a57551" />
<text x="132" y="357" style="text-anchor:end;font-size:11px;fill: #ebd1a6" >c</text>
<rect x="135" y="315" width="45" height="45" style="fill: #ebd1a6" />
<text x="177" y="357" style="text-anchor:end;font-size:11px;fill: #a57551" >d</text>
<rect x="180" y="315" width="45" height="45" style="fill: #a57551" />
<text x="222" y="357" style="text-anchor:end;font-size:11px;fill: #ebd1a6" >e</text>
<rect x="225" y="315" width="45" height="45" style="fill: #ebd1a6" />
<text x="267" y="357" style="text-anchor:end;font-size:11px;fill: #a57551" >f</text>
<rect x="270" y="315" width="45" height="45" style="fill: #a57551" />
<svg xmlns="http://www.w3.org/2000/svg" version="1.1" width="360" height="360" viewBox="-270 -315 360 360">
  <g style="fill:none; fill-opacity:1; fill-rule:evenodd; stroke:#000000; stroke-width:1.5; stroke-linecap:round;stroke-linejoin:round;stroke-miterlimit:4; stroke-dasharray:none; stroke-opacity:1;">
    <path
      d="M 22.5,11.63 L 22.5,6"
      style="fill:none; stroke:#000000; stroke-linejoin:miter;" />
    <path
      d="M 20,8 L 25,8"
      style="fill:none; stroke:#000000; stroke-linejoin:miter;" />
    <path
      d="M 22.5,25 C 22.5,25 27,17.5 25.5,14.5 C 25.5,14.5 24.5,12 22.5,12 C 20.5,12 19.5,14.5 19.5,14.5 C 18,17.5 22.5,25 22.5,25"
      style="fill:#ffffff; stroke:#000000; stroke-linecap:butt; stroke-linejoin:miter;" />
    <path
      d="M 11.5,37 C 17,40.5 27,40.5 32.5,37 L 32.5,30 C 32.5,30 41.5,25.5 38.5,19.5 C 34.5,13 25,16 22.5,23.5 L 22.5,27 L 22.5,23.5 C 19,16 9.5,13 6.5,19.5 C 3.5,25.5 11.5,29.5 11.5,29.5 L 11.5,37 z "
      style="fill:#ffffff; stroke:#000000;" />
    <path
      d="M 11.5,30 C 17,27 27,27 32.5,30"
      style="fill:none; stroke:#000000;" />
    <path
      d="M 11.5,33.5 C 17,30.5 27,30.5 32.5,33.5"
      style="fill:none; stroke:#000000;" />
    <path
      d="M 11.5,37 C 17,34 27,34 32.5,37"
      style="fill:none; stroke:#000000;" />
  </g>
</svg>
<text x="312" y="357" style="text-anchor:end;font-size:11px;fill: #ebd1a6" >g</text>
<rect x="315" y="315" width="45" height="45" style="fill: #ebd1a6" />
<text x="357" y="357" style="text-anchor:end;font-size:11px;fill: #a57551" >h</text>
<rect x="0" y="270" width="45" height="45" style="fill: #ebd1a6" />
<text x="2" y="281" style="font-size:11px;fill: #a57551" >2</text>
<rect x="45" y="270" width="45" height="45" style="fill: #a57551" />
<rect x="90" y="270" width="45" height="45" style="fill: #ebd1a6" />
<rect x="135" y="270" width="45" height="45" style="fill: #a57551" />
<rect x="135" y="270" width="45" height="45" style="fill-opacity:0.2;fill: #ffff00" />
<rect x="180" y="270" width="45" height="45" style="fill: #ebd1a6" />
<rect x="225" y="270" width="45" height="45" style="fill: #a57551" />
<rect x="270" y="270" width="45" height="45" style="fill: #ebd1a6" />
<svg xmlns="http://www.w3.org/2000/svg" version="1.1" width="360" height="360" viewBox="-270 -270 360 360">
  <path
    d="M 22,9 C 19.79,9 18,10.79 18,13 C 18,13.89 18.29,14.71 18.78,15.38 C 16.83,16.5 15.5,18.59 15.5,21 C 15.5,23.03 16.44,24.84 17.91,26.03 C 14.91,27.09 10.5,31.58 10.5,39.5 L 33.5,39.5 C 33.5,31.58 29.09,27.09 26.09,26.03 C 27.56,24.84 28.5,23.03 28.5,21 C 28.5,18.59 27.17,16.5 25.22,15.38 C 25.71,14.71 26,13.89 26,13 C 26,10.79 24.21,9 22,9 z "
    style="opacity:1; fill:#ffffff; fill-opacity:1; fill-rule:nonzero; stroke:#000000; stroke-width:1.5; stroke-linecap:round; stroke-linejoin:miter; stroke-miterlimit:4; stroke-dasharray:none; stroke-opacity:1;" />
</svg>
<rect x="315" y="270" width="45" height="45" style="fill: #a57551" />
<rect x="0" y="225" width="45" height="45" style="fill: #a57551" />
<text x="2" y="236" style="font-size:11px;fill: #ebd1a6" >3</text>
<rect x="45" y="225" width="45" height="45" style="fill: #ebd1a6" />
<rect x="90" y="225" width="45" height="45" style="fill: #a57551" />
<svg xmlns="http://www.w3.org/2000/svg" version="1.1" width="360" height="360" viewBox="-90 -225 360 360">
  <g style="opacity:1; fill:none; fill-rule:evenodd; fill-opacity:1; stroke:#000000; stroke-width:1.5; stroke-linecap:round; stroke-linejoin:round; stroke-miterlimit:4; stroke-dasharray:none; stroke-opacity:1;">
    <g style="fill:#ffffff; stroke:#000000; stroke-linecap:butt;">
      <path
        d="M 9,36 C 12.39,35.03 19.11,36.43 22.5,34 C 25.89,36.43 32.61,35.03 36,36 C 36,36 37.65,36.54 39,38 C 38.32,38.97 37.35,38.99 36,38.5 C 32.61,37.53 25.89,38.96 22.5,37.5 C 19.11,38.96 12.39,37.53 9,38.5 C 7.646,38.99 6.677,38.97 6,38 C 7.354,36.06 9,36 9,36 z" />
      <path
        d="M 15,32 C 17.5,34.5 27.5,34.5 30,32 C 30.5,30.5 30,30 30,30 C 30,27.5 27.5,26 27.5,26 C 33,24.5 33.5,14.5 22.5,10.5 C 11.5,14.5 12,24.5 17.5,26 C 17.5,26 15,27.5 15,30 C 15,30 14.5,30.5 15,32 z" />
      <path
        d="M 25 8 A 2.5 2.5 0 1 1  20,8 A 2.5 2.5 0 1 1  25 8 z" />
    </g>
    <path
      d="M 17.5,26 L 27.5,26 M 15,30 L 30,30 M 22.5,15.5 L 22.5,20.5 M 20,18 L 25,18"
      style="fill:none; stroke:#000000; stroke-linejoin:miter;" />
  </g>
</svg>
<rect x="135" y="225" width="45" height="45" style="fill: #ebd1a6" />
<rect x="180" y="225" width="45" height="45" style="fill: #a57551" />
<rect x="225" y="225" width="45" height="45" style="fill: #ebd1a6" />
<rect x="270" y="225" width="45" height="45" style="fill: #a57551" />
<rect x="315" y="225" width="45" height="45" style="fill: #ebd1a6" />
<rect x="0" y="180" width="45" height="45" style="fill: #ebd1a6" />
<svg xmlns="http://www.w3.org/2000/svg" version="1.1" width="360" height="360" viewBox="0 -180 360 360">
  <path
    d="M 22,9 C 19.79,9 18,10.79 18,13 C 18,13.89 18.29,14.71 18.78,15.38 C 16.83,16.5 15.5,18.59 15.5,21 C 15.5,23.03 16.44,24.84 17.91,26.03 C 14.91,27.09 10.5,31.58 10.5,39.5 L 33.5,39.5 C 33.5,31.58 29.09,27.09 26.09,26.03 C 27.56,24.84 28.5,23.03 28.5,21 C 28.5,18.59 27.17,16.5 25.22,15.38 C 25.71,14.71 26,13.89 26,13 C 26,10.79 24.21,9 22,9 z "
    style="opacity:1; fill:#000000; fill-opacity:1; fill-rule:nonzero; stroke:#000000; stroke-width:1.5; stroke-linecap:round; stroke-linejoin:miter; stroke-miterlimit:4; stroke-dasharray:none; stroke-opacity:1;" />
</svg>
<text x="2" y="191" style="font-size:11px;fill: #a57551" >4</text>
<rect x="45" y="180" width="45" height="45" style="fill: #a57551" />
<rect x="90" y="180" width="45" height="45" style="fill: #ebd1a6" />
<rect x="135" y="180" width="45" height="45" style="fill: #a57551" />
<rect x="135" y="180" width="45" height="45" style="fill-opacity:0.2;fill: #ffff00" />
<rect x="180" y="180" width="45" height="45" style="fill: #ebd1a6" />
<rect x="225" y="180" width="45" height="45" style="fill: #a57551" />
<rect x="270" y="180" width="45" height="45" style="fill: #ebd1a6" />
<rect x="315" y="180" width="45" height="45" style="fill: #a57551" />
<svg xmlns="http://www.w3.org/2000/svg" version="1.1" width="360" height="360" viewBox="-315 -180 360 360">
  <path
    d="M 22,9 C 19.79,9 18,10.79 18,13 C 18,13.89 18.29,14.71 18.78,15.38 C 16.83,16.5 15.5,18.59 15.5,21 C 15.5,23.03 16.44,24.84 17.91,26.03 C 14.91,27.09 10.5,31.58 10.5,39.5 L 33.5,39.5 C 33.5,31.58 29.09,27.09 26.09,26.03 C 27.56,24.84 28.5,23.03 28.5,21 C 28.5,18.59 27.17,16.5 25.22,15.38 C 25.71,14.71 26,13.89 26,13 C 26,10.79 24.21,9 22,9 z "
    style="opacity:1; fill:#ffffff; fill-opacity:1; fill-rule:nonzero; stroke:#000000; stroke-width:1.5; stroke-linecap:round; stroke-linejoin:miter; stroke-miterlimit:4; stroke-dasharray:none; stroke-opacity:1;" />
</svg>
<rect x="0" y="135" width="45" height="45" style="fill: #a57551" />
<text x="2" y="146" style="font-size:11px;fill: #ebd1a6" >5</text>
<rect x="45" y="135" width="45" height="45" style="fill: #ebd1a6" />
<rect x="90" y="135" width="45" height="45" style="fill: #a57551" />
<rect x="135" y="135" width="45" height="45" style="fill: #ebd1a6" />
<svg xmlns="http://www.w3.org/2000/svg" version="1.1" width="360" height="360" viewBox="-135 -135 360 360">
  <path
    d="M 22,9 C 19.79,9 18,10.79 18,13 C 18,13.89 18.29,14.71 18.78,15.38 C 16.83,16.5 15.5,18.59 15.5,21 C 15.5,23.03 16.44,24.84 17.91,26.03 C 14.91,27.09 10.5,31.58 10.5,39.5 L 33.5,39.5 C 33.5,31.58 29.09,27.09 26.09,26.03 C 27.56,24.84 28.5,23.03 28.5,21 C 28.5,18.59 27.17,16.5 25.22,15.38 C 25.71,14.71 26,13.89 26,13 C 26,10.79 24.21,9 22,9 z "
    style="opacity:1; fill:#000000; fill-opacity:1; fill-rule:nonzero; stroke:#000000; stroke-width:1.5; stroke-linecap:round; stroke-linejoin:miter; stroke-miterlimit:4; stroke-dasharray:none; stroke-opacity:1;" />
</svg>
<rect x="180" y="135" width="45" height="45" style="fill: #a57551" />
<rect x="225" y="135" width="45" height="45" style="fill: #ebd1a6" />
<svg xmlns="http://www.w3.org/2000/svg" version="1.1" width="360" height="360" viewBox="-225 -135 360 360">
  <g style="opacity:1; fill:none; fill-rule:evenodd; fill-opacity:1; stroke:#000000; stroke-width:1.5; stroke-linecap:round; stroke-linejoin:round; stroke-miterlimit:4; stroke-dasharray:none; stroke-opacity:1;">
    <g style="fill:#000000; stroke:#000000; stroke-linecap:butt;">
      <path
        d="M 9,36 C 12.39,35.03 19.11,36.43 22.5,34 C 25.89,36.43 32.61,35.03 36,36 C 36,36 37.65,36.54 39,38 C 38.32,38.97 37.35,38.99 36,38.5 C 32.61,37.53 25.89,38.96 22.5,37.5 C 19.11,38.96 12.39,37.53 9,38.5 C 7.646,38.99 6.677,38.97 6,38 C 7.354,36.06 9,36 9,36 z" />
      <path
        d="M 15,32 C 17.5,34.5 27.5,34.5 30,32 C 30.5,30.5 30,30 30,30 C 30,27.5 27.5,26 27.5,26 C 33,24.5 33.5,14.5 22.5,10.5 C 11.5,14.5 12,24.5 17.5,26 C 17.5,26 15,27.5 15,30 C 15,30 14.5,30.5 15,32 z" />
      <path
        d="M 25 8 A 2.5 2.5 0 1 1  20,8 A 2.5 2.5 0 1 1  25 8 z" />
    </g>
    <path
       d="M 17.5,26 L 27.5,26 M 15,30 L 30,30 M 22.5,15.5 L 22.5,20.5 M 20,18 L 25,18"
       style="fill:none; stroke:#ffffff; stroke-linejoin:miter;" />
  </g>
</svg>
<rect x="270" y="135" width="45" height="45" style="fill: #a57551" />
<rect x="315" y="135" width="45" height="45" style="fill: #ebd1a6" />
<rect x="0" y="90" width="45" height="45" style="fill: #ebd1a6" />
<text x="2" y="101" style="font-size:11px;fill: #a57551" >6</text>
<rect x="45" y="90" width="45" height="45" style="fill: #a57551" />
<rect x="90" y="90" width="45" height="45" style="fill: #ebd1a6" />
<rect x="135" y="90" width="45" height="45" style="fill: #a57551" />
<rect x="180" y="90" width="45" height="45" style="fill: #ebd1a6" />
<svg xmlns="http://www.w3.org/2000/svg" version="1.1" width="360" height="360" viewBox="-180 -90 360 360">
  <g style="fill:none; fill-opacity:1; fill-rule:evenodd; stroke:#000000; stroke-width:1.5; stroke-linecap:round;stroke-linejoin:round;stroke-miterlimit:4; stroke-dasharray:none; stroke-opacity:1;">
    <path
       d="M 22.5,11.63 L 22.5,6"
       style="fill:none; stroke:#000000; stroke-linejoin:miter;"
       id="path6570" />
    <path
       d="M 22.5,25 C 22.5,25 27,17.5 25.5,14.5 C 25.5,14.5 24.5,12 22.5,12 C 20.5,12 19.5,14.5 19.5,14.5 C 18,17.5 22.5,25 22.5,25"
       style="fill:#000000;fill-opacity:1; stroke-linecap:butt; stroke-linejoin:miter;" />
    <path
       d="M 11.5,37 C 17,40.5 27,40.5 32.5,37 L 32.5,30 C 32.5,30 41.5,25.5 38.5,19.5 C 34.5,13 25,16 22.5,23.5 L 22.5,27 L 22.5,23.5 C 19,16 9.5,13 6.5,19.5 C 3.5,25.5 11.5,29.5 11.5,29.5 L 11.5,37 z "
       style="fill:#000000; stroke:#000000;" />
    <path
       d="M 20,8 L 25,8"
       style="fill:none; stroke:#000000; stroke-linejoin:miter;" />
    <path
       d="M 32,29.5 C 32,29.5 40.5,25.5 38.03,19.85 C 34.15,14 25,18 22.5,24.5 L 22.51,26.6 L 22.5,24.5 C 20,18 9.906,14 6.997,19.85 C 4.5,25.5 11.85,28.85 11.85,28.85"
       style="fill:none; stroke:#ffffff;" />
    <path
       d="M 11.5,30 C 17,27 27,27 32.5,30 M 11.5,33.5 C 17,30.5 27,30.5 32.5,33.5 M 11.5,37 C 17,34 27,34 32.5,37"
       style="fill:none; stroke:#ffffff;" />
  </g>
</svg>
<rect x="225" y="90" width="45" height="45" style="fill: #a57551" />
<svg xmlns="http://www.w3.org/2000/svg" version="1.1" width="360" height="360" viewBox="-225 -90 360 360">
  <path
    d="M 22,9 C 19.79,9 18,10.79 18,13 C 18,13.89 18.29,14.71 18.78,15.38 C 16.83,16.5 15.5,18.59 15.5,21 C 15.5,23.03 16.44,24.84 17.91,26.03 C 14.91,27.09 10.5,31.58 10.5,39.5 L 33.5,39.5 C 33.5,31.58 29.09,27.09 26.09,26.03 C 27.56,24.84 28.5,23.03 28.5,21 C 28.5,18.59 27.17,16.5 25.22,15.38 C 25.71,14.71 26,13.89 26,13 C 26,10.79 24.21,9 22,9 z "
    style="opacity:1; fill:#000000; fill-opacity:1; fill-rule:nonzero; stroke:#000000; stroke-width:1.5; stroke-linecap:round; stroke-linejoin:miter; stroke-miterlimit:4; stroke-dasharray:none; stroke-opacity:1;" />
</svg>
<rect x="270" y="90" width="45" height="45" style="fill: #ebd1a6" />
<svg xmlns="http://www.w3.org/2000/svg" version="1.1" width="360" height="360" viewBox="-270 -90 360 360">
  <path
    d="M 22,9 C 19.79,9 18,10.79 18,13 C 18,13.89 18.29,14.71 18.78,15.38 C 16.83,16.5 15.5,18.59 15.5,21 C 15.5,23.03 16.44,24.84 17.91,26.03 C 14.91,27.09 10.5,31.58 10.5,39.5 L 33.5,39.5 C 33.5,31.58 29.09,27.09 26.09,26.03 C 27.56,24.84 28.5,23.03 28.5,21 C 28.5,18.59 27.17,16.5 25.22,15.38 C 25.71,14.71 26,13.89 26,13 C 26,10.79 24.21,9 22,9 z "
    style="opacity:1; fill:#000000; fill-opacity:1; fill-rule:nonzero; stroke:#000000; stroke-width:1.5; stroke-linecap:round; stroke-linejoin:miter; stroke-miterlimit:4; stroke-dasharray:none; stroke-opacity:1;" />
</svg>
<rect x="315" y="90" width="45" height="45" style="fill: #a57551" />
<rect x="0" y="45" width="45" height="45" style="fill: #a57551" />
<text x="2" y="56" style="font-size:11px;fill: #ebd1a6" >7</text>
<rect x="45" y="45" width="45" height="45" style="fill: #ebd1a6" />
<rect x="90" y="45" width="45" height="45" style="fill: #a57551" />
<rect x="135" y="45" width="45" height="45" style="fill: #ebd1a6" />
<rect x="180" y="45" width="45" height="45" style="fill: #a57551" />
<rect x="225" y="45" width="45" height="45" style="fill: #ebd1a6" />
<rect x="270" y="45" width="45" height="45" style="fill: #a57551" />
<rect x="315" y="45" width="45" height="45" style="fill: #ebd1a6" />
<rect x="0" y="0" width="45" height="45" style="fill: #ebd1a6" />
<text x="2" y="11" style="font-size:11px;fill: #a57551" >8</text>
<rect x="45" y="0" width="45" height="45" style="fill: #a57551" />
<rect x="90" y="0" width="45" height="45" style="fill: #ebd1a6" />
<rect x="135" y="0" width="45" height="45" style="fill: #a57551" />
<rect x="180" y="0" width="45" height="45" style="fill: #ebd1a6" />
<rect x="225" y="0" width="45" height="45" style="fill: #a57551" />
<rect x="270" y="0" width="45" height="45" style="fill: #ebd1a6" />
<rect x="315" y="0" width="45" height="45" style="fill: #a57551" />
</svg>
