<?xml version="1.0" encoding="UTF-8" standalone="no"?>
<!-- Created with Inkscape (http://www.inkscape.org/) -->

<svg
   xmlns:dc="http://purl.org/dc/elements/1.1/"
   xmlns:cc="http://creativecommons.org/ns#"
   xmlns:rdf="http://www.w3.org/1999/02/22-rdf-syntax-ns#"
   xmlns:svg="http://www.w3.org/2000/svg"
   xmlns="http://www.w3.org/2000/svg"
   xmlns:sodipodi="http://sodipodi.sourceforge.net/DTD/sodipodi-0.dtd"
   xmlns:inkscape="http://www.inkscape.org/namespaces/inkscape"
   width="210mm"
   height="297mm"
   viewBox="0 0 210 297"
   version="1.1"
   id="svg8"
   inkscape:version="0.92.3 (2405546, 2018-03-11)"
   sodipodi:docname="cobra2.svg">
  <defs
     id="defs2" />
  <sodipodi:namedview
     id="base"
     pagecolor="#ffffff"
     bordercolor="#666666"
     borderopacity="1.0"
     inkscape:pageopacity="0.0"
     inkscape:pageshadow="2"
     inkscape:zoom="0.35"
     inkscape:cx="400"
     inkscape:cy="560"
     inkscape:document-units="mm"
     inkscape:current-layer="layer1"
     showgrid="false"
     inkscape:window-width="1104"
     inkscape:window-height="945"
     inkscape:window-x="752"
     inkscape:window-y="152"
     inkscape:window-maximized="0" />
  <metadata
     id="metadata5">
    <rdf:RDF>
      <cc:Work
         rdf:about="">
        <dc:format>image/svg+xml</dc:format>
        <dc:type
           rdf:resource="http://purl.org/dc/dcmitype/StillImage" />
        <dc:title></dc:title>
      </cc:Work>
    </rdf:RDF>
  </metadata>
  <g
     inkscape:label="Layer 1"
     inkscape:groupmode="layer"
     id="layer1">
    <g
       transform="matrix(0.35277777,0,0,-0.35277777,-11.363761,269.82788)"
       inkscape:label="ink_ext_XXXXXX"
       id="g18">
      <g
         transform="scale(0.1)"
         id="g20">
        <path
           inkscape:connector-curvature="0"
           id="path22"
           style="fill:#dde4d6;fill-opacity:1;fill-rule:nonzero;stroke:none"
           d="m 1166.13,2772.76 c 0,0 -2298.87,-1227.33 -441.181,-2066.221 719.731,-324.988 3250.261,-208.98 3250.261,-208.98 0,0 533.97,-580.4106 1276.83,-487.5277 0,0 2043,46.4375 1091.16,1648.3487 -951.84,1601.91 -5177.07,1114.38 -5177.07,1114.38" />
        <path
           inkscape:connector-curvature="0"
           id="path24"
           style="fill:#2c3d19;fill-opacity:1;fill-rule:nonzero;stroke:none"
           d="m 4029.48,4843.57 c 0,0 -132.75,132.84 -309.78,132.84 -238.95,0 -398.34,-177.03 -398.34,-177.03 0,0 -292.05,194.67 -398.25,389.43 -130.05,238.32 -62.01,486.81 141.57,637.29 149.67,110.61 681.75,422.01 1354.23,8.82 734.67,-451.44 -389.43,-991.35 -389.43,-991.35 M 6064.56,2273.62 C 5942.7,3535.96 4410.45,4040.86 4410.45,4040.86 c 0,0 52.29,95.76 78.39,130.59 26.1,34.83 20.52,64.44 95.76,113.22 473.67,307.26 748.98,573.48 827.1,896.67 145.62,602.64 -308.16,1231.11 -835.83,1480.05 -729.27,343.98 -1653.21,4.5 -1793.43,-69.66 -713.79,-377.91 -942.66,-1192.32 -827.01,-1784.7 187.47,-960.12 1462.59,-1601.91 1462.59,-1601.91 2.61,-1.17 -1715.04,0 -2272.23,-278.55 C 231.66,2469.46 85.9492,1517.17 727.922,1124.41 1467.9,671.711 3783.69,715.27 3940.38,715.27 c 0,0 243.72,69.66 296.01,-60.93 24.66,-61.738 39.69,-55.352 59.04,-48.871 21.6,7.203 48.78,14.402 100.98,-72.449 99.09,-164.879 414.54,-305.282 754.02,-331.379 519.84,-40.051 1414.08,265.5 1462.68,896.669 60.93,792.18 -548.55,1175.31 -548.55,1175.31" />
        <path
           inkscape:connector-curvature="0"
           id="path26"
           style="fill:#497c2e;fill-opacity:1;fill-rule:nonzero;stroke:none"
           d="m 3217.68,3697.69 c 0,0 158.76,-372.42 460.98,-378.54 302.22,-6.12 415.35,115.65 686.88,628.83 222.84,421.29 131.22,448.74 0,549.54 0,0 -89.19,42.21 -165.51,117.45 -103.68,102.33 -187.92,266.58 -292.77,314.64 -81.63,37.35 -388.89,104.85 -588.78,-169.56 -89.01,-122.22 -136.53,-267.39 -329.76,-335.79 -74.61,-26.46 -122.04,-183.24 228.96,-726.57" />
        <path
           inkscape:connector-curvature="0"
           id="path28"
           style="fill:#2d3f1a;fill-opacity:1;fill-rule:nonzero;stroke:none"
           d="m 4021.65,4804.06 c 53.28,-85.05 80.37,-173.07 185.67,-255.33 208.8,-163.08 313.47,-255.42 -11.52,-673.2 -86.49,-111.15 -362.88,-97.38 -602.55,-83.7 -246.87,14.13 -454.68,28.26 -375.57,-94.14 0,0 158.76,-372.42 460.98,-378.54 302.22,-6.12 415.35,115.65 686.88,628.83 222.84,421.29 131.22,448.74 0,549.54 0,0 -89.19,42.21 -165.51,117.45 -103.68,102.33 -131.94,223.92 -292.77,314.64 -5.85,3.24 89.55,-85.95 114.39,-125.55" />
        <path
           inkscape:connector-curvature="0"
           id="path30"
           style="fill:#f35d70;fill-opacity:1;fill-rule:nonzero;stroke:none"
           d="m 3187.18,4308.23 c 42.75,15.27 201.48,42.71 348.02,299.15 112.12,196.21 274.71,30.55 375.47,-109.89 100.76,-140.44 155.68,-116.01 259.48,-149.58 103.79,-33.56 256.49,-21.35 88.56,-286.95 -167.93,-265.61 -332.74,-537.28 -390.76,-525.08 -58,12.21 -149.62,140.4 -232.02,97.71 -82.41,-42.75 -109.88,-131.3 -198.42,-27.47 -88.54,103.77 -357.06,525 -305.27,638 33.59,73.29 54.94,64.11 54.94,64.11" />
        <path
           inkscape:connector-curvature="0"
           id="path32"
           style="fill:#f35b6b;fill-opacity:1;fill-rule:nonzero;stroke:none"
           d="m 3285.57,4270.95 c 34.99,11.94 164.94,33.4 284.85,233.9 91.78,153.46 224.94,23.91 307.4,-85.94 82.47,-109.77 127.46,-90.62 212.45,-116.91 84.91,-26.29 209.92,-16.69 72.5,-224.39 -137.53,-207.67 -272.43,-420.1 -319.87,-410.53 -47.5,9.53 -122.52,109.78 -189.97,76.35 -67.47,-33.39 -89.92,-102.63 -162.43,-21.5 -72.49,81.21 -292.31,410.57 -249.9,498.9 27.47,57.31 44.97,50.12 44.97,50.12" />
        <path
           inkscape:connector-curvature="0"
           id="path34"
           style="fill:#dc5463;fill-opacity:1;fill-rule:nonzero;stroke:none"
           d="m 3348.24,4249.79 c 30.05,10.25 141.67,28.71 244.67,200.89 78.82,131.79 193.16,20.52 263.99,-73.84 70.84,-94.26 109.48,-77.84 182.46,-100.38 72.94,-22.57 180.31,-14.35 62.27,-192.72 -118.11,-178.36 -233.98,-360.81 -274.72,-352.62 -40.8,8.2 -105.24,94.31 -163.16,65.6 -57.95,-28.7 -77.24,-88.15 -139.5,-18.46 -62.27,69.7 -251.06,352.62 -214.64,428.48 23.6,49.23 38.63,43.05 38.63,43.05" />
        <path
           inkscape:connector-curvature="0"
           id="path36"
           style="fill:#100f0d;fill-opacity:1;fill-rule:nonzero;stroke:none"
           d="m 3491.6,4691.47 c -27.82,-52.86 -73.59,-83.54 -102.23,-68.47 -28.6,15.06 -29.26,70.11 -1.46,123.02 27.8,52.9 73.56,83.59 102.22,68.52 28.61,-15.04 29.23,-70.11 1.47,-123.07" />
        <path
           inkscape:connector-curvature="0"
           id="path38"
           style="fill:#252423;fill-opacity:1;fill-rule:nonzero;stroke:none"
           d="m 3483.39,4692.16 c -23.3,-44.28 -61.19,-70.21 -84.6,-57.9 -23.39,12.3 -23.48,58.18 -0.19,102.51 23.28,44.3 61.15,70.25 84.58,57.94 23.42,-12.31 23.45,-58.2 0.21,-102.55" />
        <path
           inkscape:connector-curvature="0"
           id="path40"
           style="fill:#ffffff;fill-opacity:1;fill-rule:nonzero;stroke:none"
           d="m 3463.78,4746.18 c -0.47,-25.58 -12.33,-46.15 -26.45,-45.88 -14.16,0.26 -25.22,21.21 -24.76,46.82 0.44,25.6 12.31,46.15 26.41,45.9 14.15,-0.27 25.21,-21.23 24.8,-46.84" />
        <path
           inkscape:connector-curvature="0"
           id="path42"
           style="fill:#100f0d;fill-opacity:1;fill-rule:nonzero;stroke:none"
           d="m 3910.57,4691.47 c 27.81,-52.86 73.59,-83.54 102.24,-68.47 28.59,15.06 29.24,70.11 1.44,123.02 -27.77,52.9 -73.55,83.59 -102.21,68.52 -28.61,-15.04 -29.23,-70.11 -1.47,-123.07" />
        <path
           inkscape:connector-curvature="0"
           id="path44"
           style="fill:#252423;fill-opacity:1;fill-rule:nonzero;stroke:none"
           d="m 3918.79,4692.16 c 23.27,-44.28 61.16,-70.21 84.58,-57.9 23.4,12.3 23.51,58.18 0.18,102.51 -23.26,44.3 -61.15,70.25 -84.53,57.94 -23.45,-12.31 -23.48,-58.2 -0.23,-102.55" />
        <path
           inkscape:connector-curvature="0"
           id="path46"
           style="fill:#ffffff;fill-opacity:1;fill-rule:nonzero;stroke:none"
           d="m 3938.38,4746.18 c 0.48,-25.58 12.32,-46.15 26.46,-45.88 14.15,0.26 25.24,21.21 24.76,46.82 -0.43,25.6 -12.31,46.15 -26.42,45.9 -14.14,-0.27 -25.2,-21.23 -24.8,-46.84" />
        <path
           inkscape:connector-curvature="0"
           id="path48"
           style="fill:#838b66;fill-opacity:1;fill-rule:nonzero;stroke:none"
           d="m 4514.94,3091.99 c 14.04,187.38 87.03,426.51 287.28,443.97 200.25,17.37 461.43,34.83 679.05,-121.86 205.29,-147.87 356.76,-357.39 191.52,-461.43 -234.99,-148.05 -365.58,-95.76 -417.87,-43.56 -52.2,52.29 -287.28,69.66 -478.8,0 -191.52,-69.66 -287.28,-165.42 -261.18,182.88" />
        <path
           inkscape:connector-curvature="0"
           id="path50"
           style="fill:#3d4c27;fill-opacity:1;fill-rule:nonzero;stroke:none"
           d="m 4593.33,3031.06 c 37.98,123.66 78.3,365.58 322.11,409.14 243.72,43.56 461.43,-34.83 574.56,-87.03 66.87,-30.87 204.21,-126.72 226.35,-200.25 15.3,-50.94 -48.69,-81.09 -130.59,-113.22 -200.25,-78.3 -243.72,-95.76 -278.55,-17.37 -34.83,78.3 -417.87,87.03 -565.92,17.37 -147.96,-69.66 -182.79,-121.86 -147.96,-8.64" />
        <path
           inkscape:connector-curvature="0"
           id="path52"
           style="fill:#838b66;fill-opacity:1;fill-rule:nonzero;stroke:none"
           d="m 4715.19,2569.63 c -99.27,119.07 539.73,313.38 748.71,147.96 208.89,-165.42 322.11,-322.11 287.28,-583.29 -34.83,-261.18 0,-269.91 -156.69,-113.13 -156.69,156.69 -417.87,104.4 -470.16,104.4 -52.2,0 -322.11,339.57 -409.14,444.06" />
        <path
           inkscape:connector-curvature="0"
           id="path54"
           style="fill:#3d4c27;fill-opacity:1;fill-rule:nonzero;stroke:none"
           d="m 4767.39,2587 c 63.81,111.6 504.99,226.35 722.61,52.2 217.62,-174.06 287.28,-635.49 200.25,-565.83 -87.03,69.66 -287.28,165.42 -426.6,130.59 -139.32,-34.83 -156.69,-60.93 -217.62,60.93 -60.93,121.86 -313.47,261.18 -278.64,322.11" />
        <path
           inkscape:connector-curvature="0"
           id="path56"
           style="fill:#838b66;fill-opacity:1;fill-rule:nonzero;stroke:none"
           d="m 4184.1,2186.5 c -48.06,-144.18 -95.76,-287.28 -130.59,-322.11 -34.83,-34.83 95.76,-182.79 121.95,-226.35 26.1,-43.47 304.65,-287.28 348.21,-365.58 43.47,-78.39 208.89,-130.59 356.94,208.89 147.96,339.57 104.49,348.21 69.66,487.53 -34.83,139.32 -189.99,231.39 -296.01,261.18 -278.64,78.39 -383.04,217.71 -470.16,-43.56" />
        <path
           inkscape:connector-curvature="0"
           id="path58"
           style="fill:#3d4c27;fill-opacity:1;fill-rule:nonzero;stroke:none"
           d="m 4227.66,2186.5 c -4.59,-106.11 -121.86,-243.72 -78.39,-330.75 43.56,-87.12 330.84,-548.55 435.33,-504.99 104.49,43.56 191.52,121.86 208.98,339.57 17.37,217.62 130.59,217.62 -61.02,383.04 -191.52,165.42 -496.17,313.38 -504.9,113.13" />
        <path
           inkscape:connector-curvature="0"
           id="path60"
           style="fill:#838b66;fill-opacity:1;fill-rule:nonzero;stroke:none"
           d="m 4462.74,3588.16 c -165.87,-20.43 -374.4,-95.76 -374.4,-95.76 l 330.57,519.21 c 0,0 165.69,37.98 305.01,-118.71 28.89,-32.58 26.1,-278.55 -52.29,-322.11 -15.48,-8.55 -43.38,-0.27 -80.82,8.01 -35.1,7.74 -78.57,15.48 -128.07,9.36" />
        <path
           inkscape:connector-curvature="0"
           id="path62"
           style="fill:#3d4c27;fill-opacity:1;fill-rule:nonzero;stroke:none"
           d="m 4279.86,3649.18 c 0,0 409.23,-43.56 322.11,191.52 -87.03,234.99 -174.06,60.93 -217.62,8.64 -43.56,-52.2 -104.49,-200.16 -104.49,-200.16" />
        <path
           inkscape:connector-curvature="0"
           id="path64"
           style="fill:#838b66;fill-opacity:1;fill-rule:nonzero;stroke:none"
           d="m 3252.6,2282.35 c 0,0 -78.39,-113.22 -165.42,-174.15 -49.95,-35.01 -46.08,-75.42 -78.39,-104.49 -87.03,-78.39 -374.31,-182.79 -95.76,-504.9 278.64,-322.11 296.01,-539.822 522.36,-304.74 63.72,66.15 121.41,82.8 165.42,139.32 112.23,144.18 95.76,226.35 200.25,348.21 56.7,66.15 104.49,52.2 8.73,235.08 -95.76,182.79 -174.15,356.94 -208.98,356.94 -34.83,0 -348.21,8.73 -348.21,8.73" />
        <path
           inkscape:connector-curvature="0"
           id="path66"
           style="fill:#3d4c27;fill-opacity:1;fill-rule:nonzero;stroke:none"
           d="m 3278.7,1202.8 c 137.25,10.53 208.98,287.28 235.08,356.94 26.1,69.66 226.35,34.83 147.96,339.48 -78.3,304.74 -243.72,417.87 -452.7,243.81 -208.89,-174.15 -443.97,-356.94 -269.82,-539.82 174.06,-182.79 226.35,-409.14 339.48,-400.41" />
        <path
           inkscape:connector-curvature="0"
           id="path68"
           style="fill:#838b66;fill-opacity:1;fill-rule:nonzero;stroke:none"
           d="m 1946.7,1167.97 c 35.73,3.6 69.66,113.13 139.32,130.59 69.66,17.37 113.13,174.06 208.89,191.52 95.76,17.37 174.15,208.98 235.08,217.62 60.93,8.73 148.05,26.1 139.32,243.81 -8.73,217.62 -8.73,330.84 -8.73,330.84 l -235.08,17.37 c 0,0 -208.89,-174.15 -356.94,-243.81 -147.96,-69.57 -226.35,-104.4 -252.45,-200.16 -26.1,-95.76 -43.47,-705.24 130.59,-687.78" />
        <path
           inkscape:connector-curvature="0"
           id="path70"
           style="fill:#3d4c27;fill-opacity:1;fill-rule:nonzero;stroke:none"
           d="m 1990.26,1411.69 c 150.39,105.39 531,278.64 557.19,409.23 26.1,130.59 174.06,539.73 -121.95,391.77 -296.01,-148.05 -522.27,-252.54 -496.17,-478.89 26.1,-226.35 -26.1,-383.04 60.93,-322.11" />
        <path
           inkscape:connector-curvature="0"
           id="path72"
           style="fill:#709d2c;fill-opacity:1;fill-rule:nonzero;stroke:none"
           d="m 3298.05,4716.31 28.08,-171.18 h -96.12 l -8.73,-83.07 -69.93,4.41 -21.87,-87.39 -113.58,52.38 c 0,0 122.94,23.49 282.15,284.85" />
        <path
           inkscape:connector-curvature="0"
           id="path74"
           style="fill:#709d2c;fill-opacity:1;fill-rule:nonzero;stroke:none"
           d="m 4051.44,4794.16 13.14,-183.51 113.58,17.46 -39.33,-78.66 h 117.99 l -4.32,-69.93 56.79,43.74 -257.85,270.9" />
        <path
           inkscape:connector-curvature="0"
           id="path76"
           style="fill:#3e6428;fill-opacity:1;fill-rule:nonzero;stroke:none"
           d="m 6317.1,2038.54 165.42,-252.45 60.93,-208.98 c 0,0 0,0 -113.22,87.12 -113.13,87.03 -208.89,121.86 -174.15,147.96 34.83,26.1 61.02,226.35 61.02,226.35" />
        <path
           inkscape:connector-curvature="0"
           id="path78"
           style="fill:#3e6428;fill-opacity:1;fill-rule:nonzero;stroke:none"
           d="m 6308.37,671.711 c 0,0 69.66,278.641 26.1,417.869 -43.56,139.32 -130.59,191.52 -60.93,191.52 69.66,0 296.01,26.1 287.28,-104.4 -8.73,-130.59 -113.13,-435.329 -252.45,-504.989" />
        <path
           inkscape:connector-curvature="0"
           id="path80"
           style="fill:#3e6428;fill-opacity:1;fill-rule:nonzero;stroke:none"
           d="m 5759.89,1037.36 c 0,0 17.4,87.07 69.64,139.3 52.24,52.23 261.19,78.35 200.25,17.41 -60.96,-60.94 -226.36,-147.99 -269.89,-156.71" />
        <path
           inkscape:connector-curvature="0"
           id="path82"
           style="fill:#3e6428;fill-opacity:1;fill-rule:nonzero;stroke:none"
           d="m 6343.2,602.051 c 0,0 -330.84,174.148 -374.4,113.219 -43.47,-60.93 26.19,-148.051 -252.45,-444.059 -26.73,-28.352 374.4,139.32 374.4,139.32 l 252.45,191.52" />
        <path
           inkscape:connector-curvature="0"
           id="path84"
           style="fill:#3e6428;fill-opacity:1;fill-rule:nonzero;stroke:none"
           d="m 5568.35,889.371 330.83,-26.121 -217.64,139.3 z" />
        <path
           inkscape:connector-curvature="0"
           id="path86"
           style="fill:#3e6428;fill-opacity:1;fill-rule:nonzero;stroke:none"
           d="m 4941.54,1185.34 c -74.88,0 513.63,269.91 722.61,504.99 36.54,41.13 148.14,-18.72 0,147.96 -139.32,156.69 -478.89,252.45 -522.36,252.45 -43.56,0 -78.39,104.49 -87.12,-226.35 -8.64,-330.75 -69.57,-679.05 -113.13,-679.05" />
        <path
           inkscape:connector-curvature="0"
           id="path88"
           style="fill:#3e6428;fill-opacity:1;fill-rule:nonzero;stroke:none"
           d="m 5855.67,1786.09 c 0,0 -43.56,191.52 -26.1,287.28 17.37,95.76 0,435.24 -130.59,574.56 -130.59,139.32 -130.59,139.32 -34.83,200.25 95.76,60.93 182.79,113.22 182.79,113.22 0,0 461.43,-487.53 8.73,-1175.31" />
        <path
           inkscape:connector-curvature="0"
           id="path90"
           style="fill:#3e6428;fill-opacity:1;fill-rule:nonzero;stroke:none"
           d="m 3870.72,2247.52 c 0,0 78.39,-174.15 69.66,-278.64 -8.73,-104.49 78.3,17.46 104.49,165.42 26.1,148.05 26.1,148.05 26.1,148.05 l -200.25,-34.83" />
        <path
           inkscape:connector-curvature="0"
           id="path92"
           style="fill:#3e6428;fill-opacity:1;fill-rule:nonzero;stroke:none"
           d="m 2042.48,1072.18 c 0,0 1001.18,0 1114.35,-34.82 113.17,-34.81 113.17,-34.81 113.17,-34.81 0,0 -478.81,313.41 -557.16,539.74 -78.37,226.36 -174.12,-17.4 -261.18,-104.45 -87.06,-87.07 -339.53,-304.71 -409.18,-365.66" />
        <path
           inkscape:connector-curvature="0"
           id="path94"
           style="fill:#3e6428;fill-opacity:1;fill-rule:nonzero;stroke:none"
           d="m 1206.71,1350.77 c 57.34,65.53 322.11,374.36 452.71,452.71 130.59,78.35 17.41,-121.88 8.71,-200.23 -8.71,-78.36 87.05,-348.24 113.17,-383.07 26.12,-34.82 130.59,-165.4 -34.82,-130.58 -165.42,34.83 -409.18,165.41 -496.24,156.71 -87.05,-8.71 -165.41,-34.82 -43.53,104.46" />
        <path
           inkscape:connector-curvature="0"
           id="path96"
           style="fill:#3e6428;fill-opacity:1;fill-rule:nonzero;stroke:none"
           d="m 370.953,1803.48 c 0,0 104.469,-200.23 208.934,-295.99 104.472,-95.78 78.359,-69.65 148.004,-113.18 69.648,-43.54 208.941,-226.36 156.703,0 -52.227,226.36 -130.578,687.76 43.527,888 0,0 -618.109,-139.3 -557.168,-478.83" />
        <path
           inkscape:connector-curvature="0"
           id="path98"
           style="fill:#3e6428;fill-opacity:1;fill-rule:nonzero;stroke:none"
           d="m 2025.09,2299.72 c 0,0 -34.83,-78.39 -60.93,-104.49 -26.19,-26.1 8.64,-69.66 8.64,-69.66 0,0 8.73,26.1 87.12,78.39 78.3,52.2 130.59,87.03 130.59,87.03 l -165.42,8.73" />
        <path
           inkscape:connector-curvature="0"
           id="path100"
           style="fill:#3e6428;fill-opacity:1;fill-rule:nonzero;stroke:none"
           d="m 2782.44,2264.89 c 0,0 26.19,-113.22 0,-200.25 -26.1,-87.03 17.46,-95.76 17.46,-95.76 l 261.18,287.28 -278.64,8.73" />
        <path
           inkscape:connector-curvature="0"
           id="path102"
           style="fill:#3e6428;fill-opacity:1;fill-rule:nonzero;stroke:none"
           d="m 4123.17,2621.83 c 0,0 217.62,-217.62 217.62,-43.56 0,174.15 0,548.46 104.49,705.24 104.49,156.69 113.22,182.79 -304.65,95.76 -417.96,-87.12 -391.77,-383.04 -348.3,-426.6 43.56,-43.56 330.84,-330.84 330.84,-330.84" />
        <path
           inkscape:connector-curvature="0"
           id="path104"
           style="fill:#3e6428;fill-opacity:1;fill-rule:nonzero;stroke:none"
           d="m 4436.55,2682.76 c 40.86,57.15 339.57,226.35 644.31,165.42 0,0 -343.98,53.01 -565.92,-269.91 -95.76,-139.23 -252.45,-139.23 -78.39,104.49" />
        <path
           inkscape:connector-curvature="0"
           id="path106"
           style="fill:#3e6428;fill-opacity:1;fill-rule:nonzero;stroke:none"
           d="m 4802.22,3901.63 c 0,0 8.73,-182.88 -8.64,-226.35 0,0 339.48,-26.1 409.14,-52.29 69.66,-26.1 -400.5,278.64 -400.5,278.64" />
        <path
           inkscape:connector-curvature="0"
           id="path108"
           style="fill:#3e6428;fill-opacity:1;fill-rule:nonzero;stroke:none"
           d="m 3731.4,3100.63 -17.37,200.25 c 0,0 -313.47,-17.37 -435.33,278.64 -121.86,296.01 -235.08,400.41 -235.08,400.41 l -182.79,-8.73 c 0,0 -60.93,400.5 -60.93,435.33 0,15.75 -51.66,-2.34 -126,-20.43 -90,-21.87 -213.12,-43.74 -317.97,-5.67 -191.61,69.66 -243.81,8.73 -243.81,8.73 0,0 1105.65,-1149.21 1349.37,-1149.21 243.81,0 269.91,-139.32 269.91,-139.32" />
        <path
           inkscape:connector-curvature="0"
           id="path110"
           style="fill:#3e6428;fill-opacity:1;fill-rule:nonzero;stroke:none"
           d="m 2120.85,4450.09 c 27.27,-3.87 139.23,504.9 182.79,531 43.56,26.19 -296.01,174.15 -348.21,165.42 -52.2,-8.64 -78.39,-661.59 165.42,-696.42" />
        <path
           inkscape:connector-curvature="0"
           id="path112"
           style="fill:#3e6428;fill-opacity:1;fill-rule:nonzero;stroke:none"
           d="m 1972.8,5590.57 c 0,0 156.69,78.3 182.88,147.96 26.1,69.66 52.2,156.69 8.64,208.98 -43.47,52.2 -191.52,-356.94 -191.52,-356.94" />
        <path
           inkscape:connector-curvature="0"
           id="path114"
           style="fill:#3e6428;fill-opacity:1;fill-rule:nonzero;stroke:none"
           d="m 3190.68,4566.91 c 0,0 -129.6,-3.69 -190.53,5.04 -60.93,8.73 -60.93,17.46 43.47,165.42 104.49,147.96 104.49,147.96 104.49,147.96 l 170.37,-125.28 -127.8,-193.14" />
        <path
           inkscape:connector-curvature="0"
           id="path116"
           style="fill:#3e6428;fill-opacity:1;fill-rule:nonzero;stroke:none"
           d="m 3017.52,4946.26 c 0,0 -391.77,43.56 -470.07,87.12 -78.39,43.56 252.45,243.72 252.45,243.72 0,0 -383.04,313.47 -417.87,409.23 -34.83,95.76 87.03,87.03 235.08,95.76 147.96,8.73 234.99,104.49 234.99,104.49 0,0 -78.3,287.28 -43.47,356.94 34.74,69.57 -17.46,174.06 -17.46,174.06 0,0 313.47,-95.76 417.87,-208.89 104.49,-113.22 200.25,-26.19 243.81,174.06 43.47,200.25 60.93,226.35 60.93,226.35 0,0 200.25,-243.72 243.72,-296.01 43.56,-52.2 104.49,-200.16 200.25,-8.64 95.76,191.52 278.64,365.58 330.84,356.94 52.2,-8.73 -60.93,-243.81 -43.56,-409.23 17.46,-165.42 165.42,-113.13 304.74,-113.13 139.32,0 313.38,26.1 356.94,-43.56 43.56,-69.66 -69.66,-8.73 -174.15,-174.06 -104.4,-165.42 -104.4,-165.42 -104.4,-165.42 0,0 -435.33,504.9 -1271.07,269.82 -491.13,-138.06 -813.06,-468.27 -313.47,-1044.72 113.22,-130.59 -26.1,-34.83 -26.1,-34.83" />
        <path
           inkscape:connector-curvature="0"
           id="path118"
           style="fill:#3e6428;fill-opacity:1;fill-rule:nonzero;stroke:none"
           d="m 4662.94,4406.53 c 0,0 -87.05,121.89 -226.35,148.01 -139.29,26.12 -235.06,43.53 -235.06,43.53 0,0 304.71,-130.58 296.01,-243.76 -8.72,-113.18 165.4,52.22 165.4,52.22" />
        <path
           inkscape:connector-curvature="0"
           id="path120"
           style="fill:#3e6428;fill-opacity:1;fill-rule:nonzero;stroke:none"
           d="m 4671.67,4458.78 c 0,0 69.63,200.24 -8.73,330.81 -78.35,130.6 0,104.48 165.42,130.6 165.41,26.11 304.7,-17.42 243.75,95.76 -60.92,113.18 8.72,200.24 -95.76,235.06 -104.46,34.82 -34.82,69.65 200.25,121.88 235.06,52.24 235.06,52.24 235.06,52.24 0,0 191.52,-356.95 -739.99,-966.35" />
        <path
           inkscape:connector-curvature="0"
           id="path122"
           style="fill:#3e6428;fill-opacity:1;fill-rule:nonzero;stroke:none"
           d="m 5394.24,5668.9 c 0,0 -130.59,182.82 -217.64,278.58 -87.07,95.76 -104.49,121.88 -8.71,148 95.76,26.12 208.94,-139.29 226.35,-426.58" />
        <path
           inkscape:connector-curvature="0"
           id="path124"
           style="fill:#3e6428;fill-opacity:1;fill-rule:nonzero;stroke:none"
           d="m 5812.11,1307.24 c 78.36,87.07 43.54,165.42 156.71,243.78 113.19,78.35 17.42,139.29 -78.35,121.88 -95.76,-17.43 -182.82,-165.41 -182.82,-165.41 l 104.46,-200.25" />
        <path
           inkscape:connector-curvature="0"
           id="path126"
           style="fill:#3e6428;fill-opacity:1;fill-rule:nonzero;stroke:none"
           d="m 5585.76,262.57 c 0,0 -182.79,130.59 -261.18,322.11 -9.9,24.121 -217.62,-287.282 -348.21,-365.672 0,0 121.86,-43.559 609.39,43.562" />
        <path
           inkscape:connector-curvature="0"
           id="path128"
           style="fill:#3e6428;fill-opacity:1;fill-rule:nonzero;stroke:none"
           d="m 5063.42,732.66 c 0,0 69.64,-130.59 -69.65,-226.351 -139.29,-95.778 -208.94,0 -208.94,0 0,0 87.06,78.351 34.82,182.82 -52.23,104.473 -52.23,104.473 -52.23,104.473 l 296,-60.942" />
        <path
           inkscape:connector-curvature="0"
           id="path130"
           style="fill:#3e6428;fill-opacity:1;fill-rule:nonzero;stroke:none"
           d="m 4306.01,706.551 c 0,0 191.53,-43.531 278.58,8.687 87.08,52.25 -165.41,-296 17.42,-356.929 0,0 -150.04,44.679 -205.62,174.679 -55.56,130.032 -99.09,34.254 -142.62,95.211 -43.52,60.93 0,95.75 52.24,78.352" />
        <path
           inkscape:connector-curvature="0"
           id="path132"
           style="fill:#3e6428;fill-opacity:1;fill-rule:nonzero;stroke:none"
           d="m 1084.83,2900.41 c 0,0 235.06,-34.81 235.06,-60.92 0,-26.14 -17.41,139.28 -60.93,130.57 -43.54,-8.7 -174.13,-69.65 -174.13,-69.65" />
        <path
           inkscape:connector-curvature="0"
           id="path134"
           style="fill:#3e6428;fill-opacity:1;fill-rule:nonzero;stroke:none"
           d="m 2129.49,2308.45 c 0,0 -147.96,130.59 -278.55,234.99 -130.59,104.49 -322.11,139.32 -322.11,139.32 0,0 174.15,-87.03 174.15,-174.15 0,-87.03 174.06,-165.33 174.06,-165.33 l 252.45,-34.83" />
        <path
           inkscape:connector-curvature="0"
           id="path136"
           style="fill:#3e6428;fill-opacity:1;fill-rule:nonzero;stroke:none"
           d="m 2233.98,2290.99 c 0,0 -69.66,60.93 104.49,226.35 174.15,165.42 121.86,296.01 130.59,356.94 8.73,60.93 8.73,60.93 8.73,60.93 0,0 139.32,-191.52 261.18,-234.99 121.86,-43.56 261.18,-200.25 313.38,-217.71 52.29,-17.37 52.29,-17.37 52.29,-17.37 0,0 139.23,147.96 287.28,269.82 147.96,121.95 174.06,296.1 174.06,296.1 0,0 243.81,-400.5 330.84,-409.23 87.03,-8.73 69.66,78.39 69.66,78.39 0,0 348.21,-322.11 -69.66,-356.94 -417.87,-34.83 -1662.84,-52.29 -1662.84,-52.29" />
        <path
           inkscape:connector-curvature="0"
           id="path138"
           style="fill:#f4f8ea;fill-opacity:1;fill-rule:nonzero;stroke:none"
           d="m 6070.7,2269.59 c -4,2.69 -6.14,4.03 -6.14,4.03 -2.77,28.74 -6.28,57.02 -10.48,84.98 1.11,31.91 0.49,62.89 -1.58,92.7 11.91,-62.93 17.93,-123.67 18.2,-181.71 m -233.05,686.21 c -30.62,51.18 -63.55,100.41 -98.29,147.65 -1.6,7.59 -3.7,15.29 -6.27,23.06 41.61,-55.18 79.28,-110.5 113.06,-165.58 -1.31,-0.79 -4.21,-2.54 -8.5,-5.13 m -371.1,468.59 c -18.79,12.75 -37.89,24.26 -57.23,34.63 -68.12,59.61 -137.83,114.29 -207.15,164.17 0.18,-0.06 0.37,-0.13 0.55,-0.2 2.86,-1.07 4.81,-1.58 5.92,-1.59 16.01,-0.01 -142.16,106.49 -265.85,188.18 114.82,-63.28 235.23,-139.82 346.96,-230.06 62.83,-50.75 121.78,-102.6 176.8,-155.13 m -663.1,443.4 c -37.64,19.63 -73.63,37.52 -107.44,53.68 -7.81,7.27 -15.69,14.01 -23.56,20.23 40.66,-17.56 84.54,-37.49 130.55,-59.82 0.15,-4.17 0.3,-8.9 0.45,-14.09 m -315.88,147.06 c -2.53,0.18 -5,0.33 -7.42,0.45 -37.28,14.46 -61.1,22.66 -67.78,24.92 0.01,0.02 0.02,0.02 0.03,0.04 7.17,-2.22 33.91,-10.64 75.17,-25.41" />
        <path
           inkscape:connector-curvature="0"
           id="path140"
           style="fill:#344b1f;fill-opacity:1;fill-rule:nonzero;stroke:none"
           d="m 4575.87,924.16 c 8.73,43.559 -113.13,113.22 -113.13,113.22 206.58,93.34 383.38,188.69 533.57,285.26 -10.31,-47.91 -21.1,-85.7 -31.62,-109.41 -27.37,-17.86 -37.58,-27.89 -23.15,-27.89 7.34,0 15.16,9.88 23.15,27.89 114.68,74.84 530.75,287.32 699.46,477.1 36.54,41.13 148.14,-18.72 0,147.96 -19.04,21.41 -41.82,41.69 -67.08,60.74 15.28,25.82 29.14,51.61 41.68,77.38 37.72,-38.24 58.88,-58.78 71.91,-58.78 23.48,0.02 20.53,66.76 40.52,216.67 12.5,93.7 5.94,173.94 -17.26,245.98 0.03,92.39 -13.96,183.25 -39.14,272.13 1.39,-1.48 2.78,-2.97 4.2,-4.48 130.59,-139.32 147.96,-478.8 130.59,-574.56 -17.46,-95.76 26.1,-287.28 26.1,-287.28 140.11,212.87 192.65,406.52 198.41,572.51 4.2,-27.96 7.71,-56.24 10.48,-84.98 0,0 2.14,-1.34 6.14,-4.03 0,-0.96 0,-1.99 0.01,-2.94 -2.05,2.31 -4.11,4.65 -6.15,6.97 l -34.74,-226.35 c 0,0 2.47,-2.57 6.99,-7.5 -7.06,-21.49 -15.2,-42.2 -24.45,-62.16 C 5629.32,1150.51 4575.87,924.16 4575.87,924.16 m 1054.9,1902.24 c -12.24,27.13 -25.43,54.05 -39.42,80.64 25.62,12.47 52.75,27.56 81.44,45.63 61.29,38.59 79.01,91.69 66.57,150.78 34.74,-47.24 67.67,-96.47 98.29,-147.65 -24.87,-15.05 -96.35,-58.53 -173.5,-107.62 -12.89,-8.2 -24.04,-15.3 -33.38,-21.78 m -221.45,632.62 c -108.16,57.99 -223.73,80.36 -335.22,86.24 -44.81,41.08 -89.64,80.13 -133.65,116.92 100.47,-9.99 222.33,-24.46 261.72,-38.99 69.32,-49.88 139.03,-104.56 207.15,-164.17 m -605.24,312.43 c -21.85,16.79 -43.24,32.91 -64.03,48.3 -1.92,35.73 -7.66,63.6 -16.13,73.15 -9.21,10.36 -18.52,19.85 -27.91,28.57 33.81,-16.16 69.8,-34.05 107.44,-53.68 0.73,-25.38 1.38,-61.59 0.63,-96.34 m -323.93,243.85 c -5.25,0.25 -10.24,0.36 -14.94,0.36 -4.45,0 -8.63,-0.1 -12.53,-0.26 -21.73,13.42 -35.78,21.7 -40.48,24.44 0.05,0.12 0.12,0.26 0.17,0.38 6.68,-2.26 30.5,-10.46 67.78,-24.92" />
        <path
           inkscape:connector-curvature="0"
           id="path142"
           style="fill:#354d20;fill-opacity:1;fill-rule:nonzero;stroke:none"
           d="m 4412.2,4039.84 c -1.16,0.68 -1.75,1.02 -1.75,1.02 0,0 0.66,-0.2 1.95,-0.6 -0.01,-0.02 -0.02,-0.02 -0.03,-0.04 -0.05,-0.12 -0.12,-0.26 -0.17,-0.38" />
        <path
           inkscape:connector-curvature="0"
           id="path144"
           style="fill:#ffffff;fill-opacity:1;fill-rule:nonzero;stroke:none"
           d="m 5591.35,2907.04 c -19.63,37.3 -40.85,73.97 -63.49,110.11 17.69,6.82 36.94,14.35 57.9,22.55 78.37,30.75 140.34,59.68 132.13,106.75 5.12,-6.64 10.2,-13.3 15.2,-19.94 2.57,-7.77 4.67,-15.47 6.27,-23.06 12.44,-59.09 -5.28,-112.19 -66.57,-150.78 -28.69,-18.07 -55.82,-33.16 -81.44,-45.63 m 16.42,371.69 c -42.18,32.8 -87.29,60.37 -117.77,74.44 -69.91,32.26 -179.75,74.52 -311,91.82 -34.7,34.62 -69.79,68.07 -104.9,100.27 111.49,-5.88 227.06,-28.25 335.22,-86.24 19.34,-10.37 38.44,-21.88 57.23,-34.63 50.31,-48.03 97.36,-96.66 141.22,-145.66" />
        <path
           inkscape:connector-curvature="0"
           id="path146"
           style="fill:#8e9571;fill-opacity:1;fill-rule:nonzero;stroke:none"
           d="m 5591.35,2907.04 c -19.63,37.3 -40.85,73.97 -63.49,110.11 17.69,6.82 36.94,14.35 57.9,22.55 78.37,30.75 140.34,59.68 132.13,106.75 5.12,-6.64 10.2,-13.3 15.2,-19.94 2.57,-7.77 4.67,-15.47 6.27,-23.06 12.44,-59.09 -5.28,-112.19 -66.57,-150.78 -28.69,-18.07 -55.82,-33.16 -81.44,-45.63 m 16.42,371.69 c -42.18,32.8 -87.29,60.37 -117.77,74.44 -69.91,32.26 -179.75,74.52 -311,91.82 -34.7,34.62 -69.79,68.07 -104.9,100.27 111.49,-5.88 227.06,-28.25 335.22,-86.24 19.34,-10.37 38.44,-21.88 57.23,-34.63 50.31,-48.03 97.36,-96.66 141.22,-145.66" />
        <path
           inkscape:connector-curvature="0"
           id="path148"
           style="fill:#ffffff;fill-opacity:1;fill-rule:nonzero;stroke:none"
           d="m 5527.86,3017.15 c -97.4,155.44 -220.35,299.62 -348.86,427.84 131.25,-17.3 241.09,-59.56 311,-91.82 30.48,-14.07 75.59,-41.64 117.77,-74.44 39.27,-43.87 75.96,-88.02 110.12,-132.28 8.21,-47.07 -53.76,-76 -132.13,-106.75 -20.96,-8.2 -40.21,-15.73 -57.9,-22.55" />
        <path
           inkscape:connector-curvature="0"
           id="path150"
           style="fill:#4b5832;fill-opacity:1;fill-rule:nonzero;stroke:none"
           d="m 5527.86,3017.15 c -97.4,155.44 -220.35,299.62 -348.86,427.84 131.25,-17.3 241.09,-59.56 311,-91.82 30.48,-14.07 75.59,-41.64 117.77,-74.44 39.27,-43.87 75.96,-88.02 110.12,-132.28 8.21,-47.07 -53.76,-76 -132.13,-106.75 -20.96,-8.2 -40.21,-15.73 -57.9,-22.55" />
        <path
           inkscape:connector-curvature="0"
           id="path152"
           style="fill:#ffffff;fill-opacity:1;fill-rule:nonzero;stroke:none"
           d="m 5710.66,1917.63 c -13.03,0 -34.19,20.54 -71.91,58.78 16.79,34.51 31.18,68.98 43.31,103.34 2.83,-2.15 5.56,-4.28 8.19,-6.38 6.03,-4.83 11.3,-7.11 15.84,-7.1 23.11,0.02 26.69,59.39 11.13,141.9 11.35,57.8 16.68,115.22 16.7,172.11 23.2,-72.04 29.76,-152.28 17.26,-245.98 -19.99,-149.91 -17.04,-216.65 -40.52,-216.67" />
        <path
           inkscape:connector-curvature="0"
           id="path154"
           style="fill:#8e9571;fill-opacity:1;fill-rule:nonzero;stroke:none"
           d="m 5710.66,1917.63 c -13.03,0 -34.19,20.54 -71.91,58.78 16.79,34.51 31.18,68.98 43.31,103.34 2.83,-2.15 5.56,-4.28 8.19,-6.38 6.03,-4.83 11.3,-7.11 15.84,-7.1 23.11,0.02 26.69,59.39 11.13,141.9 11.35,57.8 16.68,115.22 16.7,172.11 23.2,-72.04 29.76,-152.28 17.26,-245.98 -19.99,-149.91 -17.04,-216.65 -40.52,-216.67" />
        <path
           inkscape:connector-curvature="0"
           id="path156"
           style="fill:#ffffff;fill-opacity:1;fill-rule:nonzero;stroke:none"
           d="m 5706.09,2066.27 c -4.54,-0.01 -9.81,2.27 -15.84,7.1 -2.63,2.1 -5.36,4.23 -8.19,6.38 15.17,42.97 26.79,85.79 35.16,128.42 15.56,-82.51 11.98,-141.88 -11.13,-141.9" />
        <path
           inkscape:connector-curvature="0"
           id="path158"
           style="fill:#4b5832;fill-opacity:1;fill-rule:nonzero;stroke:none"
           d="m 5706.09,2066.27 c -4.54,-0.01 -9.81,2.27 -15.84,7.1 -2.63,2.1 -5.36,4.23 -8.19,6.38 15.17,42.97 26.79,85.79 35.16,128.42 15.56,-82.51 11.98,-141.88 -11.13,-141.9" />
        <path
           inkscape:connector-curvature="0"
           id="path160"
           style="fill:#ffffff;fill-opacity:1;fill-rule:nonzero;stroke:none"
           d="m 4740.05,3819.75 c -127.07,94.1 -232.06,161.5 -287.37,195.65 3.9,0.16 8.08,0.26 12.53,0.26 4.7,0 9.69,-0.11 14.94,-0.36 2.42,-0.12 4.89,-0.27 7.42,-0.45 45.96,-16.45 109.93,-40.77 184.88,-73.15 7.87,-6.22 15.75,-12.96 23.56,-20.23 9.39,-8.72 18.7,-18.21 27.91,-28.57 8.47,-9.55 14.21,-37.42 16.13,-73.15" />
        <path
           inkscape:connector-curvature="0"
           id="path162"
           style="fill:#8e9571;fill-opacity:1;fill-rule:nonzero;stroke:none"
           d="m 4740.05,3819.75 c -127.07,94.1 -232.06,161.5 -287.37,195.65 3.9,0.16 8.08,0.26 12.53,0.26 4.7,0 9.69,-0.11 14.94,-0.36 2.42,-0.12 4.89,-0.27 7.42,-0.45 45.96,-16.45 109.93,-40.77 184.88,-73.15 7.87,-6.22 15.75,-12.96 23.56,-20.23 9.39,-8.72 18.7,-18.21 27.91,-28.57 8.47,-9.55 14.21,-37.42 16.13,-73.15" />
        <path
           inkscape:connector-curvature="0"
           id="path164"
           style="fill:#466f2a;fill-opacity:1;fill-rule:nonzero;stroke:none"
           d="m 4941.54,1185.34 c -14.43,0 -4.22,10.03 23.15,27.89 -7.99,-18.01 -15.81,-27.89 -23.15,-27.89 m 23.15,27.89 c 10.52,23.71 21.31,61.5 31.62,109.41 294.36,189.28 486.58,383.35 600.76,576.39 25.26,-19.05 48.04,-39.33 67.08,-60.74 148.14,-166.68 36.54,-106.83 0,-147.96 -168.71,-189.78 -584.78,-402.26 -699.46,-477.1" />
        <path
           inkscape:connector-curvature="0"
           id="path166"
           style="fill:#466f2a;fill-opacity:1;fill-rule:nonzero;stroke:none"
           d="m 5855.67,1786.09 c 0,0 -43.56,191.52 -26.1,287.28 17.37,95.76 0,435.24 -130.59,574.56 -1.42,1.51 -2.81,3 -4.2,4.48 -16.7,58.97 -38.33,117.08 -64.01,173.99 9.34,6.48 20.49,13.58 33.38,21.78 77.15,49.09 148.63,92.57 173.5,107.62 4.29,2.59 7.19,4.34 8.5,5.13 107.87,-175.92 176.08,-349.57 206.35,-509.63 2.07,-29.81 2.69,-60.79 1.58,-92.7 -5.76,-165.99 -58.3,-359.64 -198.41,-572.51" />
        <path
           inkscape:connector-curvature="0"
           id="path168"
           style="fill:#466f2a;fill-opacity:1;fill-rule:nonzero;stroke:none"
           d="m 5208.64,3621.4 c -1.11,0.01 -3.06,0.52 -5.92,1.59 -0.18,0.07 -0.37,0.14 -0.55,0.2 -39.39,14.53 -161.25,29 -261.72,38.99 -46.67,39.01 -92.51,75.55 -136.37,109.27 0.75,34.75 0.1,70.96 -0.63,96.34 -0.15,5.19 -0.3,9.92 -0.45,14.09 44.92,-21.8 91.88,-45.9 139.79,-72.3 123.69,-81.69 281.86,-188.19 265.85,-188.18" />
        <path
           inkscape:connector-curvature="0"
           id="path170"
           style="fill:#202718;fill-opacity:1;fill-rule:nonzero;stroke:none"
           d="m 3248.66,4653.08 c -0.21,0.15 -0.43,0.3 -0.66,0.46 l 18.62,28.14 c -5.97,-9.54 -11.93,-19.08 -17.96,-28.6" />
        <path
           inkscape:connector-curvature="0"
           id="path172"
           style="fill:#304f21;fill-opacity:1;fill-rule:nonzero;stroke:none"
           d="m 3252.6,4650.34 c 0,0 -1.36,0.93 -3.94,2.74 6.03,9.52 11.99,19.06 17.96,28.6 l 51.86,78.37 v 0 l -65.88,-109.71" />
        <path
           inkscape:connector-curvature="0"
           id="path174"
           style="fill:#202718;fill-opacity:1;fill-rule:nonzero;stroke:none"
           d="m 4165.72,4674.09 -47.3,49.7 -64.91,91.97 c 0,0 722.61,365.58 618.12,766.08 -71.54,274.22 -492.66,496.94 -934.38,496.94 -180.08,0 -363.56,-37.01 -528.21,-122.63 -217.62,-113.13 -461.43,-339.48 -339.48,-670.32 71.74,-194.78 214.62,-342.46 320,-430.98 l -41.45,30.48 c 0,0 0,0 -66.43,-94.07 -48.99,46.02 -103,102.01 -154.23,166.02 53.29,-6.93 90.07,-11.02 90.07,-11.02 0,0 49.25,-33.85 65.39,-33.85 11,0 6.61,15.74 -39.29,68.68 -499.59,576.45 -177.66,906.66 313.47,1044.72 157.82,44.39 301.36,62.4 430.39,62.4 554.23,0 840.68,-332.22 840.68,-332.22 0,0 0.01,0.01 54.66,86.62 22.66,-30.01 42.28,-61.8 58.47,-95.35 122.66,-254.38 113.26,-503.15 -575.57,-1073.17" />
        <path
           inkscape:connector-curvature="0"
           id="path176"
           style="fill:#416327;fill-opacity:1;fill-rule:nonzero;stroke:none"
           d="m 4158,4667.71 -39.58,56.08 47.3,-49.7 c -2.57,-2.13 -5.13,-4.24 -7.72,-6.38" />
        <path
           inkscape:connector-curvature="0"
           id="path178"
           style="fill:#202718;fill-opacity:1;fill-rule:nonzero;stroke:none"
           d="m 2756.62,5249.82 c -10.17,27.75 -18.81,56.08 -25.64,85 41.19,-35.03 68.92,-57.72 68.92,-57.72 0,0 -17.41,-10.53 -43.28,-27.28" />
        <path
           inkscape:connector-curvature="0"
           id="path180"
           style="fill:#2b3f1b;fill-opacity:1;fill-rule:nonzero;stroke:none"
           d="m 3248,4653.54 c -17.77,12.54 -85.13,61.43 -166.32,137.72 66.43,94.07 66.43,94.07 66.43,94.07 l 41.45,-30.48 c 73.61,-61.83 128.92,-94.8 128.92,-94.8 l -51.86,-78.37 -18.62,-28.14" />
        <path
           inkscape:connector-curvature="0"
           id="path182"
           style="fill:#2b3f1b;fill-opacity:1;fill-rule:nonzero;stroke:none"
           d="m 3082.91,4912.41 c -16.14,0 -65.39,33.85 -65.39,33.85 0,0 -36.78,4.09 -90.07,11.02 -67.97,84.93 -131.02,183.98 -170.83,292.54 25.87,16.75 43.28,27.28 43.28,27.28 0,0 -27.73,22.69 -68.92,57.72 -27.37,115.83 -25.47,240.45 25.36,368.88 135.46,342.14 562.64,505.13 991.14,505.13 376.35,0 753.7,-125.72 935.34,-366.22 -54.65,-86.61 -54.66,-86.62 -54.66,-86.62 0,0 -286.45,332.22 -840.68,332.22 -129.03,0 -272.57,-18.01 -430.39,-62.4 -491.13,-138.06 -813.06,-468.27 -313.47,-1044.72 45.9,-52.94 50.29,-68.68 39.29,-68.68" />
        <path
           inkscape:connector-curvature="0"
           id="path184"
           style="fill:#dfebc7;fill-opacity:1;fill-rule:nonzero;stroke:none"
           d="m 6613.11,1098.31 v 0 c 13.99,181.85 -7.36,342.15 -48.55,481.2 52.91,-140.88 74.37,-296.81 48.55,-481.2 v 0" />
        <path
           inkscape:connector-curvature="0"
           id="path186"
           style="fill:#c2d2a6;fill-opacity:1;fill-rule:nonzero;stroke:none"
           d="m 5778.83,284.879 c 91.47,28.691 181.77,64.422 267.43,107.211 27.18,11.211 44.49,18.441 44.49,18.441 l 22.31,16.918 c 160.19,89.84 298.98,205.852 389.82,347.563 C 6343.57,503.441 6051.14,360.289 5778.83,284.879" />
        <path
           inkscape:connector-curvature="0"
           id="path188"
           style="fill:#3b5522;fill-opacity:1;fill-rule:nonzero;stroke:none"
           d="m 5168.92,201.469 c -12.02,0 -18.49,0.172 -18.49,0.172 v 0 c 14.27,3.179 28.53,6.441 42.51,9.699 91.89,5.75 219.16,20.199 392.82,51.23 0,0 -21.89,15.641 -53.76,44.02 123.51,41.621 231.21,86.82 324.84,134.859 -32.69,-47.551 -77.75,-103.59 -140.49,-170.238 -1.31,-1.391 -1.59,-2.313 -0.94,-2.801 -255.5,-62.078 -481.8,-66.941 -546.49,-66.941 m 590.76,78.211 c 72.32,24.761 214.33,82.621 286.58,112.41 -85.66,-42.789 -175.96,-78.52 -267.43,-107.211 -6.39,-1.77 -12.78,-3.5 -19.15,-5.199 m 353.38,147.769 230.14,174.602 c 0,0 -72.5,38.16 -154.08,72.508 68.81,68.492 119.49,139.55 155.35,211.691 -10.43,-111.84 -36.1,-214.539 -36.1,-214.539 139.32,69.66 243.72,374.399 252.45,504.989 5.12,76.54 -70.64,99.21 -148.22,104.87 -38.65,376.58 -327.05,705.08 -375.79,758.2 22.6,68.75 34.01,145.02 33.9,226.88 83.53,-94.69 165.32,-184.57 239.33,-274.89 -10.05,-60.86 -29.95,-161.58 -53.96,-179.57 -34.74,-26.1 61.02,-60.93 174.15,-147.96 113.22,-87.12 113.22,-87.12 113.22,-87.12 v 0 0 l -39.01,133.81 c 22.94,-42.57 43.14,-86.19 60.12,-131.41 41.19,-139.05 62.54,-299.35 48.55,-481.2 v 0 C 6595.71,974.199 6556.94,867.18 6502.88,775.012 6412.04,633.301 6273.25,517.289 6113.06,427.449" />
        <path
           inkscape:connector-curvature="0"
           id="path190"
           style="fill:#49732b;fill-opacity:1;fill-rule:nonzero;stroke:none"
           d="m 6543.45,1577.11 c 0,0 0,0 -113.22,87.12 -113.13,87.03 -208.89,121.86 -174.15,147.96 24.01,17.99 43.91,118.71 53.96,179.57 74.88,-91.39 141.79,-183.24 194.4,-280.84 l 39.01,-133.81" />
        <path
           inkscape:connector-curvature="0"
           id="path192"
           style="fill:#49732b;fill-opacity:1;fill-rule:nonzero;stroke:none"
           d="m 6308.37,671.711 c 0,0 25.67,102.699 36.1,214.539 65.26,131.29 81.39,266.16 68.13,395.32 77.58,-5.66 153.34,-28.33 148.22,-104.87 -8.73,-130.59 -113.13,-435.329 -252.45,-504.989" />
        <path
           inkscape:connector-curvature="0"
           id="path194"
           style="fill:#49732b;fill-opacity:1;fill-rule:nonzero;stroke:none"
           d="m 5715.41,268.41 c -0.65,0.488 -0.37,1.41 0.94,2.801 62.74,66.648 107.8,122.687 140.49,170.238 140.69,72.199 249.59,150.801 332.28,233.11 81.58,-34.348 154.08,-72.508 154.08,-72.508 l -230.14,-174.602 -22.31,-16.918 c 0,0 -17.31,-7.23 -44.49,-18.441 -72.25,-29.789 -214.26,-87.649 -286.58,-112.41 -14.84,-3.95 -29.59,-7.7 -44.27,-11.27" />
        <path
           inkscape:connector-curvature="0"
           id="path196"
           style="fill:#49732b;fill-opacity:1;fill-rule:nonzero;stroke:none"
           d="m 5192.94,211.34 c 124.46,29.012 237.06,60.879 339.06,95.25 31.87,-28.379 53.76,-44.02 53.76,-44.02 -173.66,-31.031 -300.93,-45.48 -392.82,-51.23" />
        <path
           inkscape:connector-curvature="0"
           id="path198"
           style="fill:#415f25;fill-opacity:1;fill-rule:nonzero;stroke:none"
           d="m 6036.81,2039.77 c -4.52,4.93 -6.99,7.5 -6.99,7.5 l 34.74,226.35 c 2.04,-2.32 4.1,-4.66 6.15,-6.97 0.11,-81.86 -11.3,-158.13 -33.9,-226.88" />
        <path
           inkscape:connector-curvature="0"
           id="path200"
           style="fill:#232d19;fill-opacity:1;fill-rule:nonzero;stroke:none"
           d="m 3225.59,2259.67 c -191.15,0.01 -388.66,7.27 -564.99,16.75 -0.02,3.94 -0.02,5.93 -0.02,5.93 l -173.84,12.84 c 386.41,7.09 1110.63,23.13 1410.08,48.09 322.43,26.88 188.76,224.78 110.88,313.79 -4.46,82.37 -102.15,147.55 -102.15,147.55 0,0 36.19,-18.82 80.24,-60.58 67.75,-90.24 117.15,-183.84 128.65,-273.14 15.45,-119.74 -205.45,-176.49 -507.31,-198.93 -2.24,1.09 -4.35,1.65 -6.32,1.65 -34.83,0 -348.21,8.73 -348.21,8.73 0,0 -6.05,-8.74 -16.65,-22.66 -3.44,-0.01 -6.92,-0.02 -10.36,-0.02 m -809.91,31.98 c -8.7,0.61 -17.25,1.22 -25.71,1.83 9.2,0.16 18.7,0.32 28.55,0.49 -0.86,-0.71 -1.82,-1.49 -2.84,-2.32" />
        <path
           inkscape:connector-curvature="0"
           id="path202"
           style="fill:#b3c3b5;fill-opacity:1;fill-rule:nonzero;stroke:none"
           d="m 3235.95,2259.69 c 10.6,13.92 16.65,22.66 16.65,22.66 0,0 313.38,-8.73 348.21,-8.73 1.97,0 4.08,-0.56 6.32,-1.65 -114.88,-8.54 -241.47,-12.11 -371.18,-12.28" />
        <path
           inkscape:connector-curvature="0"
           id="path204"
           style="fill:#828b65;fill-opacity:1;fill-rule:nonzero;stroke:none"
           d="m 3235.95,2259.69 c 10.6,13.92 16.65,22.66 16.65,22.66 0,0 313.38,-8.73 348.21,-8.73 1.97,0 4.08,-0.56 6.32,-1.65 -114.88,-8.54 -241.47,-12.11 -371.18,-12.28" />
        <path
           inkscape:connector-curvature="0"
           id="path206"
           style="fill:#b3c3b5;fill-opacity:1;fill-rule:nonzero;stroke:none"
           d="m 2660.6,2276.42 c -88.05,4.73 -170.8,10.01 -244.92,15.23 1.02,0.83 1.98,1.61 2.84,2.32 21.31,0.38 44.1,0.78 68.22,1.22 l 173.84,-12.84 c 0,0 0,-1.99 0.02,-5.93" />
        <path
           inkscape:connector-curvature="0"
           id="path208"
           style="fill:#828b65;fill-opacity:1;fill-rule:nonzero;stroke:none"
           d="m 2660.6,2276.42 c -88.05,4.73 -170.8,10.01 -244.92,15.23 1.02,0.83 1.98,1.61 2.84,2.32 21.31,0.38 44.1,0.78 68.22,1.22 l 173.84,-12.84 c 0,0 0,-1.99 0.02,-5.93" />
        <path
           inkscape:connector-curvature="0"
           id="path210"
           style="fill:#232d19;fill-opacity:1;fill-rule:nonzero;stroke:none"
           d="m 2224.47,2306.3 c -42.22,3.5 -77.04,6.59 -102.69,8.93 -2.61,2.29 -5.84,5.11 -9.64,8.43 36.85,-0.24 72.97,-0.37 108.44,-0.39 0.66,-6.79 2.14,-12.42 3.89,-16.97 m -118.34,3.79 c -115.35,9.18 -185.53,15.73 -185.53,15.73 31.09,-0.49 61.87,-0.91 92.07,-1.25 l 82.38,-11.37 c 3.35,-0.95 7.05,-1.99 11.08,-3.11" />
        <path
           inkscape:connector-curvature="0"
           id="path212"
           style="fill:#304a1f;fill-opacity:1;fill-rule:nonzero;stroke:none"
           d="m 2095.05,2313.2 -82.38,11.37 c 33.82,-0.39 66.76,-0.69 99.47,-0.91 3.8,-3.32 7.03,-6.14 9.64,-8.43 -32.39,2.96 -50.25,4.74 -50.25,4.74 0,0 8.11,-2.41 23.52,-6.77" />
        <path
           inkscape:connector-curvature="0"
           id="path214"
           style="fill:#304a1f;fill-opacity:1;fill-rule:nonzero;stroke:none"
           d="m 2389.97,2293.48 c -62.78,4.52 -118.74,8.93 -165.5,12.82 -1.75,4.55 -3.23,10.18 -3.89,16.97 5.05,-0.01 10.1,-0.02 15.12,-0.02 1511.82,0.02 1779.65,192.31 1772,333.82 77.88,-89.01 211.55,-286.91 -110.88,-313.79 -299.45,-24.96 -1023.67,-41 -1410.08,-48.09 -24.12,-0.44 -46.91,-0.84 -68.22,-1.22 -9.85,-0.17 -19.35,-0.33 -28.55,-0.49" />
        <path
           inkscape:connector-curvature="0"
           id="path216"
           style="fill:#385020;fill-opacity:1;fill-rule:nonzero;stroke:none"
           d="m 2832.39,3610.03 c 0,0 -398.03,282.76 -676.24,733.8 70.72,-72.42 219.49,-223.26 393.48,-390.79 81.62,-111.18 175.46,-225.56 282.76,-343.01 m -708.54,787.9 c -11.43,19.78 -22.55,39.79 -33.43,60.16 9.65,-3.78 19.78,-6.48 30.43,-8 0.1,-0.01 0.21,-0.02 0.31,-0.02 10.75,0 33.95,75.38 60.88,169.4 25.4,-69.89 55.63,-141.34 91.3,-214.64 -29.96,6.52 -54.85,9 -75.36,9 -38.69,0 -61.79,-8.81 -74.13,-15.9" />
        <path
           inkscape:connector-curvature="0"
           id="path218"
           style="fill:#4a752b;fill-opacity:1;fill-rule:nonzero;stroke:none"
           d="m 2549.63,3953.04 c -173.99,167.53 -322.76,318.37 -393.48,390.79 -10.96,17.76 -21.75,35.82 -32.3,54.1 12.34,7.09 35.44,15.9 74.13,15.9 20.51,0 45.4,-2.48 75.36,-9 70.14,-144.11 161.05,-294.81 276.29,-451.79" />
        <path
           inkscape:connector-curvature="0"
           id="path220"
           style="fill:#ebf2dd;fill-opacity:1;fill-rule:nonzero;stroke:none"
           d="m 1920.66,4919.78 c -75.36,378.38 -7.36,818.11 319.26,1194.31 -41.73,-59.14 -79.04,-120.52 -112.1,-183.51 -60.15,-77.82 -155.02,-340.01 -155.02,-340.01 0,0 9.48,4.74 24.16,12.91 -52.12,-181.11 -74.27,-365.76 -69.34,-540.7 -5.02,-38.99 -7.74,-88.74 -6.96,-143" />
        <path
           inkscape:connector-curvature="0"
           id="path222"
           style="fill:#385020;fill-opacity:1;fill-rule:nonzero;stroke:none"
           d="m 1927.62,5062.78 c -4.93,174.94 17.22,359.59 69.34,540.7 45.01,25.08 138.97,82.52 158.72,135.05 26.1,69.66 52.2,156.69 8.64,208.98 -2.61,3.13 -5.59,4.6 -8.89,4.6 -7.69,0 -17.12,-7.97 -27.61,-21.53 33.06,62.99 70.37,124.37 112.1,183.51 143.97,165.81 338.14,319.26 592.47,449.74 0,0 -812.97,-515.7 -756.5,-1449.47 -50.47,19.19 -94.91,32.52 -115.29,32.52 -1.95,0 -3.68,-0.12 -5.17,-0.37 -11.33,-1.87 -21.43,-34.08 -27.81,-83.73" />
        <path
           inkscape:connector-curvature="0"
           id="path224"
           style="fill:#4a752b;fill-opacity:1;fill-rule:nonzero;stroke:none"
           d="m 2121.16,4450.07 c -0.1,0 -0.21,0.01 -0.31,0.02 -10.65,1.52 -20.78,4.22 -30.43,8 -54.55,102.21 -101.7,211.72 -136.34,327.34 -13.11,43.76 -24.31,88.58 -33.42,134.35 -0.78,54.26 1.94,104.01 6.96,143 6.38,49.65 16.48,81.86 27.81,83.73 1.49,0.25 3.22,0.37 5.17,0.37 20.38,0 64.82,-13.33 115.29,-32.52 9.29,-153.76 42.19,-318.9 106.15,-494.89 -26.93,-94.02 -50.13,-169.4 -60.88,-169.4" />
        <path
           inkscape:connector-curvature="0"
           id="path226"
           style="fill:#4a752b;fill-opacity:1;fill-rule:nonzero;stroke:none"
           d="m 1972.8,5590.57 c 0,0 94.87,262.19 155.02,340.01 10.49,13.56 19.92,21.53 27.61,21.53 3.3,0 6.28,-1.47 8.89,-4.6 43.56,-52.29 17.46,-139.32 -8.64,-208.98 -19.75,-52.53 -113.71,-109.97 -158.72,-135.05 -14.68,-8.17 -24.16,-12.91 -24.16,-12.91" />
        <path
           inkscape:connector-curvature="0"
           id="path228"
           style="fill:#100f0d;fill-opacity:1;fill-rule:nonzero;stroke:none"
           d="m 3415.02,4209.13 c 0,0 101.62,3.05 140.55,66.58 67.13,109.54 166.29,164.37 261.35,-9.86 14.79,-27.14 81.37,-19.72 81.37,-19.72 l -22.2,-234.25 c -103.62,41.5 -426.62,12.87 -436.41,9.86 -56.7,-17.23 -24.66,187.39 -24.66,187.39" />
        <path
           inkscape:connector-curvature="0"
           id="path230"
           style="fill:#cdccc9;fill-opacity:1;fill-rule:nonzero;stroke:none"
           d="m 3341.08,4359.55 c 0,0 0,-367.39 125.72,-572.01 0,0 0,707.62 71.53,840.75 l -197.25,-268.74" />
        <path
           inkscape:connector-curvature="0"
           id="path232"
           style="fill:#ffffff;fill-opacity:1;fill-rule:nonzero;stroke:none"
           d="m 3341.08,4359.55 c 0,0 0,-367.39 125.72,-572.01 0,0 -44.37,613.93 71.53,840.75 l -197.25,-268.74" />
        <path
           inkscape:connector-curvature="0"
           id="path234"
           style="fill:#cdccc9;fill-opacity:1;fill-rule:nonzero;stroke:none"
           d="m 3979.67,4359.55 c 0,0 0,-367.39 -125.75,-572.01 0,0 0,707.62 -71.48,840.75 l 197.23,-268.74" />
        <path
           inkscape:connector-curvature="0"
           id="path236"
           style="fill:#ffffff;fill-opacity:1;fill-rule:nonzero;stroke:none"
           d="m 3850.47,4601.89 129.2,-242.34 c 0,0 0,-367.39 -125.75,-572.01 0,0 44.41,613.93 -71.48,840.75 l 68.03,-26.4" />
        <path
           inkscape:connector-curvature="0"
           id="path238"
           style="fill:#838b66;fill-opacity:1;fill-rule:nonzero;stroke:none"
           d="m 1041.3,1342.07 c 0,0 435.3,461.41 626.83,557.18 191.52,95.75 156.7,226.34 217.65,374.35 60.93,148 26.11,104.47 26.11,104.47 0,0 -400.47,104.48 -661.65,8.7 -261.174,-95.75 -330.822,-365.64 -313.408,-496.24 17.41,-130.57 34.824,-557.18 104.468,-548.46" />
        <path
           inkscape:connector-curvature="0"
           id="path240"
           style="fill:#3d4c27;fill-opacity:1;fill-rule:nonzero;stroke:none"
           d="m 1050.01,2134.31 c -87.983,-227.3 -62.78,-567.66 0,-670.36 14.34,-23.5 330.82,391.78 513.64,496.23 182.83,104.48 235.06,174.13 235.06,304.71 0,130.58 -339.52,182.84 -513.64,87.06 -60,-32.99 -188.83,-98.19 -235.06,-217.64" />
        <path
           inkscape:connector-curvature="0"
           id="path242"
           style="fill:#838b66;fill-opacity:1;fill-rule:nonzero;stroke:none"
           d="m 536.355,2195.24 c 49.032,39.22 156.711,43.53 235.063,104.47 78.352,60.96 139.297,130.6 304.702,121.89 165.42,-8.7 208.95,113.17 339.54,113.17 130.58,0 235.05,87.05 -52.24,191.53 -287.3,104.48 -487.525,104.48 -687.768,-87.06 -200.23,-191.51 -200.23,-348.22 -287.289,-426.58 -87.062,-78.35 104.469,-52.25 147.992,-17.42" />
        <path
           inkscape:connector-curvature="0"
           id="path244"
           style="fill:#3d4c27;fill-opacity:1;fill-rule:nonzero;stroke:none"
           d="m 632.125,2334.55 c 0,0 235.059,200.22 339.531,182.83 104.464,-17.43 278.584,34.81 313.414,52.21 34.82,17.41 252.46,34.83 43.52,95.77 -208.94,60.94 -287.29,34.82 -417.875,0 -130.586,-34.81 -322.117,-313.41 -278.59,-330.81" />
        <path
           inkscape:connector-curvature="0"
           id="path246"
           style="fill:#838b66;fill-opacity:1;fill-rule:nonzero;stroke:none"
           d="m 2094.72,2421.6 c -77.61,-6.46 -374.36,313.4 -496.24,330.83 -121.88,17.41 -304.71,165.41 -174.12,269.88 1.68,1.31 600.02,146.7 705.17,78.36 174.12,-113.18 182.83,-95.78 148,-365.67 -34.82,-269.87 -78.35,-304.69 -182.81,-313.4" />
        <path
           inkscape:connector-curvature="0"
           id="path248"
           style="fill:#3d4c27;fill-opacity:1;fill-rule:nonzero;stroke:none"
           d="m 1546.24,3057.12 c -128.03,-58.18 -226.35,-139.28 78.35,-217.63 304.71,-78.36 339.54,-478.82 470.13,-365.65 130.58,113.16 261.17,426.57 104.46,557.18 -156.7,130.58 -557.18,69.65 -652.94,26.1" />
        <path
           inkscape:connector-curvature="0"
           id="path250"
           style="fill:#838b66;fill-opacity:1;fill-rule:nonzero;stroke:none"
           d="m 2512.59,3031.02 c 0,0 461.41,-330.84 504.94,-409.2 43.53,-78.34 95.77,-34.82 243.77,113.18 147.99,148.01 278.59,348.25 139.3,426.6 -139.3,78.35 -113.18,8.7 -113.18,8.7 l -644.23,34.82 c 0,0 -130.6,-95.76 -130.6,-174.1" />
        <path
           inkscape:connector-curvature="0"
           id="path252"
           style="fill:#3d4c27;fill-opacity:1;fill-rule:nonzero;stroke:none"
           d="m 2730.24,3179.02 c -43.53,-26.13 -226.35,-26.13 -17.4,-208.96 208.93,-182.8 269.87,-409.16 452.7,-226.35 182.81,182.83 226.35,383.06 121.88,426.59 -104.47,43.54 -557.18,8.72 -557.18,8.72" />
        <path
           inkscape:connector-curvature="0"
           id="path254"
           style="fill:#838b66;fill-opacity:1;fill-rule:nonzero;stroke:none"
           d="m 4227.66,4659.02 c 42.94,7.15 156.7,34.82 252.47,-43.53 95.76,-78.36 165.4,-226.36 113.18,17.4 -52.24,243.76 -130.59,322.13 -287.3,278.58 -156.71,-43.52 -156.71,-43.52 -156.71,-43.52 0,0 -60.95,-26.11 -43.52,-69.65 17.41,-43.53 69.64,-147.99 121.88,-139.28" />
        <path
           inkscape:connector-curvature="0"
           id="path256"
           style="fill:#3d4c27;fill-opacity:1;fill-rule:nonzero;stroke:none"
           d="m 4523.65,4702.54 c 88.66,-4.66 -60.93,243.76 -217.64,165.41 -156.71,-78.36 -113.17,-148 217.64,-165.41" />
        <path
           inkscape:connector-curvature="0"
           id="path258"
           style="fill:#838b66;fill-opacity:1;fill-rule:nonzero;stroke:none"
           d="m 4454,5050.78 c 0,0 -17.41,-121.88 191.53,-95.76 173.64,21.68 409.17,-8.72 365.66,78.35 -43.54,87.06 -200.24,217.64 -243.77,252.46 -43.53,34.83 -113.17,-26.12 -113.17,-26.12 L 4454,5050.78" />
        <path
           inkscape:connector-curvature="0"
           id="path260"
           style="fill:#3d4c27;fill-opacity:1;fill-rule:nonzero;stroke:none"
           d="m 4541.07,5024.65 c 34.82,-8.7 330.82,-26.1 383.06,-8.7 52.22,17.42 43.52,52.23 -52.24,130.58 -95.76,78.36 -174.12,191.53 -252.47,34.83 -78.35,-156.71 -78.35,-156.71 -78.35,-156.71" />
        <path
           inkscape:connector-curvature="0"
           id="path262"
           style="fill:#838b66;fill-opacity:1;fill-rule:nonzero;stroke:none"
           d="m 4741.3,5451.24 c 0,0 78.35,-113.18 130.59,-69.65 52.24,43.54 104.46,78.35 235.06,78.35 130.59,0 330.82,8.72 235.06,130.6 -95.77,121.88 -322.12,313.42 -356.95,356.94 -34.82,43.53 -104.46,0 -165.41,-52.23 -60.93,-52.24 -226.34,-121.89 -226.34,-121.89 0,0 200.23,-174.12 147.99,-322.12" />
        <path
           inkscape:connector-curvature="0"
           id="path264"
           style="fill:#3d4c27;fill-opacity:1;fill-rule:nonzero;stroke:none"
           d="m 4863.18,5459.94 c 72.65,18.17 322.12,87.08 400.47,78.36 78.36,-8.71 -104.47,113.18 -191.54,261.18 -87.05,148 -165.4,52.24 -217.63,8.71 -52.24,-43.53 -165.41,-391.77 8.7,-348.25" />
        <path
           inkscape:connector-curvature="0"
           id="path266"
           style="fill:#838b66;fill-opacity:1;fill-rule:nonzero;stroke:none"
           d="m 4462.72,6208.66 c 52.94,0 200.22,69.64 365.64,34.82 165.41,-34.82 243.75,-34.82 243.75,26.12 0,60.94 0,60.94 0,60.94 0,0 -78.34,182.82 -383.04,322.11 0,0 -174.12,43.54 -208.94,-60.94 -34.82,-104.46 -104.48,-383.05 -17.41,-383.05" />
        <path
           inkscape:connector-curvature="0"
           id="path268"
           style="fill:#3d4c27;fill-opacity:1;fill-rule:nonzero;stroke:none"
           d="m 4593.31,6635.24 c -60.95,-60.94 -208.95,-322.11 -69.66,-313.4 139.29,8.7 339.53,0 400.48,-43.54 60.93,-43.53 182.82,-26.11 17.4,174.12 -165.4,200.23 -304.7,226.35 -348.22,182.82" />
        <path
           inkscape:connector-curvature="0"
           id="path270"
           style="fill:#838b66;fill-opacity:1;fill-rule:nonzero;stroke:none"
           d="m 3870.71,6382.78 c 105.77,84.61 235.07,313.41 287.3,322.11 52.24,8.71 78.35,34.82 43.52,60.94 -34.82,26.12 -26.11,52.24 -52.23,60.95 -26.11,8.7 -208.94,34.82 -435.3,17.4 -226.35,-17.4 -174.11,-121.88 -104.46,-182.82 69.63,-60.93 174.11,-348.23 261.17,-278.58" />
        <path
           inkscape:connector-curvature="0"
           id="path272"
           style="fill:#3d4c27;fill-opacity:1;fill-rule:nonzero;stroke:none"
           d="m 3870.71,6495.95 c 78.36,78.35 356.95,243.76 269.89,304.7 -87.06,60.95 -618.12,104.48 -513.64,-26.11 104.45,-130.59 95.75,-269.88 147.99,-330.82 52.23,-60.94 95.76,52.23 95.76,52.23" />
        <path
           inkscape:connector-curvature="0"
           id="path274"
           style="fill:#32471d;fill-opacity:1;fill-rule:nonzero;stroke:none"
           d="m 2921.77,6548.19 c 52.23,-34.83 304.71,-252.48 374.36,-104.47 69.64,147.99 147.99,252.47 69.64,278.58 -78.35,26.13 -208.94,95.77 -330.82,0 -121.88,-95.76 -113.18,-174.11 -113.18,-174.11" />
        <path
           inkscape:connector-curvature="0"
           id="path276"
           style="fill:#838b66;fill-opacity:1;fill-rule:nonzero;stroke:none"
           d="m 2843.41,6469.84 c 52.24,-26.12 409.18,-356.95 504.94,-87.06 95.77,269.87 165.42,348.23 -26.11,417.87 0,0 -252.47,0 -444,-148 -191.53,-147.99 -34.83,-182.81 -34.83,-182.81" />
        <path
           inkscape:connector-curvature="0"
           id="path278"
           style="fill:#3d4c27;fill-opacity:1;fill-rule:nonzero;stroke:none"
           d="m 2869.54,6548.19 c -21.52,-64.51 296,-269.89 348.24,-147.99 52.22,121.87 243.75,383.04 69.64,374.34 -174.12,-8.71 -391.77,-148 -417.88,-226.35" />
        <path
           inkscape:connector-curvature="0"
           id="path280"
           style="fill:#838b66;fill-opacity:1;fill-rule:nonzero;stroke:none"
           d="m 2277.53,5834.3 c 130.6,0 287.3,95.76 365.66,60.95 78.35,-34.82 95.76,52.23 78.35,147.99 -17.41,95.77 -60.94,330.83 -60.94,365.65 0,34.83 -130.59,8.71 -130.59,8.71 29.4,1.13 -264.85,-124.18 -339.53,-348.24 -48.09,-144.24 87.05,-235.06 87.05,-235.06" />
        <path
           inkscape:connector-curvature="0"
           id="path282"
           style="fill:#3d4c27;fill-opacity:1;fill-rule:nonzero;stroke:none"
           d="m 2425.54,6313.13 c -143.8,-154.08 -287.29,-400.47 -78.35,-374.36 208.93,26.13 374.35,-69.64 339.52,148 -34.82,217.65 -139.29,356.95 -261.17,226.36" />
        <path
           inkscape:connector-curvature="0"
           id="path284"
           style="fill:#838b66;fill-opacity:1;fill-rule:nonzero;stroke:none"
           d="m 1911.89,5277.13 c 0,0 391.76,-226.35 461.41,-174.12 69.65,52.24 191.53,174.12 191.53,226.35 0,52.23 -243.77,287.29 -330.82,278.59 -87.07,-8.71 -304.71,-252.47 -322.12,-330.82" />
        <path
           inkscape:connector-curvature="0"
           id="path286"
           style="fill:#3d4c27;fill-opacity:1;fill-rule:nonzero;stroke:none"
           d="m 1990.24,5294.54 c 52.24,-43.53 322.12,-191.53 435.3,-87.05 113.18,104.47 52.23,156.69 -69.65,278.57 -121.88,121.89 -130.59,104.48 -235.06,8.71 -104.46,-95.76 -130.59,-200.23 -130.59,-200.23" />
        <path
           inkscape:connector-curvature="0"
           id="path288"
           style="fill:#838b66;fill-opacity:1;fill-rule:nonzero;stroke:none"
           d="m 2260.12,4484.89 c 34.83,0 278.6,17.42 383.07,17.42 104.46,0 156.7,17.4 200.22,104.46 43.53,87.07 69.66,148 104.48,174.12 34.82,26.13 8.7,69.65 -174.12,87.06 -182.82,17.42 -356.94,104.47 -443.99,-52.23 -87.07,-156.7 -191.53,-330.83 -69.66,-330.83" />
        <path
           inkscape:connector-curvature="0"
           id="path290"
           style="fill:#3d4c27;fill-opacity:1;fill-rule:nonzero;stroke:none"
           d="m 2303.65,4606.77 c 0,0 -43.53,287.3 261.18,252.47 304.71,-34.82 426.59,8.71 269.88,-156.7 -156.7,-165.41 -252.46,-200.23 -374.35,-182.83 -121.88,17.42 -156.71,87.06 -156.71,87.06" />
        <path
           inkscape:connector-curvature="0"
           id="path292"
           style="fill:#344a1e;fill-opacity:1;fill-rule:nonzero;stroke:none"
           d="m 3860.77,2048.89 c -39.83,0 -79.72,0.56 -119.62,1.63 -48.78,95.99 -89.74,175.53 -117.97,207.73 303.22,13.92 522.94,55.15 517.45,145.96 -10.34,170.13 -90.87,279.18 -154.84,339.83 -21.39,28.48 -44.6,56.62 -69.03,84.2 94.67,-94.67 206.41,-206.41 206.41,-206.41 0,0 111.04,-111.03 174.49,-111.04 15.7,-0.01 28.48,6.8 35.95,23.77 9.09,-10.06 17.88,-20.06 26.36,-30.01 2.54,-8.82 7.72,-14.68 14.85,-17.75 58.64,-71.48 100.05,-139.43 114.59,-199.26 -70.04,27.76 -124.29,50.5 -168.8,50.5 -57.41,0 -98.59,-37.82 -136.51,-151.54 -14.53,-43.6 -29.03,-87.1 -43.16,-127.54 -38.81,-2.92 -77.89,-5.17 -117.18,-6.79 8.58,25.4 16,53.27 21.11,82.13 26.1,148.05 26.1,148.05 26.1,148.05 l -200.25,-34.83 c 0,0 46.32,-102.9 63.78,-197.97 -24.54,-0.44 -49.11,-0.66 -73.73,-0.66 m -774.39,58.74 c -47.95,6.72 -95.05,13.83 -141.07,21.2 l 115.77,127.33 -278.64,8.73 c 0,0 11.72,-50.69 11.64,-110.31 -45.52,8.21 -89.55,16.56 -132.01,24.94 -1.05,47.73 -1.36,79.1 -1.45,93.57 182.71,-9.72 380.59,-17.57 570.33,-19.9 -29.22,-37.72 -84.49,-103.49 -143.77,-144.99 -0.27,-0.19 -0.53,-0.38 -0.8,-0.57 m -728.72,137.99 c -67.92,16.11 -125.67,30.76 -171.14,42.71 2.62,1.75 3.99,2.66 3.99,2.66 l -17.58,0.93 c -27.68,7.34 -50.1,13.5 -66.8,18.17 36.11,-2.88 76.61,-6.01 120.8,-9.28 3.5,-6.71 7.05,-9.82 7.05,-9.82 0,0 39.62,0.56 107.11,1.67 22.73,-1.57 46.1,-3.14 70.04,-4.71 -11.82,-9.59 -30.39,-24.46 -53.47,-42.33 m 1427.78,716.35 c -147.17,137.09 -299.77,244.67 -356.25,283.08 0.72,-0.2 1.44,-0.4 2.14,-0.58 53.17,-34.05 185.46,-120.24 339.39,-231.54 2.53,-21.79 8.07,-39.46 14.72,-50.96" />
        <path
           inkscape:connector-curvature="0"
           id="path294"
           style="fill:#ffffff;fill-opacity:1;fill-rule:nonzero;stroke:none"
           d="m 4140.94,2058.96 c 14.13,40.44 28.63,83.94 43.16,127.54 37.92,113.72 79.1,151.54 136.51,151.54 44.51,0 98.76,-22.74 168.8,-50.5 4.64,-19.13 6.53,-37.42 5.36,-54.74 -62.98,30.85 -122.85,50.2 -169.89,50.2 -56.28,0 -94.22,-27.69 -97.22,-96.5 -1.66,-38.3 -17.99,-80.7 -36.15,-123.34 -16.8,-1.53 -33.66,-2.93 -50.57,-4.2" />
        <path
           inkscape:connector-curvature="0"
           id="path296"
           style="fill:#8d9470;fill-opacity:1;fill-rule:nonzero;stroke:none"
           d="m 4140.94,2058.96 c 14.13,40.44 28.63,83.94 43.16,127.54 37.92,113.72 79.1,151.54 136.51,151.54 44.51,0 98.76,-22.74 168.8,-50.5 4.64,-19.13 6.53,-37.42 5.36,-54.74 -62.98,30.85 -122.85,50.2 -169.89,50.2 -56.28,0 -94.22,-27.69 -97.22,-96.5 -1.66,-38.3 -17.99,-80.7 -36.15,-123.34 -16.8,-1.53 -33.66,-2.93 -50.57,-4.2" />
        <path
           inkscape:connector-curvature="0"
           id="path298"
           style="fill:#ffffff;fill-opacity:1;fill-rule:nonzero;stroke:none"
           d="m 4191.51,2063.16 c 18.16,42.64 34.49,85.04 36.15,123.34 3,68.81 40.94,96.5 97.22,96.5 47.04,0 106.91,-19.35 169.89,-50.2 -5.84,-86.74 -88.46,-148.98 -287.45,-168.16 -5.23,-0.5 -10.56,-1 -15.81,-1.48" />
        <path
           inkscape:connector-curvature="0"
           id="path300"
           style="fill:#4b5832;fill-opacity:1;fill-rule:nonzero;stroke:none"
           d="m 4191.51,2063.16 c 18.16,42.64 34.49,85.04 36.15,123.34 3,68.81 40.94,96.5 97.22,96.5 47.04,0 106.91,-19.35 169.89,-50.2 -5.84,-86.74 -88.46,-148.98 -287.45,-168.16 -5.23,-0.5 -10.56,-1 -15.81,-1.48" />
        <path
           inkscape:connector-curvature="0"
           id="path302"
           style="fill:#ffffff;fill-opacity:1;fill-rule:nonzero;stroke:none"
           d="m 3741.15,2050.52 c -45.18,1.21 -90.36,3.07 -135.38,5.52 -53.58,109.05 -125.52,168.99 -210.87,168.99 -56.54,0 -118.96,-26.28 -185.86,-82 -17.81,-14.85 -35.8,-29.75 -53.73,-44.72 -23.13,3.01 -46.16,6.13 -68.93,9.32 0.27,0.19 0.53,0.38 0.8,0.57 59.28,41.5 114.55,107.27 143.77,144.99 37.67,-0.47 74.93,-0.71 111.78,-0.71 98.16,0 192.8,1.74 280.45,5.77 28.23,-32.2 69.19,-111.74 117.97,-207.73" />
        <path
           inkscape:connector-curvature="0"
           id="path304"
           style="fill:#8d9470;fill-opacity:1;fill-rule:nonzero;stroke:none"
           d="m 3741.15,2050.52 c -45.18,1.21 -90.36,3.07 -135.38,5.52 -53.58,109.05 -125.52,168.99 -210.87,168.99 -56.54,0 -118.96,-26.28 -185.86,-82 -17.81,-14.85 -35.8,-29.75 -53.73,-44.72 -23.13,3.01 -46.16,6.13 -68.93,9.32 0.27,0.19 0.53,0.38 0.8,0.57 59.28,41.5 114.55,107.27 143.77,144.99 37.67,-0.47 74.93,-0.71 111.78,-0.71 98.16,0 192.8,1.74 280.45,5.77 28.23,-32.2 69.19,-111.74 117.97,-207.73" />
        <path
           inkscape:connector-curvature="0"
           id="path306"
           style="fill:#ffffff;fill-opacity:1;fill-rule:nonzero;stroke:none"
           d="m 3605.77,2056.04 c -153.62,8.32 -305.42,23.39 -450.46,42.27 17.93,14.97 35.92,29.87 53.73,44.72 66.9,55.72 129.32,82 185.86,82 85.35,0 157.29,-59.94 210.87,-168.99" />
        <path
           inkscape:connector-curvature="0"
           id="path308"
           style="fill:#4b5832;fill-opacity:1;fill-rule:nonzero;stroke:none"
           d="m 3605.77,2056.04 c -153.62,8.32 -305.42,23.39 -450.46,42.27 17.93,14.97 35.92,29.87 53.73,44.72 66.9,55.72 129.32,82 185.86,82 85.35,0 157.29,-59.94 210.87,-168.99" />
        <path
           inkscape:connector-curvature="0"
           id="path310"
           style="fill:#ffffff;fill-opacity:1;fill-rule:nonzero;stroke:none"
           d="m 2662.07,2179.52 c -21.17,4.18 -41.85,8.35 -62.18,12.53 -10.1,32.12 -31.34,52.44 -69.47,52.44 -21.17,0 -47.55,-6.27 -80.14,-20.26 -32.65,7.34 -63.52,14.49 -92.62,21.39 23.08,17.87 41.65,32.74 53.47,42.33 77.99,-5.12 162.04,-10.2 249.49,-14.86 0.09,-14.47 0.4,-45.84 1.45,-93.57" />
        <path
           inkscape:connector-curvature="0"
           id="path312"
           style="fill:#8d9470;fill-opacity:1;fill-rule:nonzero;stroke:none"
           d="m 2662.07,2179.52 c -21.17,4.18 -41.85,8.35 -62.18,12.53 -10.1,32.12 -31.34,52.44 -69.47,52.44 -21.17,0 -47.55,-6.27 -80.14,-20.26 -32.65,7.34 -63.52,14.49 -92.62,21.39 23.08,17.87 41.65,32.74 53.47,42.33 77.99,-5.12 162.04,-10.2 249.49,-14.86 0.09,-14.47 0.4,-45.84 1.45,-93.57" />
        <path
           inkscape:connector-curvature="0"
           id="path314"
           style="fill:#ffffff;fill-opacity:1;fill-rule:nonzero;stroke:none"
           d="m 2599.89,2192.05 c -52.95,10.88 -103.04,21.72 -149.61,32.18 32.59,13.99 58.97,20.26 80.14,20.26 38.13,0 59.37,-20.32 69.47,-52.44" />
        <path
           inkscape:connector-curvature="0"
           id="path316"
           style="fill:#4b5832;fill-opacity:1;fill-rule:nonzero;stroke:none"
           d="m 2599.89,2192.05 c -52.95,10.88 -103.04,21.72 -149.61,32.18 32.59,13.99 58.97,20.26 80.14,20.26 38.13,0 59.37,-20.32 69.47,-52.44" />
        <path
           inkscape:connector-curvature="0"
           id="path318"
           style="fill:#456e2a;fill-opacity:1;fill-rule:nonzero;stroke:none"
           d="m 3934.5,2049.55 c -17.46,95.07 -63.78,197.97 -63.78,197.97 l 200.25,34.83 c 0,0 0,0 -26.1,-148.05 -5.11,-28.86 -12.53,-56.73 -21.11,-82.13 -29.62,-1.22 -59.46,-2.09 -89.26,-2.62" />
        <path
           inkscape:connector-curvature="0"
           id="path320"
           style="fill:#456e2a;fill-opacity:1;fill-rule:nonzero;stroke:none"
           d="m 2186.52,2288.33 c -4.64,1.22 -9.21,2.43 -13.59,3.59 l 17.58,-0.93 c 0,0 -1.37,-0.91 -3.99,-2.66" />
        <path
           inkscape:connector-curvature="0"
           id="path322"
           style="fill:#456e2a;fill-opacity:1;fill-rule:nonzero;stroke:none"
           d="m 2945.31,2128.83 c -51.84,8.29 -102.36,16.94 -151.23,25.75 0.08,59.62 -11.64,110.31 -11.64,110.31 l 278.64,-8.73 -115.77,-127.33" />
        <path
           inkscape:connector-curvature="0"
           id="path324"
           style="fill:#456e2a;fill-opacity:1;fill-rule:nonzero;stroke:none"
           d="m 4297.66,2510.79 c -63.45,0.01 -174.49,111.04 -174.49,111.04 0,0 -111.74,111.74 -206.41,206.41 -41.28,46.6 -86.04,91.56 -131.32,133.73 -6.65,11.5 -12.19,29.17 -14.72,50.96 190.88,-138.02 415.04,-314.66 562.89,-478.37 -7.47,-16.97 -20.25,-23.78 -35.95,-23.77" />
        <path
           inkscape:connector-curvature="0"
           id="path326"
           style="fill:#456e2a;fill-opacity:1;fill-rule:nonzero;stroke:none"
           d="m 4374.82,2486.8 c -7.13,3.07 -12.31,8.93 -14.85,17.75 5.05,-5.93 10.02,-11.87 14.85,-17.75" />
        <path
           inkscape:connector-curvature="0"
           id="path328"
           style="fill:#456e2a;fill-opacity:1;fill-rule:nonzero;stroke:none"
           d="m 3431.33,3244.47 c -0.7,0.18 -1.42,0.38 -2.14,0.58 -14.59,9.92 -22.78,15.24 -22.78,15.24 0,0 8.83,-5.52 24.92,-15.82" />
        <path
           inkscape:connector-curvature="0"
           id="path330"
           style="fill:#456e2a;fill-opacity:1;fill-rule:nonzero;stroke:none"
           d="m 2233.98,2290.99 c 0,0 -3.55,3.11 -7.05,9.82 35.78,-2.65 73.98,-5.39 114.16,-8.15 -67.49,-1.11 -107.11,-1.67 -107.11,-1.67" />
        <path
           inkscape:connector-curvature="0"
           id="path332"
           style="fill:#2a3a1a;fill-opacity:1;fill-rule:nonzero;stroke:none"
           d="m 3230.95,2253.19 c -189.74,2.33 -387.62,10.18 -570.33,19.9 -0.01,1.23 -0.02,2.34 -0.02,3.33 176.33,-9.48 373.84,-16.74 564.99,-16.75 3.44,0 6.92,0.01 10.36,0.02 -1.57,-2.06 -3.24,-4.23 -5,-6.5 m 392.23,5.06 c -5.92,6.75 -11.29,11.42 -16.05,13.72 301.86,22.44 522.76,79.19 507.31,198.93 -11.5,89.3 -60.9,182.9 -128.65,273.14 63.97,-60.65 144.5,-169.7 154.84,-339.83 5.49,-90.81 -214.23,-132.04 -517.45,-145.96 m -1212.05,29.7 c -23.94,1.57 -47.31,3.14 -70.04,4.71 14.96,0.24 31.31,0.52 48.88,0.82 8.46,-0.61 17.01,-1.22 25.71,-1.83 -1.38,-1.13 -2.89,-2.36 -4.55,-3.7" />
        <path
           inkscape:connector-curvature="0"
           id="path334"
           style="fill:#b7c7b6;fill-opacity:1;fill-rule:nonzero;stroke:none"
           d="m 3342.73,2252.48 c -36.85,0 -74.11,0.24 -111.78,0.71 1.76,2.27 3.43,4.44 5,6.5 129.71,0.17 256.3,3.74 371.18,12.28 4.76,-2.3 10.13,-6.97 16.05,-13.72 -87.65,-4.03 -182.29,-5.77 -280.45,-5.77" />
        <path
           inkscape:connector-curvature="0"
           id="path336"
           style="fill:#8d9470;fill-opacity:1;fill-rule:nonzero;stroke:none"
           d="m 3342.73,2252.48 c -36.85,0 -74.11,0.24 -111.78,0.71 1.76,2.27 3.43,4.44 5,6.5 129.71,0.17 256.3,3.74 371.18,12.28 4.76,-2.3 10.13,-6.97 16.05,-13.72 -87.65,-4.03 -182.29,-5.77 -280.45,-5.77" />
        <path
           inkscape:connector-curvature="0"
           id="path338"
           style="fill:#b7c7b6;fill-opacity:1;fill-rule:nonzero;stroke:none"
           d="m 2660.62,2273.09 c -87.45,4.66 -171.5,9.74 -249.49,14.86 1.66,1.34 3.17,2.57 4.55,3.7 74.12,-5.22 156.87,-10.5 244.92,-15.23 0,-0.99 0.01,-2.1 0.02,-3.33" />
        <path
           inkscape:connector-curvature="0"
           id="path340"
           style="fill:#8d9470;fill-opacity:1;fill-rule:nonzero;stroke:none"
           d="m 2660.62,2273.09 c -87.45,4.66 -171.5,9.74 -249.49,14.86 1.66,1.34 3.17,2.57 4.55,3.7 74.12,-5.22 156.87,-10.5 244.92,-15.23 0,-0.99 0.01,-2.1 0.02,-3.33" />
        <path
           inkscape:connector-curvature="0"
           id="path342"
           style="fill:#2a3a1a;fill-opacity:1;fill-rule:nonzero;stroke:none"
           d="m 2226.93,2300.81 c -44.19,3.27 -84.69,6.4 -120.8,9.28 -4.03,1.12 -7.73,2.16 -11.08,3.11 l 34.44,-4.75 c 0,0 -2.71,2.39 -7.71,6.78 25.65,-2.34 60.47,-5.43 102.69,-8.93 0.78,-2.05 1.62,-3.87 2.46,-5.49" />
        <path
           inkscape:connector-curvature="0"
           id="path344"
           style="fill:#375523;fill-opacity:1;fill-rule:nonzero;stroke:none"
           d="m 2129.49,2308.45 -34.44,4.75 c -15.41,4.36 -23.52,6.77 -23.52,6.77 0,0 17.86,-1.78 50.25,-4.74 5,-4.39 7.71,-6.78 7.71,-6.78" />
        <path
           inkscape:connector-curvature="0"
           id="path346"
           style="fill:#375523;fill-opacity:1;fill-rule:nonzero;stroke:none"
           d="m 2341.09,2292.66 c -40.18,2.76 -78.38,5.5 -114.16,8.15 -0.84,1.62 -1.68,3.44 -2.46,5.49 46.76,-3.89 102.72,-8.3 165.5,-12.82 -17.57,-0.3 -33.92,-0.58 -48.88,-0.82" />
        <path
           inkscape:connector-curvature="0"
           id="path348"
           style="fill:#212818;fill-opacity:1;fill-rule:nonzero;stroke:none"
           d="m 3603.17,3128.61 c -0.69,0.43 -1.69,1.04 -2.92,1.8 1.34,-0.83 2.28,-1.41 2.92,-1.8 z m -2.92,1.8 c -1.96,1.23 -4.47,2.78 -7.1,4.41 3.05,-1.9 5.4,-3.35 7.1,-4.41 z M 6039.17,408.84 C 5740.6,279.789 5295.72,188.602 5007.65,227.379 c -460.3,61.93 -611.26,305.609 -611.26,305.609 64.76,27.782 -172.61,110.371 -143.26,171.953 248.32,-28.679 334.29,191.02 334.29,191.02 0,0 238.65,-256.762 672.4,-150.52 396.69,97.2 698.13,372.799 566.48,619.609 -61.48,115.34 -97.36,141.62 -97.36,141.62 0,0 327.45,292.09 371.74,716.94 0,0 274.4,-265.54 398.33,-575.3 150.34,-375.86 77.66,-1007.15 -459.84,-1239.47 z m 43.82,1867.88 c 44.24,1141.83 -1659.35,1797.6 -1659.35,1797.6 l -13.17,-33.42 C 4715.18,3927.72 5639.14,3490.67 5976.75,2604.22 6225.76,1950.53 5603.33,1222.6 4591.19,948.5 c -14.93,-4.039 -44.67,57.94 -58.35,76.14 -22.85,30.44 -53.47,6.48 -63.46,30.44 -25.37,60.9 -68.39,63.49 -93.89,88.82 -35.23,35 -52.75,52.55 -88.82,83.77 -225.89,195.4 -162.5,354.41 -276.64,347.69 -43.14,-2.55 -71.06,0 -131.97,-40.6 -40.03,-26.67 -85.36,-51.11 -98.96,-86.31 -63.63,-164.6 411.19,-661.618 347.76,-667.571 -715.79,-67.129 -1938.44,0.019 -2487.21,88.531 -410.97,66.281 -1431.353,240.26 -1248.045,1115.22 194.727,929.41 1067.235,1086.85 1903.035,1132.96 326.08,17.99 681.54,53.13 1168.36,26.56 0,0 217.1,-147.02 360.34,-280.73 129.95,-121.3 337.11,-469.88 82.23,-498.16 -397.43,-44.12 -1062.82,-70.7 -1787.95,-35.41 -300.22,14.61 -477.97,123.91 -477.97,123.91 292.08,-345.19 2363.27,-256.69 2460.65,-221.27 534.01,194.16 -522.22,911.66 -522.22,911.66 -1231.13,762.96 -1282.48,1007.07 -1522.42,1487.03 -278.48,557 -68.34,1704.95 1150.64,2080.03 613.21,188.68 2034.66,74.77 2204,-1203.77 77.09,-582 -515.18,-1019.77 -911.71,-1212.61 0,0 -51.7,-126.72 0.41,-94.81 790.16,483.57 1203.39,971.07 849.33,1741.13 -389.58,847.35 -1238.13,1022.54 -2106.62,867.44 -609.4,-108.86 -1594.22,-871.75 -1318.83,-2035.8 194.74,-823.17 1035.6,-1336.54 1398.5,-1557.84 0,0 -1256.88,44.27 -2071.18,-212.41 C 985.598,2919.13 452.773,2653.29 320.805,1993.48 208.785,1433.34 488.977,993.289 1613.09,807.441 c 1406.94,-232.613 2549.17,-79.66 2549.17,-79.66 0,0 53.08,-17.711 26.56,-44.269 -26.53,-26.551 44.25,-106.231 115.04,-106.231 70.81,0 61.97,-61.922 88.52,-88.492 612.44,-612.43 1746.48,-131.141 1903.02,17.691 893.99,849.74 -212.41,1770.24 -212.41,1770.24 z m -2479.82,851.89 c 1.4,-0.87 1.22,-0.75 0,0 z m -23.32,14.45 c 1.76,-1.09 4.64,-2.87 7.83,-4.85 -2.29,1.42 -4.95,3.06 -7.83,4.85" />
        <path
           inkscape:connector-curvature="0"
           id="path350"
           style="fill:#c1cab6;fill-opacity:1;fill-rule:nonzero;stroke:none"
           d="m 4657.95,887.07 c 0,0 708.1,212.42 1017.88,584.19 0,0 186.35,-247.33 -3,-442.6 C 5394.24,741.371 4837.07,715.238 4657.95,887.07" />
        <path
           inkscape:connector-curvature="0"
           id="path352"
           style="fill:#1f2a1a;fill-opacity:1;fill-rule:nonzero;stroke:none"
           d="m 4428.77,976.422 c -61.96,-97.352 -151.47,-168.981 -195.7,-186.703 -44.25,-17.707 53.12,-35.387 53.12,-35.387 0,0 93.79,-30.16 194.72,70.789 99.3,99.32 -9.91,217.679 -52.14,151.301" />
        <path
           inkscape:connector-curvature="0"
           id="path354"
           style="fill:#709d2c;fill-opacity:1;fill-rule:nonzero;stroke:none"
           d="m 4233.07,949.051 c 104.09,67.059 78.95,99.159 119.56,118.709 39.28,18.88 75.05,-34.05 73.6,-45.66 -8.85,-70.819 -106.59,-170.041 -177.67,-200.479 -57.46,-24.609 -170,27.891 -15.49,127.43" />
        <path
           inkscape:connector-curvature="0"
           id="path356"
           style="fill:#709d2c;fill-opacity:1;fill-rule:nonzero;stroke:none"
           d="m 4118.01,1011.02 c 145.79,89.73 135.07,197.13 199.08,99.89 13.3,-20.19 15.24,-53.28 -38.04,-101.5 -53.3,-48.219 -119.31,-106.621 -144.68,-96.449 -25.37,10.18 -95.52,49.328 -16.36,98.059" />
        <path
           inkscape:connector-curvature="0"
           id="path358"
           style="fill:#709d2c;fill-opacity:1;fill-rule:nonzero;stroke:none"
           d="m 4045.55,1100.75 c 27.1,16.67 119.33,88.83 134.53,109.13 30.31,40.48 97.63,-34.48 63.42,-73.59 -17.75,-20.31 -106.58,-101.52 -144.64,-116.73 -49.04,-19.63 -119.28,40.59 -53.31,81.19" />
        <path
           inkscape:connector-curvature="0"
           id="path360"
           style="fill:#709d2c;fill-opacity:1;fill-rule:nonzero;stroke:none"
           d="m 3974.51,1133.77 c 5.82,-16 35.49,-38.09 78.66,-10.16 43.15,27.92 109.33,81.1 126.91,126.88 12.68,33.03 -33.02,71.08 -71.08,27.91 -31.21,-35.39 -106.58,-86.24 -124.37,-96.4 -17.78,-10.16 -20.26,-20.31 -10.12,-48.23" />
        <path
           inkscape:connector-curvature="0"
           id="path362"
           style="fill:#709d2c;fill-opacity:1;fill-rule:nonzero;stroke:none"
           d="m 3956.71,1194.68 c 59.61,12.58 165.59,102.99 170.05,129.44 2.54,15.2 -25.38,70.99 -71.04,35.49 -45.69,-35.49 -83.73,-61.03 -126.9,-86.27 -30.44,-17.79 -20.29,-88.82 27.89,-78.66" />
        <path
           inkscape:connector-curvature="0"
           id="path364"
           style="fill:#709d2c;fill-opacity:1;fill-rule:nonzero;stroke:none"
           d="m 3890.74,1293.65 c 10.27,-7.45 45.66,-5.07 114.21,40.6 68.51,45.67 71.06,58.35 55.83,88.82 -15.23,30.48 -27.92,25.38 -60.9,0 -32.99,-25.37 -93.94,-63.46 -116.75,-68.51 -22.82,-5.06 -20.3,-40.62 7.61,-60.91" />
        <path
           inkscape:connector-curvature="0"
           id="path366"
           style="fill:#709d2c;fill-opacity:1;fill-rule:nonzero;stroke:none"
           d="m 3857.75,1372.31 c 25.88,-14.55 170.04,58.37 170.04,106.59 0,48.23 -27.96,60.89 -63.45,38.08 -35.52,-22.83 -88.84,-58.4 -109.12,-68.53 -20.31,-10.14 -38.07,-53.34 2.53,-76.14" />
        <path
           inkscape:connector-curvature="0"
           id="path368"
           style="fill:#709d2c;fill-opacity:1;fill-rule:nonzero;stroke:none"
           d="m 4286.19,754.332 c 0,0 93.79,-30.16 194.72,70.789 99.3,99.32 -9.91,217.679 -52.14,151.301 -61.96,-97.352 -151.47,-168.981 -195.7,-186.703 -44.25,-17.707 53.12,-35.387 53.12,-35.387" />
        <path
           inkscape:connector-curvature="0"
           id="path370"
           style="fill:#212818;fill-opacity:1;fill-rule:nonzero;stroke:none"
           d="m 3719.68,4976.38 c -17.63,0.67 -34.96,-0.75 -52.11,-3.1 17,1.84 34.23,3.1 52.11,3.1 z m 840.87,858.55 c -473.35,425.98 -1239.28,292.66 -1504.7,79.66 -716.94,-575.33 242.2,-1198.27 242.2,-1198.27 0,0 163.36,228.76 369.52,256.96 -209.64,-22.66 -346.17,-173.94 -346.17,-173.94 0,0 -292.09,194.73 -398.32,389.46 -129.99,238.3 -61.96,486.81 141.62,637.29 149.64,110.61 681.75,422.05 1354.24,8.84 734.67,-451.41 -389.44,-991.32 -389.44,-991.32 0,0 -132.77,132.77 -309.82,132.77 265.32,-10.22 342.42,-231.42 342.42,-231.42 0,0 375.65,265.64 471.92,355.33 389.46,362.89 115.06,654.99 26.53,734.64" />
        <path
           inkscape:connector-curvature="0"
           id="path372"
           style="fill:#212818;fill-opacity:1;fill-rule:nonzero;stroke:none"
           d="m 3957.06,3398.3 c -62.79,-54.97 -451.55,-114.04 -573.71,108.74 -47.59,86.75 -548.99,736.04 -410.02,874.97 35.41,35.41 191.49,27.35 353.36,334.31 165.49,313.77 606.8,300.67 735.41,28.64 154.36,-326.49 575.4,-260 362.97,-649.45 -212.45,-389.45 -397.21,-635.25 -468.01,-697.21 z m 382.23,1135.5 c -221.25,115.05 -265.46,441.57 -619.61,442.58 -463.46,1.29 -445.98,-488.11 -716.94,-513.39 -49.02,-4.57 -100.95,-58.86 -106.2,-106.21 -26.56,-238.99 494.79,-935.02 516.99,-960.91 88.89,-103.75 180.44,-110.88 445.68,-96.14 159.33,8.85 409.25,437.44 559.73,711.86 150.49,274.39 141.61,407.16 -79.65,522.21" />
        <path
           inkscape:connector-curvature="0"
           id="path374"
           style="fill:#212818;fill-opacity:1;fill-rule:nonzero;stroke:none"
           d="m 4188.13,3969.04 c -90.09,-129.3 -265.19,-504.23 -367,-392.93 -59.72,65.3 -134.33,106.99 -227,51.39 -88.52,-53.08 -99.29,-87.59 -267.44,181.5 -88.5,141.6 -207.76,342.1 -179.11,447.17 11.87,43.56 179.93,84.7 237.48,123.02 106.23,70.82 76.55,279.48 303.74,279.48 112,0 198.44,-120.7 240.34,-235.96 35.4,-97.35 238.26,-87.09 297.87,-103.94 129.5,-36.74 45.34,-228.87 -38.88,-349.73 z m -285.21,554.19 c -110.11,245.56 -322.06,242.92 -428.22,30.58 -109.05,-218.11 -338.24,-199.89 -374.59,-294.42 -44.26,-115.03 337.42,-800.65 398.29,-743.47 128.44,120.65 247.88,88.53 300.97,35.4 53.08,-53.12 97.36,-88.51 230.13,132.77 121.23,202.1 312.97,415.77 309.79,566.45 -3.8,180.93 -322.75,19.26 -436.37,272.69" />
        <path
           inkscape:connector-curvature="0"
           id="path376"
           style="fill:#ed1c24;fill-opacity:1;fill-rule:nonzero;stroke:none"
           d="m 3659.12,4095.74 c 0,0 120.84,34.49 73.96,-34.55 -20.44,-30.09 -63.14,-111.88 4.93,-147.93 41.91,-22.17 101.12,-22.17 81.38,-165.17 -9.52,-68.97 -91.24,-130.68 41.89,-429 0,0 -66.54,54.24 -147.92,204.65 -7.87,14.57 -17.28,7.42 -24.65,-4.94 -7.39,-12.34 -115.87,-172.58 -125.73,-177.52 0,0 32.06,209.6 128.2,303.26 96.15,93.69 -9.86,231.75 -44.37,236.69 -34.52,4.93 -107.39,32.03 -39.44,135.62 51.75,78.89 51.75,78.89 51.75,78.89" />
        <path
           inkscape:connector-curvature="0"
           id="path378"
           style="fill:#ee2a22;fill-opacity:1;fill-rule:nonzero;stroke:none"
           d="m 3668.99,4093.27 c 0,0 -143,-145.45 -34.53,-199.72 28.53,-14.26 108.49,2.48 106.04,-170.11 -0.76,-53.5 -73.05,-112.16 -110.96,-177.52 -35.31,-60.89 -10.85,-78.76 -46.84,-138.07 0,0 61.49,97.15 110.94,145.47 16.73,16.37 137.73,-198.29 143.01,-189.85 0,0 -61.53,136.1 -64.12,224.38 -3.3,114.37 96.19,209.56 -14.79,288.44 -192.41,136.82 -32.03,199.74 -41.9,214.49 -9.87,14.83 -24.69,12.34 -46.85,2.49" />
        <path
           inkscape:connector-curvature="0"
           id="path380"
           style="fill:#f36246;fill-opacity:1;fill-rule:nonzero;stroke:none"
           d="m 3784.91,3806.66 c 3.87,23.23 -21.84,87.4 -21.84,87.4 0,0 71.84,-24.47 30.59,-131.11 -52.41,-135.45 -21.33,-263.66 -13.11,-288.38 0,0 -26.21,131.07 -65.53,100.48 -36,-28.01 -78.65,-74.26 -78.65,-74.26 0,0 16.06,68.46 56.79,83 61.18,21.85 74.28,118.01 91.75,222.87" />
      </g>
    </g>
  </g>
</svg>
