<?xml version="1.0"?>
<svg xmlns:rdf="http://www.w3.org/1999/02/22-rdf-syntax-ns#" xmlns="http://www.w3.org/2000/svg" xmlns:cc="http://web.resource.org/cc/" xmlns:dc="http://purl.org/dc/elements/1.1/" xmlns:svg="http://www.w3.org/2000/svg" id="svg2" viewBox="0 0 272.57 204.6" version="1.0">
  <defs id="defs4">
    <filter id="filter5468">
      <feGaussianBlur id="feGaussianBlur5470" stdDeviation="0.94954182"/>
    </filter>
    <clipPath id="clipPath5482" clipPathUnits="userSpaceOnUse">
      <path id="path5484" fill-rule="evenodd" fill="#008000" d="m243.31 53.818c-1.72-0.219-3.44-0.19-5.13 0.094-6.75 1.137-12.9 5.245-18.9 9.531l-100.35 68.877-0.12 0.09c-9.21 6.9-13.82 11-16.69 15.85-2.869 4.84-3.576 9.62-5.751 17.56-0.059 0.19-0.1 0.39-0.125 0.59-0.642 7.19 0.489 12.14 3.375 15.6 2.891 3.46 6.591 5.02 10.621 7.43 0.16 0.1 0.33 0.18 0.5 0.25 8.86 3.56 15.06 4.86 21.38 3.13 6.31-1.74 12.04-5.92 21.75-12.31 0.02-0.01 0.04-0.02 0.06-0.04l95.97-65.43c1.61-1.1 2.03-3.3 0.94-4.91-1.1-1.61-3.29-2.03-4.91-0.94l-96 65.47c-9.77 6.44-15.25 10.13-19.69 11.35-4.36 1.2-8.39 0.51-16.53-2.72-4.26-2.55-7.24-4.05-8.68-5.78-1.45-1.74-2.26-4.16-1.75-10.22 2.14-7.89 2.92-12.04 4.93-15.44 2.05-3.46 5.83-7.03 14.85-13.78l100.28-68.814 0.06-0.063c5.82-4.155 11.44-7.549 15.97-8.312s8.11 0.208 12.56 6.5c0.05 0.075 0.1 0.148 0.16 0.219l16 19.375v0.031c2.49 3.81 3.15 6.635 2.81 9.25-0.34 2.621-1.82 5.374-4.72 8.564-5.77 6.36-16.87 13.84-30.59 24.06-0.05 0.04-0.08 0.06-0.13 0.09-42.03 28.42-82.67 57.1-126.28 85-0.04 0.02-0.08 0.05-0.12 0.07-9.03 6.27-14.813 9.95-20.472 11.28-5.66 1.32-11.741 0.57-22.156-2.88-11.991-4.26-16.731-6.95-18.407-9.78-1.675-2.83-1.374-7.92-0.843-18.19 0.001-0.06 0.001-0.12 0-0.18-0.039-13.9 8.732-22.98 21.125-31.53l142.25-97.942c1.6-1.113 2-3.317 0.89-4.922-1.12-1.605-3.32-2.003-4.92-0.89l-142.22 97.934c-13.043 9-24.153 20.36-24.191 37.19v0.19c-0.525 9.97-1.49 16.3 1.844 21.94 3.358 5.67 9.916 8.52 22.156 12.87 0.031 0.01 0.062 0.02 0.094 0.03 10.925 3.61 18.637 4.75 26 3.03 7.362-1.72 13.777-6.02 22.877-12.34 43.82-28.05 84.46-56.74 126.47-85.13l0.12-0.09c13.62-10.15 24.85-17.46 31.75-25.06 3.45-3.8 5.9-7.84 6.5-12.408 0.6-4.566-0.82-9.302-3.94-14.062-0.06-0.109-0.14-0.213-0.21-0.313l-16.1-19.469-0.15-0.218-0.04 0.031c-4.1-5.683-9.11-8.663-14.18-9.313z"/>
    </clipPath>
    <clipPath id="clipPath5486" clipPathUnits="userSpaceOnUse">
      <path id="path5488" fill-rule="evenodd" fill="#008000" d="m243.31 53.818c-1.72-0.219-3.44-0.19-5.13 0.094-6.75 1.137-12.9 5.245-18.9 9.531l-100.35 68.877-0.12 0.09c-9.21 6.9-13.82 11-16.69 15.85-2.869 4.84-3.576 9.62-5.751 17.56-0.059 0.19-0.1 0.39-0.125 0.59-0.642 7.19 0.489 12.14 3.375 15.6 2.891 3.46 6.591 5.02 10.621 7.43 0.16 0.1 0.33 0.18 0.5 0.25 8.86 3.56 15.06 4.86 21.38 3.13 6.31-1.74 12.04-5.92 21.75-12.31 0.02-0.01 0.04-0.02 0.06-0.04l95.97-65.43c1.61-1.1 2.03-3.3 0.94-4.91-1.1-1.61-3.29-2.03-4.91-0.94l-96 65.47c-9.77 6.44-15.25 10.13-19.69 11.35-4.36 1.2-8.39 0.51-16.53-2.72-4.26-2.55-7.24-4.05-8.68-5.78-1.45-1.74-2.26-4.16-1.75-10.22 2.14-7.89 2.92-12.04 4.93-15.44 2.05-3.46 5.83-7.03 14.85-13.78l100.28-68.814 0.06-0.063c5.82-4.155 11.44-7.549 15.97-8.312s8.11 0.208 12.56 6.5c0.05 0.075 0.1 0.148 0.16 0.219l16 19.375v0.031c2.49 3.81 3.15 6.635 2.81 9.25-0.34 2.621-1.82 5.374-4.72 8.564-5.77 6.36-16.87 13.84-30.59 24.06-0.05 0.04-0.08 0.06-0.13 0.09-42.03 28.42-82.67 57.1-126.28 85-0.04 0.02-0.08 0.05-0.12 0.07-9.03 6.27-14.813 9.95-20.472 11.28-5.66 1.32-11.741 0.57-22.156-2.88-11.991-4.26-16.731-6.95-18.407-9.78-1.675-2.83-1.374-7.92-0.843-18.19 0.001-0.06 0.001-0.12 0-0.18-0.039-13.9 8.732-22.98 21.125-31.53l142.25-97.942c1.6-1.113 2-3.317 0.89-4.922-1.12-1.605-3.32-2.003-4.92-0.89l-142.22 97.934c-13.043 9-24.153 20.36-24.191 37.19v0.19c-0.525 9.97-1.49 16.3 1.844 21.94 3.358 5.67 9.916 8.52 22.156 12.87 0.031 0.01 0.062 0.02 0.094 0.03 10.925 3.61 18.637 4.75 26 3.03 7.362-1.72 13.777-6.02 22.877-12.34 43.82-28.05 84.46-56.74 126.47-85.13l0.12-0.09c13.62-10.15 24.85-17.46 31.75-25.06 3.45-3.8 5.9-7.84 6.5-12.408 0.6-4.566-0.82-9.302-3.94-14.062-0.06-0.109-0.14-0.213-0.21-0.313l-16.1-19.469-0.15-0.218-0.04 0.031c-4.1-5.683-9.11-8.663-14.18-9.313z"/>
    </clipPath>
    <filter id="filter6487">
      <feGaussianBlur id="feGaussianBlur6489" stdDeviation="4.2729382"/>
    </filter>
  </defs>
  <g id="layer1" transform="translate(-21.848 -35.377)" fill-rule="evenodd">
    <path id="path5472" filter="url(#filter6487)" transform="matrix(.84375 0 0 .84253 2.574 4.3914)" fill="#1a1a1a" d="m247.37 57.879c-1.72-0.22-3.44-0.191-5.13 0.094-6.75 1.136-12.9 5.244-18.9 9.531l-100.35 68.876-0.12 0.09c-9.21 6.9-13.82 11-16.69 15.85-2.87 4.84-3.58 9.62-5.75 17.56-0.06 0.19-0.1 0.39-0.13 0.59-0.637 7.19 0.49 12.14 3.38 15.6s6.59 5.02 10.62 7.43c0.16 0.1 0.33 0.18 0.5 0.25 8.86 3.56 15.06 4.86 21.38 3.13 6.31-1.74 12.04-5.92 21.75-12.31l0.06-0.03 95.97-65.44c1.61-1.1 2.03-3.3 0.94-4.91-1.1-1.61-3.29-2.03-4.91-0.94l-96 65.47c-9.77 6.44-15.25 10.13-19.69 11.35-4.36 1.2-8.39 0.51-16.53-2.72-4.26-2.55-7.24-4.05-8.68-5.78-1.45-1.74-2.26-4.16-1.75-10.22 2.14-7.89 2.92-12.04 4.93-15.44 2.05-3.46 5.83-7.03 14.85-13.78l100.28-68.814c0.02-0.02 0.04-0.041 0.06-0.062 5.82-4.155 11.44-7.55 15.97-8.313s8.11 0.209 12.56 6.5c0.05 0.075 0.1 0.148 0.16 0.219l16 19.375v0.031c2.49 3.811 3.15 6.635 2.81 9.254-0.34 2.62-1.82 5.37-4.72 8.56-5.77 6.36-16.87 13.84-30.59 24.06-0.05 0.04-0.08 0.06-0.13 0.1-42.03 28.41-82.67 57.09-126.28 85l-0.12 0.06c-9.02 6.27-14.812 9.96-20.472 11.28-5.659 1.32-11.741 0.57-22.156-2.88-11.991-4.26-16.731-6.95-18.406-9.78-1.676-2.83-1.374-7.92-0.844-18.18 0.002-0.07 0.002-0.13 0-0.19-0.038-13.9 8.733-22.98 21.125-31.53l142.25-97.941c1.6-1.113 2-3.317 0.89-4.922-1.12-1.605-3.32-2.004-4.92-0.891l-142.22 97.934c-13.042 9-24.152 20.36-24.19 37.19-0.001 0.07-0.001 0.12 0 0.19-0.525 9.97-1.49 16.3 1.843 21.94 3.359 5.67 9.917 8.52 22.157 12.87l0.093 0.03c10.926 3.61 18.638 4.76 26 3.03 7.367-1.72 13.777-6.02 22.877-12.34 43.82-28.05 84.46-56.74 126.47-85.12 0.04-0.04 0.08-0.07 0.12-0.1 13.62-10.15 24.85-17.46 31.75-25.06 3.45-3.8 5.91-7.84 6.5-12.41 0.6-4.563-0.82-9.299-3.94-14.06-0.06-0.108-0.14-0.212-0.21-0.312l-16.1-19.469-0.15-0.219-0.04 0.031c-4.09-5.683-9.11-8.663-14.18-9.312z"/>
    <path id="path2321" clip-path="url(#clipPath5486)" fill="#008000" transform="matrix(.84375 0 0 .84253 2.574 4.3914)" d="m243.31 53.818c-1.72-0.219-3.44-0.19-5.13 0.094-6.75 1.137-12.9 5.245-18.9 9.531l-100.35 68.877-0.12 0.09c-9.21 6.9-13.82 11-16.69 15.85-2.869 4.84-3.576 9.62-5.751 17.56-0.059 0.19-0.1 0.39-0.125 0.59-0.642 7.19 0.489 12.14 3.375 15.6 2.891 3.46 6.591 5.02 10.621 7.43 0.16 0.1 0.33 0.18 0.5 0.25 8.86 3.56 15.06 4.86 21.38 3.13 6.31-1.74 12.04-5.92 21.75-12.31 0.02-0.01 0.04-0.02 0.06-0.04l95.97-65.43c1.61-1.1 2.03-3.3 0.94-4.91-1.1-1.61-3.29-2.03-4.91-0.94l-96 65.47c-9.77 6.44-15.25 10.13-19.69 11.35-4.36 1.2-8.39 0.51-16.53-2.72-4.26-2.55-7.24-4.05-8.68-5.78-1.45-1.74-2.26-4.16-1.75-10.22 2.14-7.89 2.92-12.04 4.93-15.44 2.05-3.46 5.83-7.03 14.85-13.78l100.28-68.814 0.06-0.063c5.82-4.155 11.44-7.549 15.97-8.312s8.11 0.208 12.56 6.5c0.05 0.075 0.1 0.148 0.16 0.219l16 19.375v0.031c2.49 3.81 3.15 6.635 2.81 9.25-0.34 2.621-1.82 5.374-4.72 8.564-5.77 6.36-16.87 13.84-30.59 24.06-0.05 0.04-0.08 0.06-0.13 0.09-42.03 28.42-82.67 57.1-126.28 85-0.04 0.02-0.08 0.05-0.12 0.07-9.03 6.27-14.813 9.95-20.472 11.28-5.66 1.32-11.741 0.57-22.156-2.88-11.991-4.26-16.731-6.95-18.407-9.78-1.675-2.83-1.374-7.92-0.843-18.19 0.001-0.06 0.001-0.12 0-0.18-0.039-13.9 8.732-22.98 21.125-31.53l142.25-97.942c1.6-1.113 2-3.317 0.89-4.922-1.12-1.605-3.32-2.003-4.92-0.89l-142.22 97.934c-13.043 9-24.153 20.36-24.191 37.19v0.19c-0.525 9.97-1.49 16.3 1.844 21.94 3.358 5.67 9.916 8.52 22.156 12.87 0.031 0.01 0.062 0.02 0.094 0.03 10.925 3.61 18.637 4.75 26 3.03 7.362-1.72 13.777-6.02 22.877-12.34 43.82-28.05 84.46-56.74 126.47-85.13l0.12-0.09c13.62-10.15 24.85-17.46 31.75-25.06 3.45-3.8 5.9-7.84 6.5-12.408 0.6-4.566-0.82-9.302-3.94-14.062-0.06-0.109-0.14-0.213-0.21-0.313l-16.1-19.469-0.15-0.218-0.04 0.031c-4.1-5.683-9.11-8.663-14.18-9.313z"/>
    <path id="path5422" opacity=".54091" d="m239.31 51.818c-1.72-0.219-3.44-0.19-5.13 0.094-6.75 1.137-12.9 5.245-18.9 9.531l-100.35 68.877-0.12 0.09c-9.21 6.9-13.82 11-16.691 15.85-2.868 4.84-3.575 9.62-5.75 17.56-0.059 0.19-0.1 0.39-0.125 0.59-0.642 7.19 0.489 12.14 3.375 15.6 2.887 3.46 6.591 5.02 10.621 7.43 0.16 0.1 0.33 0.18 0.5 0.25 8.86 3.56 15.06 4.86 21.38 3.13 6.31-1.74 12.04-5.92 21.75-12.31 0.02-0.01 0.04-0.02 0.06-0.04l95.97-65.43c1.61-1.1 2.03-3.3 0.94-4.91-1.1-1.61-3.29-2.03-4.91-0.94l-96 65.47c-9.77 6.44-15.25 10.13-19.69 11.35-4.36 1.2-8.39 0.51-16.53-2.72-4.26-2.55-7.24-4.05-8.68-5.78-1.45-1.74-2.264-4.16-1.755-10.22 2.145-7.89 2.925-12.04 4.935-15.44 2.05-3.46 5.83-7.03 14.85-13.78l100.28-68.814 0.06-0.063c5.82-4.155 11.44-7.549 15.97-8.312s8.11 0.208 12.56 6.5c0.05 0.075 0.1 0.148 0.16 0.219l16 19.375v0.031c2.49 3.81 3.15 6.635 2.81 9.25-0.34 2.621-1.82 5.372-4.72 8.564-5.77 6.36-16.87 13.84-30.59 24.06-0.05 0.04-0.08 0.06-0.13 0.09-42.03 28.42-82.67 57.1-126.28 85-0.04 0.02-0.08 0.05-0.12 0.07-9.025 6.27-14.813 9.95-20.472 11.28-5.66 1.32-11.741 0.57-22.156-2.88-11.991-4.26-16.731-6.95-18.407-9.78-1.675-2.83-1.374-7.92-0.843-18.19 0.001-0.06 0.001-0.12 0-0.18-0.039-13.9 8.732-22.98 21.125-31.53l142.25-97.942c1.6-1.113 2-3.317 0.89-4.922-1.12-1.605-3.32-2.003-4.92-0.89l-142.22 97.934c-13.043 9-24.153 20.36-24.191 37.19v0.19c-0.525 9.97-1.49 16.3 1.844 21.94 3.358 5.67 9.916 8.52 22.156 12.87 0.031 0.01 0.062 0.02 0.094 0.03 10.925 3.61 18.637 4.75 26 3.03 7.362-1.72 13.776-6.02 22.877-12.34 43.82-28.05 84.46-56.74 126.47-85.13l0.12-0.09c13.62-10.15 24.85-17.46 31.75-25.06 3.45-3.8 5.9-7.842 6.5-12.408s-0.82-9.302-3.94-14.062c-0.06-0.109-0.14-0.213-0.21-0.313l-16.1-19.469-0.15-0.218-0.04 0.031c-4.1-5.683-9.11-8.663-14.18-9.313z" clip-path="url(#clipPath5482)" transform="matrix(.84375 0 0 .84253 2.574 4.3914)" filter="url(#filter5468)" fill="#ececec"/>
  </g>
  <metadata>
    <rdf:RDF>
      <cc:Work>
        <dc:format>image/svg+xml</dc:format>
        <dc:type rdf:resource="http://purl.org/dc/dcmitype/StillImage"/>
        <cc:license rdf:resource="http://creativecommons.org/licenses/publicdomain/"/>
        <dc:publisher>
          <cc:Agent rdf:about="http://openclipart.org/">
            <dc:title>Openclipart</dc:title>
          </cc:Agent>
        </dc:publisher>
        <dc:title>green paperclip</dc:title>
        <dc:date>2007-02-11T17:03:00</dc:date>
        <dc:description>A remix of the paper clip by valessiobrito. I coloured it green, and tried to make the wire look a bit more cylindrical using the 3d ropes tutorial from inkscape:&#xD;\n&#xD;\nlink - http://www.inkscape.org/screenshots/gallery/inkscape-0.45-3D-rope.png</dc:description>
        <dc:source>http://openclipart.org/detail/3181/green-paperclip-by-ryanlerch</dc:source>
        <dc:creator>
          <cc:Agent>
            <dc:title>ryanlerch</dc:title>
          </cc:Agent>
        </dc:creator>
        <dc:subject>
          <rdf:Bag>
            <rdf:li>clip art</rdf:li>
            <rdf:li>clipart</rdf:li>
            <rdf:li>clippy</rdf:li>
            <rdf:li>green</rdf:li>
            <rdf:li>image</rdf:li>
            <rdf:li>media</rdf:li>
            <rdf:li>office supplies</rdf:li>
            <rdf:li>paperclip</rdf:li>
            <rdf:li>png</rdf:li>
            <rdf:li>public domain</rdf:li>
            <rdf:li>remix</rdf:li>
            <rdf:li>svg</rdf:li>
          </rdf:Bag>
        </dc:subject>
      </cc:Work>
      <cc:License rdf:about="http://creativecommons.org/licenses/publicdomain/">
        <cc:permits rdf:resource="http://creativecommons.org/ns#Reproduction"/>
        <cc:permits rdf:resource="http://creativecommons.org/ns#Distribution"/>
        <cc:permits rdf:resource="http://creativecommons.org/ns#DerivativeWorks"/>
      </cc:License>
    </rdf:RDF>
  </metadata>
</svg>
