<?xml version="1.0" standalone="yes"?>

<svg version="1.1" viewBox="0.0 0.0 484.0 656.0" fill="none" stroke="none" stroke-linecap="square" stroke-miterlimit="10" xmlns="http://www.w3.org/2000/svg" xmlns:xlink="http://www.w3.org/1999/xlink"><path d="M0 0.4292798L144.0 0.4292798L144.0 48.42928L0 48.42928Z" fill-rule="nonzero" fill="#f4cccc" stroke="#660000" stroke-width="2.0" stroke-linejoin="round" stroke-linecap="butt"></path><path d="M19.3125 34.71053L19.3125 21.069904L20.84375 21.069904L20.84375 22.351154Q21.375 21.601154 22.054688 21.226154Q22.734375 20.851154 23.6875 20.851154Q24.953125 20.851154 25.921875 21.499592Q26.890625 22.14803 27.382812 23.33553Q27.875 24.52303 27.875 25.92928Q27.875 27.444904 27.328125 28.655842Q26.78125 29.86678 25.75 30.507404Q24.71875 31.14803 23.578125 31.14803Q22.734375 31.14803 22.070312 30.796467Q21.40625 30.444904 20.984375 29.913654L20.984375 34.71053L19.3125 34.71053ZM20.828125 26.05428Q20.828125 27.96053 21.601562 28.86678Q22.375 29.77303 23.46875 29.77303Q24.578125 29.77303 25.367188 28.83553Q26.15625 27.89803 26.15625 25.913654Q26.15625 24.038654 25.382812 23.101154Q24.609375 22.163654 23.53125 22.163654Q22.46875 22.163654 21.648438 23.163654Q20.828125 24.163654 20.828125 26.05428ZM29.671875 30.92928L29.671875 21.069904L31.171875 21.069904L31.171875 22.569904Q31.75 21.52303 32.234375 21.187092Q32.71875 20.851154 33.3125 20.851154Q34.15625 20.851154 35.03125 21.39803L34.453125 22.944904Q33.84375 22.58553 33.21875 22.58553Q32.671875 22.58553 32.242188 22.913654Q31.8125 23.24178 31.625 23.819904Q31.34375 24.71053 31.34375 25.77303L31.34375 30.92928L29.671875 30.92928ZM35.28125 26.007404Q35.28125 23.27303 36.8125 21.944904Q38.078125 20.851154 39.90625 20.851154Q41.9375 20.851154 43.226562 22.187092Q44.515625 23.52303 44.515625 25.86678Q44.515625 27.77303 43.945312 28.858967Q43.375 29.944904 42.289062 30.546467Q41.203125 31.14803 39.90625 31.14803Q37.84375 31.14803 36.5625 29.819904Q35.28125 28.49178 35.28125 26.007404ZM37.0 26.007404Q37.0 27.89803 37.828125 28.83553Q38.65625 29.77303 39.90625 29.77303Q41.15625 29.77303 41.976562 28.827717Q42.796875 27.882404 42.796875 25.944904Q42.796875 24.11678 41.96875 23.17928Q41.140625 22.24178 39.90625 22.24178Q38.65625 22.24178 37.828125 23.17928Q37.0 24.11678 37.0 26.007404ZM46.28125 19.27303L46.28125 17.33553L47.9375 17.33553L47.9375 19.27303L46.28125 19.27303ZM44.15625 34.757404L44.46875 33.33553Q44.96875 33.46053 45.265625 33.46053Q45.78125 33.46053 46.03125 33.12459Q46.28125 32.788654 46.28125 31.42928L46.28125 21.069904L47.9375 21.069904L47.9375 31.46053Q47.9375 33.288654 47.46875 34.007404Q46.875 34.92928 45.46875 34.92928Q44.796875 34.92928 44.15625 34.757404ZM57.171875 27.757404L58.890625 27.976154Q58.484375 29.476154 57.382812 30.312092Q56.28125 31.14803 54.5625 31.14803Q52.40625 31.14803 51.140625 29.819904Q49.875 28.49178 49.875 26.08553Q49.875 23.601154 51.148438 22.226154Q52.421875 20.851154 54.46875 20.851154Q56.453125 20.851154 57.703125 22.194904Q58.953125 23.538654 58.953125 25.99178Q58.953125 26.132404 58.9375 26.42928L51.59375 26.42928Q51.6875 28.05428 52.515625 28.913654Q53.34375 29.77303 54.578125 29.77303Q55.484375 29.77303 56.132812 29.296467Q56.78125 28.819904 57.171875 27.757404ZM51.6875 25.05428L57.1875 25.05428Q57.078125 23.819904 56.5625 23.194904Q55.765625 22.226154 54.484375 22.226154Q53.34375 22.226154 52.554688 22.999592Q51.765625 23.77303 51.6875 25.05428ZM67.234375 27.319904L68.875 27.538654Q68.609375 29.226154 67.5 30.187092Q66.390625 31.14803 64.765625 31.14803Q62.75 31.14803 61.523438 29.827717Q60.296875 28.507404 60.296875 26.038654Q60.296875 24.444904 60.820312 23.249592Q61.34375 22.05428 62.429688 21.452717Q63.515625 20.851154 64.78125 20.851154Q66.390625 20.851154 67.40625 21.663654Q68.421875 22.476154 68.71875 23.976154L67.09375 24.226154Q66.859375 23.226154 66.265625 22.726154Q65.671875 22.226154 64.84375 22.226154Q63.578125 22.226154 62.789062 23.132404Q62.0 24.038654 62.0 25.99178Q62.0 27.976154 62.765625 28.874592Q63.53125 29.77303 64.75 29.77303Q65.734375 29.77303 66.390625 29.171467Q67.046875 28.569904 67.234375 27.319904ZM73.78125 29.42928L74.015625 30.913654Q73.3125 31.05428 72.75 31.05428Q71.84375 31.05428 71.34375 30.765217Q70.84375 30.476154 70.640625 30.015217Q70.4375 29.55428 70.4375 28.038654L70.4375 22.382404L69.203125 22.382404L69.203125 21.069904L70.4375 21.069904L70.4375 18.632404L72.09375 17.632404L72.09375 21.069904L73.78125 21.069904L73.78125 22.382404L72.09375 22.382404L72.09375 28.132404Q72.09375 28.851154 72.17969 29.05428Q72.265625 29.257404 72.46875 29.382404Q72.671875 29.507404 73.046875 29.507404Q73.3125 29.507404 73.78125 29.42928ZM80.5 30.92928L80.5 17.33553L82.171875 17.33553L82.171875 22.21053Q83.34375 20.851154 85.125 20.851154Q86.21875 20.851154 87.02344 21.280842Q87.828125 21.71053 88.17969 22.476154Q88.53125 23.24178 88.53125 24.67928L88.53125 30.92928L86.859375 30.92928L86.859375 24.67928Q86.859375 23.42928 86.3125 22.858967Q85.765625 22.288654 84.78125 22.288654Q84.03125 22.288654 83.38281 22.671467Q82.734375 23.05428 82.453125 23.718342Q82.171875 24.382404 82.171875 25.538654L82.171875 30.92928L80.5 30.92928ZM90.25 26.007404Q90.25 23.27303 91.78125 21.944904Q93.046875 20.851154 94.875 20.851154Q96.90625 20.851154 98.19531 22.187092Q99.484375 23.52303 99.484375 25.86678Q99.484375 27.77303 98.91406 28.858967Q98.34375 29.944904 97.25781 30.546467Q96.171875 31.14803 94.875 31.14803Q92.8125 31.14803 91.53125 29.819904Q90.25 28.49178 90.25 26.007404ZM91.96875 26.007404Q91.96875 27.89803 92.796875 28.83553Q93.625 29.77303 94.875 29.77303Q96.125 29.77303 96.94531 28.827717Q97.765625 27.882404 97.765625 25.944904Q97.765625 24.11678 96.9375 23.17928Q96.109375 22.24178 94.875 22.24178Q93.625 22.24178 92.796875 23.17928Q91.96875 24.11678 91.96875 26.007404ZM101.25 30.92928L101.25 21.069904L102.75 21.069904L102.75 22.46053Q103.203125 21.74178 103.97656 21.296467Q104.75 20.851154 105.734375 20.851154Q106.828125 20.851154 107.53125 21.30428Q108.234375 21.757404 108.515625 22.58553Q109.6875 20.851154 111.5625 20.851154Q113.03125 20.851154 113.82031 21.663654Q114.609375 22.476154 114.609375 24.163654L114.609375 30.92928L112.9375 30.92928L112.9375 24.726154Q112.9375 23.726154 112.78125 23.280842Q112.625 22.83553 112.19531 22.569904Q111.765625 22.30428 111.1875 22.30428Q110.15625 22.30428 109.46875 22.99178Q108.78125 23.67928 108.78125 25.21053L108.78125 30.92928L107.109375 30.92928L107.109375 24.52303Q107.109375 23.413654 106.703125 22.858967Q106.296875 22.30428 105.359375 22.30428Q104.65625 22.30428 104.05469 22.671467Q103.453125 23.038654 103.1875 23.757404Q102.921875 24.476154 102.921875 25.819904L102.921875 30.92928L101.25 30.92928ZM123.546875 27.757404L125.265625 27.976154Q124.859375 29.476154 123.75781 30.312092Q122.65625 31.14803 120.9375 31.14803Q118.78125 31.14803 117.515625 29.819904Q116.25 28.49178 116.25 26.08553Q116.25 23.601154 117.52344 22.226154Q118.796875 20.851154 120.84375 20.851154Q122.828125 20.851154 124.078125 22.194904Q125.328125 23.538654 125.328125 25.99178Q125.328125 26.132404 125.3125 26.42928L117.96875 26.42928Q118.0625 28.05428 118.890625 28.913654Q119.71875 29.77303 120.953125 29.77303Q121.859375 29.77303 122.50781 29.296467Q123.15625 28.819904 123.546875 27.757404ZM118.0625 25.05428L123.5625 25.05428Q123.453125 23.819904 122.9375 23.194904Q122.140625 22.226154 120.859375 22.226154Q119.71875 22.226154 118.92969 22.999592Q118.140625 23.77303 118.0625 25.05428Z" fill-rule="nonzero" fill="#000000"></path><path d="M288.2362 182.32721L287.73227 293.06735" fill-rule="nonzero" stroke="#000000" stroke-width="2.0" stroke-linejoin="round" stroke-linecap="butt"></path><path d="M322.26254 202.64352L482.32553 202.64352L482.32553 250.64352L322.26254 250.64352Z" fill-rule="nonzero" stroke="#bf9000" stroke-width="2.0" stroke-linejoin="round" stroke-linecap="butt"></path><path d="M375.02817 217.5029L375.02817 214.23727L377.84067 214.23727L377.84067 217.5029L375.02817 217.5029ZM371.46567 243.58102L371.99692 241.1904Q372.84067 241.40915 373.32504 241.40915Q374.18442 241.40915 374.6063 240.83884Q375.02817 240.26852 375.02817 237.98727L375.02817 220.54977L377.84067 220.54977L377.84067 238.04977Q377.84067 241.11227 377.0438 242.3154Q376.02817 243.8779 373.6688 243.8779Q372.52817 243.8779 371.46567 243.58102ZM392.9813 235.09665Q391.4188 236.42477 389.97348 236.97165Q388.52817 237.51852 386.87192 237.51852Q384.13754 237.51852 382.6688 236.18259Q381.20004 234.84665 381.20004 232.76852Q381.20004 231.54977 381.75473 230.54196Q382.30942 229.53415 383.20786 228.92477Q384.1063 228.3154 385.2313 228.0029Q386.05942 227.78415 387.7313 227.58102Q391.13754 227.17477 392.74692 226.61227Q392.76254 226.03415 392.76254 225.8779Q392.76254 224.15915 391.96567 223.45602Q390.88754 222.5029 388.76254 222.5029Q386.77817 222.5029 385.83286 223.19821Q384.88754 223.89352 384.43442 225.65915L381.68442 225.28415Q382.05942 223.51852 382.9188 222.43259Q383.77817 221.34665 385.40317 220.76071Q387.02817 220.17477 389.1688 220.17477Q391.2938 220.17477 392.62192 220.67477Q393.95004 221.17477 394.57504 221.93259Q395.20004 222.6904 395.45004 223.84665Q395.59067 224.5654 395.59067 226.4404L395.59067 230.1904Q395.59067 234.11227 395.77036 235.15134Q395.95004 236.1904 396.4813 237.14352L393.5438 237.14352Q393.1063 236.26852 392.9813 235.09665ZM392.74692 228.8154Q391.21567 229.4404 388.15317 229.8779Q386.4188 230.1279 385.70004 230.4404Q384.9813 230.7529 384.59067 231.35446Q384.20004 231.95602 384.20004 232.6904Q384.20004 233.8154 385.0516 234.5654Q385.90317 235.3154 387.5438 235.3154Q389.1688 235.3154 390.43442 234.60446Q391.70004 233.89352 392.2938 232.65915Q392.74692 231.70602 392.74692 229.84665L392.74692 228.8154ZM404.55942 237.14352L398.24692 220.54977L401.21567 220.54977L404.77817 230.48727Q405.3563 232.09665 405.84067 233.83102Q406.21567 232.51852 406.88754 230.67477L410.57504 220.54977L413.46567 220.54977L407.18442 237.14352L404.55942 237.14352ZM426.77817 235.09665Q425.21567 236.42477 423.77036 236.97165Q422.32504 237.51852 420.6688 237.51852Q417.93442 237.51852 416.46567 236.18259Q414.99692 234.84665 414.99692 232.76852Q414.99692 231.54977 415.5516 230.54196Q416.1063 229.53415 417.00473 228.92477Q417.90317 228.3154 419.02817 228.0029Q419.8563 227.78415 421.52817 227.58102Q424.93442 227.17477 426.5438 226.61227Q426.55942 226.03415 426.55942 225.8779Q426.55942 224.15915 425.76254 223.45602Q424.68442 222.5029 422.55942 222.5029Q420.57504 222.5029 419.62973 223.19821Q418.68442 223.89352 418.2313 225.65915L415.4813 225.28415Q415.8563 223.51852 416.71567 222.43259Q417.57504 221.34665 419.20004 220.76071Q420.82504 220.17477 422.96567 220.17477Q425.09067 220.17477 426.4188 220.67477Q427.74692 221.17477 428.37192 221.93259Q428.99692 222.6904 429.24692 223.84665Q429.38754 224.5654 429.38754 226.4404L429.38754 230.1904Q429.38754 234.11227 429.56723 235.15134Q429.74692 236.1904 430.27817 237.14352L427.34067 237.14352Q426.90317 236.26852 426.77817 235.09665ZM426.5438 228.8154Q425.01254 229.4404 421.95004 229.8779Q420.21567 230.1279 419.49692 230.4404Q418.77817 230.7529 418.38754 231.35446Q417.99692 231.95602 417.99692 232.6904Q417.99692 233.8154 418.84848 234.5654Q419.70004 235.3154 421.34067 235.3154Q422.96567 235.3154 424.2313 234.60446Q425.49692 233.89352 426.09067 232.65915Q426.5438 231.70602 426.5438 229.84665L426.5438 228.8154Z" fill-rule="nonzero" fill="#000000"></path><path d="M288.0 226.64352L322.2362 226.64352" fill-rule="nonzero" stroke="#000000" stroke-width="2.0" stroke-linejoin="round" stroke-linecap="butt"></path><path d="M322.26254 270.04828L482.32553 270.04828L482.32553 318.04828L322.26254 318.04828Z" fill-rule="nonzero" stroke="#bf9000" stroke-width="2.0" stroke-linejoin="round" stroke-linecap="butt"></path><path d="M334.12192 304.54828L334.12192 287.95453L336.65317 287.95453L336.65317 290.47015Q337.62192 288.70453 338.44223 288.14203Q339.26254 287.57953 340.24692 287.57953Q341.6688 287.57953 343.13754 288.48578L342.1688 291.09515Q341.13754 290.48578 340.1063 290.48578Q339.18442 290.48578 338.45004 291.04047Q337.71567 291.59515 337.40317 292.57953Q336.93442 294.07953 336.93442 295.86078L336.93442 304.54828L334.12192 304.54828ZM356.1688 299.20453L359.07504 299.5639Q358.38754 302.11078 356.52817 303.51703Q354.6688 304.92328 351.77817 304.92328Q348.13754 304.92328 346.00473 302.6811Q343.87192 300.4389 343.87192 296.39203Q343.87192 292.20453 346.02817 289.89203Q348.18442 287.57953 351.62192 287.57953Q354.95004 287.57953 357.05942 289.84515Q359.1688 292.11078 359.1688 296.22015Q359.1688 296.47015 359.15317 296.97015L346.77817 296.97015Q346.93442 299.70453 348.32504 301.15765Q349.71567 302.61078 351.7938 302.61078Q353.34067 302.61078 354.43442 301.79828Q355.52817 300.98578 356.1688 299.20453ZM346.93442 294.65765L356.20004 294.65765Q356.01254 292.5639 355.13754 291.51703Q353.7938 289.89203 351.65317 289.89203Q349.71567 289.89203 348.39536 291.1889Q347.07504 292.48578 346.93442 294.65765ZM361.4813 299.59515L364.26254 299.15765Q364.49692 300.82953 365.56723 301.72015Q366.63754 302.61078 368.55942 302.61078Q370.49692 302.61078 371.43442 301.82172Q372.37192 301.03265 372.37192 299.97015Q372.37192 299.01703 371.5438 298.47015Q370.96567 298.09515 368.6688 297.51703Q365.57504 296.73578 364.37973 296.16547Q363.18442 295.59515 362.56723 294.58734Q361.95004 293.57953 361.95004 292.36078Q361.95004 291.2514 362.45786 290.3061Q362.96567 289.36078 363.84067 288.73578Q364.49692 288.2514 365.62973 287.91547Q366.76254 287.57953 368.05942 287.57953Q370.01254 287.57953 371.4891 288.14203Q372.96567 288.70453 373.6688 289.66547Q374.37192 290.6264 374.63754 292.23578L371.88754 292.61078Q371.70004 291.32953 370.8016 290.61078Q369.90317 289.89203 368.26254 289.89203Q366.32504 289.89203 365.49692 290.53265Q364.6688 291.17328 364.6688 292.03265Q364.6688 292.57953 365.01254 293.01703Q365.3563 293.47015 366.09067 293.76703Q366.51254 293.92328 368.57504 294.48578Q371.55942 295.28265 372.7391 295.79047Q373.9188 296.29828 374.59067 297.26703Q375.26254 298.23578 375.26254 299.67328Q375.26254 301.07953 374.44223 302.32172Q373.62192 303.5639 372.07504 304.2436Q370.52817 304.92328 368.57504 304.92328Q365.34067 304.92328 363.64536 303.57953Q361.95004 302.23578 361.4813 299.59515ZM377.55942 296.2514Q377.55942 291.64203 380.12192 289.42328Q382.26254 287.57953 385.34067 287.57953Q388.76254 287.57953 390.93442 289.82172Q393.1063 292.0639 393.1063 296.01703Q393.1063 299.22015 392.14536 301.0561Q391.18442 302.89203 389.34848 303.90765Q387.51254 304.92328 385.34067 304.92328Q381.8563 304.92328 379.70786 302.6889Q377.55942 300.45453 377.55942 296.2514ZM380.45004 296.2514Q380.45004 299.4389 381.84067 301.02484Q383.2313 302.61078 385.34067 302.61078Q387.43442 302.61078 388.82504 301.01703Q390.21567 299.42328 390.21567 296.15765Q390.21567 293.07953 388.81723 291.4936Q387.4188 289.90765 385.34067 289.90765Q383.2313 289.90765 381.84067 291.48578Q380.45004 293.0639 380.45004 296.2514ZM407.27817 304.54828L407.27817 302.11078Q405.34067 304.92328 402.01254 304.92328Q400.5438 304.92328 399.27036 304.36078Q397.99692 303.79828 397.37973 302.94672Q396.76254 302.09515 396.51254 300.86078Q396.34067 300.03265 396.34067 298.23578L396.34067 287.95453L399.15317 287.95453L399.15317 297.15765Q399.15317 299.36078 399.32504 300.1264Q399.59067 301.23578 400.45004 301.8686Q401.30942 302.5014 402.57504 302.5014Q403.84067 302.5014 404.95004 301.85297Q406.05942 301.20453 406.52036 300.08734Q406.9813 298.97015 406.9813 296.84515L406.9813 287.95453L409.7938 287.95453L409.7938 304.54828L407.27817 304.54828ZM414.1688 304.54828L414.1688 287.95453L416.70004 287.95453L416.70004 290.47015Q417.6688 288.70453 418.4891 288.14203Q419.30942 287.57953 420.2938 287.57953Q421.71567 287.57953 423.18442 288.48578L422.21567 291.09515Q421.18442 290.48578 420.15317 290.48578Q419.2313 290.48578 418.49692 291.04047Q417.76254 291.59515 417.45004 292.57953Q416.9813 294.07953 416.9813 295.86078L416.9813 304.54828L414.1688 304.54828ZM435.68442 298.47015L438.45004 298.82953Q437.99692 301.6889 436.12973 303.3061Q434.26254 304.92328 431.5438 304.92328Q428.13754 304.92328 426.06723 302.69672Q423.99692 300.47015 423.99692 296.3139Q423.99692 293.6264 424.88754 291.61078Q425.77817 289.59515 427.59848 288.58734Q429.4188 287.57953 431.55942 287.57953Q434.26254 287.57953 435.9813 288.94672Q437.70004 290.3139 438.18442 292.82953L435.45004 293.2514Q435.05942 291.57953 434.06723 290.73578Q433.07504 289.89203 431.6688 289.89203Q429.5438 289.89203 428.21567 291.41547Q426.88754 292.9389 426.88754 296.23578Q426.88754 299.57953 428.1688 301.09515Q429.45004 302.61078 431.51254 302.61078Q433.1688 302.61078 434.27817 301.59515Q435.38754 300.57953 435.68442 298.47015ZM452.21567 299.20453L455.12192 299.5639Q454.43442 302.11078 452.57504 303.51703Q450.71567 304.92328 447.82504 304.92328Q444.18442 304.92328 442.0516 302.6811Q439.9188 300.4389 439.9188 296.39203Q439.9188 292.20453 442.07504 289.89203Q444.2313 287.57953 447.6688 287.57953Q450.99692 287.57953 453.1063 289.84515Q455.21567 292.11078 455.21567 296.22015Q455.21567 296.47015 455.20004 296.97015L442.82504 296.97015Q442.9813 299.70453 444.37192 301.15765Q445.76254 302.61078 447.84067 302.61078Q449.38754 302.61078 450.4813 301.79828Q451.57504 300.98578 452.21567 299.20453ZM442.9813 294.65765L452.24692 294.65765Q452.05942 292.5639 451.18442 291.51703Q449.84067 289.89203 447.70004 289.89203Q445.76254 289.89203 444.44223 291.1889Q443.12192 292.48578 442.9813 294.65765ZM457.52817 299.59515L460.30942 299.15765Q460.5438 300.82953 461.6141 301.72015Q462.68442 302.61078 464.6063 302.61078Q466.5438 302.61078 467.4813 301.82172Q468.4188 301.03265 468.4188 299.97015Q468.4188 299.01703 467.59067 298.47015Q467.01254 298.09515 464.71567 297.51703Q461.62192 296.73578 460.4266 296.16547Q459.2313 295.59515 458.6141 294.58734Q457.99692 293.57953 457.99692 292.36078Q457.99692 291.2514 458.50473 290.3061Q459.01254 289.36078 459.88754 288.73578Q460.5438 288.2514 461.6766 287.91547Q462.80942 287.57953 464.1063 287.57953Q466.05942 287.57953 467.53598 288.14203Q469.01254 288.70453 469.71567 289.66547Q470.4188 290.6264 470.68442 292.23578L467.93442 292.61078Q467.74692 291.32953 466.84848 290.61078Q465.95004 289.89203 464.30942 289.89203Q462.37192 289.89203 461.5438 290.53265Q460.71567 291.17328 460.71567 292.03265Q460.71567 292.57953 461.05942 293.01703Q461.40317 293.47015 462.13754 293.76703Q462.55942 293.92328 464.62192 294.48578Q467.6063 295.28265 468.78598 295.79047Q469.96567 296.29828 470.63754 297.26703Q471.30942 298.23578 471.30942 299.67328Q471.30942 301.07953 470.4891 302.32172Q469.6688 303.5639 468.12192 304.2436Q466.57504 304.92328 464.62192 304.92328Q461.38754 304.92328 459.69223 303.57953Q457.99692 302.23578 457.52817 299.59515Z" fill-rule="nonzero" fill="#000000"></path><path d="M286.5013 294.04828L320.73752 294.04828" fill-rule="nonzero" stroke="#000000" stroke-width="2.0" stroke-linejoin="round" stroke-linecap="butt"></path><path d="M215.98425 337.45303L359.98425 337.45303L359.98425 385.45303L215.98425 385.45303Z" fill-rule="nonzero" stroke="#bf9000" stroke-width="2.0" stroke-linejoin="round" stroke-linecap="butt"></path><path d="M270.43738 369.4374L270.84363 371.92178Q269.65613 372.17178 268.71863 372.17178Q267.18738 372.17178 266.34363 371.6874Q265.49988 371.20303 265.15613 370.41397Q264.81238 369.6249 264.81238 367.09366L264.81238 357.54678L262.74988 357.54678L262.74988 355.35928L264.81238 355.35928L264.81238 351.2499L267.60925 349.5624L267.60925 355.35928L270.43738 355.35928L270.43738 357.54678L267.60925 357.54678L267.60925 367.2499Q267.60925 368.45303 267.7577 368.79678Q267.90613 369.14053 268.24207 369.34366Q268.578 369.54678 269.203 369.54678Q269.67175 369.54678 270.43738 369.4374ZM284.54675 366.60928L287.453 366.96866Q286.7655 369.51553 284.90613 370.92178Q283.04675 372.32803 280.15613 372.32803Q276.5155 372.32803 274.3827 370.08585Q272.24988 367.84366 272.24988 363.79678Q272.24988 359.60928 274.40613 357.29678Q276.56238 354.98428 279.99988 354.98428Q283.328 354.98428 285.43738 357.2499Q287.54675 359.51553 287.54675 363.6249Q287.54675 363.8749 287.53113 364.3749L275.15613 364.3749Q275.31238 367.10928 276.703 368.5624Q278.09363 370.01553 280.17175 370.01553Q281.71863 370.01553 282.81238 369.20303Q283.90613 368.39053 284.54675 366.60928ZM275.31238 362.0624L284.578 362.0624Q284.3905 359.96866 283.5155 358.92178Q282.17175 357.29678 280.03113 357.29678Q278.09363 357.29678 276.77332 358.59366Q275.453 359.89053 275.31238 362.0624ZM289.85925 366.9999L292.6405 366.5624Q292.87488 368.23428 293.9452 369.1249Q295.0155 370.01553 296.93738 370.01553Q298.87488 370.01553 299.81238 369.22647Q300.74988 368.4374 300.74988 367.3749Q300.74988 366.42178 299.92175 365.8749Q299.34363 365.4999 297.04675 364.92178Q293.953 364.14053 292.7577 363.57022Q291.56238 362.9999 290.9452 361.9921Q290.328 360.98428 290.328 359.76553Q290.328 358.65616 290.83582 357.71085Q291.34363 356.76553 292.21863 356.14053Q292.87488 355.65616 294.0077 355.32022Q295.1405 354.98428 296.43738 354.98428Q298.3905 354.98428 299.86707 355.54678Q301.34363 356.10928 302.04675 357.07022Q302.74988 358.03116 303.0155 359.64053L300.2655 360.01553Q300.078 358.73428 299.17957 358.01553Q298.28113 357.29678 296.6405 357.29678Q294.703 357.29678 293.87488 357.9374Q293.04675 358.57803 293.04675 359.4374Q293.04675 359.98428 293.3905 360.42178Q293.73425 360.8749 294.46863 361.17178Q294.8905 361.32803 296.953 361.89053Q299.93738 362.6874 301.11707 363.19522Q302.29675 363.70303 302.96863 364.67178Q303.6405 365.64053 303.6405 367.07803Q303.6405 368.48428 302.8202 369.72647Q301.99988 370.96866 300.453 371.64835Q298.90613 372.32803 296.953 372.32803Q293.71863 372.32803 292.02332 370.98428Q290.328 369.64053 289.85925 366.9999ZM313.12488 369.4374L313.53113 371.92178Q312.34363 372.17178 311.40613 372.17178Q309.87488 372.17178 309.03113 371.6874Q308.18738 371.20303 307.84363 370.41397Q307.49988 369.6249 307.49988 367.09366L307.49988 357.54678L305.43738 357.54678L305.43738 355.35928L307.49988 355.35928L307.49988 351.2499L310.29675 349.5624L310.29675 355.35928L313.12488 355.35928L313.12488 357.54678L310.29675 357.54678L310.29675 367.2499Q310.29675 368.45303 310.4452 368.79678Q310.59363 369.14053 310.92957 369.34366Q311.2655 369.54678 311.8905 369.54678Q312.35925 369.54678 313.12488 369.4374Z" fill-rule="nonzero" fill="#000000"></path><path d="M182.73254 361.45303L216.96877 361.45303" fill-rule="nonzero" stroke="#000000" stroke-width="2.0" stroke-linejoin="round" stroke-linecap="butt"></path><path d="M288.2362 385.45303L287.73227 496.19318" fill-rule="nonzero" stroke="#000000" stroke-width="2.0" stroke-linejoin="round" stroke-linecap="butt"></path><path d="M322.26254 404.8578L482.32553 404.8578L482.32553 452.8578L322.26254 452.8578Z" fill-rule="nonzero" stroke="#bf9000" stroke-width="2.0" stroke-linejoin="round" stroke-linecap="butt"></path><path d="M375.02817 419.71716L375.02817 416.45154L377.84067 416.45154L377.84067 419.71716L375.02817 419.71716ZM371.46567 445.7953L371.99692 443.40466Q372.84067 443.6234 373.32504 443.6234Q374.18442 443.6234 374.6063 443.0531Q375.02817 442.4828 375.02817 440.20154L375.02817 422.76404L377.84067 422.76404L377.84067 440.26404Q377.84067 443.32654 377.0438 444.52966Q376.02817 446.09216 373.6688 446.09216Q372.52817 446.09216 371.46567 445.7953ZM392.9813 437.3109Q391.4188 438.63904 389.97348 439.1859Q388.52817 439.7328 386.87192 439.7328Q384.13754 439.7328 382.6688 438.39685Q381.20004 437.0609 381.20004 434.9828Q381.20004 433.76404 381.75473 432.75623Q382.30942 431.7484 383.20786 431.13904Q384.1063 430.52966 385.2313 430.21716Q386.05942 429.9984 387.7313 429.7953Q391.13754 429.38904 392.74692 428.82654Q392.76254 428.2484 392.76254 428.09216Q392.76254 426.3734 391.96567 425.6703Q390.88754 424.71716 388.76254 424.71716Q386.77817 424.71716 385.83286 425.41248Q384.88754 426.1078 384.43442 427.8734L381.68442 427.4984Q382.05942 425.7328 382.9188 424.64685Q383.77817 423.5609 385.40317 422.97498Q387.02817 422.38904 389.1688 422.38904Q391.2938 422.38904 392.62192 422.88904Q393.95004 423.38904 394.57504 424.14685Q395.20004 424.90466 395.45004 426.0609Q395.59067 426.77966 395.59067 428.65466L395.59067 432.40466Q395.59067 436.32654 395.77036 437.3656Q395.95004 438.40466 396.4813 439.3578L393.5438 439.3578Q393.1063 438.4828 392.9813 437.3109ZM392.74692 431.02966Q391.21567 431.65466 388.15317 432.09216Q386.4188 432.34216 385.70004 432.65466Q384.9813 432.96716 384.59067 433.56873Q384.20004 434.1703 384.20004 434.90466Q384.20004 436.02966 385.0516 436.77966Q385.90317 437.52966 387.5438 437.52966Q389.1688 437.52966 390.43442 436.81873Q391.70004 436.1078 392.2938 434.8734Q392.74692 433.9203 392.74692 432.0609L392.74692 431.02966ZM404.55942 439.3578L398.24692 422.76404L401.21567 422.76404L404.77817 432.70154Q405.3563 434.3109 405.84067 436.0453Q406.21567 434.7328 406.88754 432.88904L410.57504 422.76404L413.46567 422.76404L407.18442 439.3578L404.55942 439.3578ZM426.77817 437.3109Q425.21567 438.63904 423.77036 439.1859Q422.32504 439.7328 420.6688 439.7328Q417.93442 439.7328 416.46567 438.39685Q414.99692 437.0609 414.99692 434.9828Q414.99692 433.76404 415.5516 432.75623Q416.1063 431.7484 417.00473 431.13904Q417.90317 430.52966 419.02817 430.21716Q419.8563 429.9984 421.52817 429.7953Q424.93442 429.38904 426.5438 428.82654Q426.55942 428.2484 426.55942 428.09216Q426.55942 426.3734 425.76254 425.6703Q424.68442 424.71716 422.55942 424.71716Q420.57504 424.71716 419.62973 425.41248Q418.68442 426.1078 418.2313 427.8734L415.4813 427.4984Q415.8563 425.7328 416.71567 424.64685Q417.57504 423.5609 419.20004 422.97498Q420.82504 422.38904 422.96567 422.38904Q425.09067 422.38904 426.4188 422.88904Q427.74692 423.38904 428.37192 424.14685Q428.99692 424.90466 429.24692 426.0609Q429.38754 426.77966 429.38754 428.65466L429.38754 432.40466Q429.38754 436.32654 429.56723 437.3656Q429.74692 438.40466 430.27817 439.3578L427.34067 439.3578Q426.90317 438.4828 426.77817 437.3109ZM426.5438 431.02966Q425.01254 431.65466 421.95004 432.09216Q420.21567 432.34216 419.49692 432.65466Q418.77817 432.96716 418.38754 433.56873Q417.99692 434.1703 417.99692 434.90466Q417.99692 436.02966 418.84848 436.77966Q419.70004 437.52966 421.34067 437.52966Q422.96567 437.52966 424.2313 436.81873Q425.49692 436.1078 426.09067 434.8734Q426.5438 433.9203 426.5438 432.0609L426.5438 431.02966Z" fill-rule="nonzero" fill="#000000"></path><path d="M288.0 428.8578L322.2362 428.8578" fill-rule="nonzero" stroke="#000000" stroke-width="2.0" stroke-linejoin="round" stroke-linecap="butt"></path><path d="M322.26254 472.26254L482.32553 472.26254L482.32553 520.2625L322.26254 520.2625Z" fill-rule="nonzero" stroke="#bf9000" stroke-width="2.0" stroke-linejoin="round" stroke-linecap="butt"></path><path d="M334.12192 506.76254L334.12192 490.1688L336.65317 490.1688L336.65317 492.68442Q337.62192 490.9188 338.44223 490.3563Q339.26254 489.7938 340.24692 489.7938Q341.6688 489.7938 343.13754 490.70004L342.1688 493.30942Q341.13754 492.70004 340.1063 492.70004Q339.18442 492.70004 338.45004 493.25473Q337.71567 493.80942 337.40317 494.7938Q336.93442 496.2938 336.93442 498.07504L336.93442 506.76254L334.12192 506.76254ZM356.1688 501.4188L359.07504 501.77817Q358.38754 504.32504 356.52817 505.7313Q354.6688 507.13754 351.77817 507.13754Q348.13754 507.13754 346.00473 504.89536Q343.87192 502.65317 343.87192 498.6063Q343.87192 494.4188 346.02817 492.1063Q348.18442 489.7938 351.62192 489.7938Q354.95004 489.7938 357.05942 492.05942Q359.1688 494.32504 359.1688 498.43442Q359.1688 498.68442 359.15317 499.18442L346.77817 499.18442Q346.93442 501.9188 348.32504 503.37192Q349.71567 504.82504 351.7938 504.82504Q353.34067 504.82504 354.43442 504.01254Q355.52817 503.20004 356.1688 501.4188ZM346.93442 496.87192L356.20004 496.87192Q356.01254 494.77817 355.13754 493.7313Q353.7938 492.1063 351.65317 492.1063Q349.71567 492.1063 348.39536 493.40317Q347.07504 494.70004 346.93442 496.87192ZM361.4813 501.80942L364.26254 501.37192Q364.49692 503.0438 365.56723 503.93442Q366.63754 504.82504 368.55942 504.82504Q370.49692 504.82504 371.43442 504.03598Q372.37192 503.24692 372.37192 502.18442Q372.37192 501.2313 371.5438 500.68442Q370.96567 500.30942 368.6688 499.7313Q365.57504 498.95004 364.37973 498.37973Q363.18442 497.80942 362.56723 496.8016Q361.95004 495.7938 361.95004 494.57504Q361.95004 493.46567 362.45786 492.52036Q362.96567 491.57504 363.84067 490.95004Q364.49692 490.46567 365.62973 490.12973Q366.76254 489.7938 368.05942 489.7938Q370.01254 489.7938 371.4891 490.3563Q372.96567 490.9188 373.6688 491.87973Q374.37192 492.84067 374.63754 494.45004L371.88754 494.82504Q371.70004 493.5438 370.8016 492.82504Q369.90317 492.1063 368.26254 492.1063Q366.32504 492.1063 365.49692 492.74692Q364.6688 493.38754 364.6688 494.24692Q364.6688 494.7938 365.01254 495.2313Q365.3563 495.68442 366.09067 495.9813Q366.51254 496.13754 368.57504 496.70004Q371.55942 497.49692 372.7391 498.00473Q373.9188 498.51254 374.59067 499.4813Q375.26254 500.45004 375.26254 501.88754Q375.26254 503.2938 374.44223 504.53598Q373.62192 505.77817 372.07504 506.45786Q370.52817 507.13754 368.57504 507.13754Q365.34067 507.13754 363.64536 505.7938Q361.95004 504.45004 361.4813 501.80942ZM377.55942 498.46567Q377.55942 493.8563 380.12192 491.63754Q382.26254 489.7938 385.34067 489.7938Q388.76254 489.7938 390.93442 492.03598Q393.1063 494.27817 393.1063 498.2313Q393.1063 501.43442 392.14536 503.27036Q391.18442 505.1063 389.34848 506.12192Q387.51254 507.13754 385.34067 507.13754Q381.8563 507.13754 379.70786 504.90317Q377.55942 502.6688 377.55942 498.46567ZM380.45004 498.46567Q380.45004 501.65317 381.84067 503.2391Q383.2313 504.82504 385.34067 504.82504Q387.43442 504.82504 388.82504 503.2313Q390.21567 501.63754 390.21567 498.37192Q390.21567 495.2938 388.81723 493.70786Q387.4188 492.12192 385.34067 492.12192Q383.2313 492.12192 381.84067 493.70004Q380.45004 495.27817 380.45004 498.46567ZM407.27817 506.76254L407.27817 504.32504Q405.34067 507.13754 402.01254 507.13754Q400.5438 507.13754 399.27036 506.57504Q397.99692 506.01254 397.37973 505.16098Q396.76254 504.30942 396.51254 503.07504Q396.34067 502.24692 396.34067 500.45004L396.34067 490.1688L399.15317 490.1688L399.15317 499.37192Q399.15317 501.57504 399.32504 502.34067Q399.59067 503.45004 400.45004 504.08286Q401.30942 504.71567 402.57504 504.71567Q403.84067 504.71567 404.95004 504.06723Q406.05942 503.4188 406.52036 502.3016Q406.9813 501.18442 406.9813 499.05942L406.9813 490.1688L409.7938 490.1688L409.7938 506.76254L407.27817 506.76254ZM414.1688 506.76254L414.1688 490.1688L416.70004 490.1688L416.70004 492.68442Q417.6688 490.9188 418.4891 490.3563Q419.30942 489.7938 420.2938 489.7938Q421.71567 489.7938 423.18442 490.70004L422.21567 493.30942Q421.18442 492.70004 420.15317 492.70004Q419.2313 492.70004 418.49692 493.25473Q417.76254 493.80942 417.45004 494.7938Q416.9813 496.2938 416.9813 498.07504L416.9813 506.76254L414.1688 506.76254ZM435.68442 500.68442L438.45004 501.0438Q437.99692 503.90317 436.12973 505.52036Q434.26254 507.13754 431.5438 507.13754Q428.13754 507.13754 426.06723 504.91098Q423.99692 502.68442 423.99692 498.52817Q423.99692 495.84067 424.88754 493.82504Q425.77817 491.80942 427.59848 490.8016Q429.4188 489.7938 431.55942 489.7938Q434.26254 489.7938 435.9813 491.16098Q437.70004 492.52817 438.18442 495.0438L435.45004 495.46567Q435.05942 493.7938 434.06723 492.95004Q433.07504 492.1063 431.6688 492.1063Q429.5438 492.1063 428.21567 493.62973Q426.88754 495.15317 426.88754 498.45004Q426.88754 501.7938 428.1688 503.30942Q429.45004 504.82504 431.51254 504.82504Q433.1688 504.82504 434.27817 503.80942Q435.38754 502.7938 435.68442 500.68442ZM452.21567 501.4188L455.12192 501.77817Q454.43442 504.32504 452.57504 505.7313Q450.71567 507.13754 447.82504 507.13754Q444.18442 507.13754 442.0516 504.89536Q439.9188 502.65317 439.9188 498.6063Q439.9188 494.4188 442.07504 492.1063Q444.2313 489.7938 447.6688 489.7938Q450.99692 489.7938 453.1063 492.05942Q455.21567 494.32504 455.21567 498.43442Q455.21567 498.68442 455.20004 499.18442L442.82504 499.18442Q442.9813 501.9188 444.37192 503.37192Q445.76254 504.82504 447.84067 504.82504Q449.38754 504.82504 450.4813 504.01254Q451.57504 503.20004 452.21567 501.4188ZM442.9813 496.87192L452.24692 496.87192Q452.05942 494.77817 451.18442 493.7313Q449.84067 492.1063 447.70004 492.1063Q445.76254 492.1063 444.44223 493.40317Q443.12192 494.70004 442.9813 496.87192ZM457.52817 501.80942L460.30942 501.37192Q460.5438 503.0438 461.6141 503.93442Q462.68442 504.82504 464.6063 504.82504Q466.5438 504.82504 467.4813 504.03598Q468.4188 503.24692 468.4188 502.18442Q468.4188 501.2313 467.59067 500.68442Q467.01254 500.30942 464.71567 499.7313Q461.62192 498.95004 460.4266 498.37973Q459.2313 497.80942 458.6141 496.8016Q457.99692 495.7938 457.99692 494.57504Q457.99692 493.46567 458.50473 492.52036Q459.01254 491.57504 459.88754 490.95004Q460.5438 490.46567 461.6766 490.12973Q462.80942 489.7938 464.1063 489.7938Q466.05942 489.7938 467.53598 490.3563Q469.01254 490.9188 469.71567 491.87973Q470.4188 492.84067 470.68442 494.45004L467.93442 494.82504Q467.74692 493.5438 466.84848 492.82504Q465.95004 492.1063 464.30942 492.1063Q462.37192 492.1063 461.5438 492.74692Q460.71567 493.38754 460.71567 494.24692Q460.71567 494.7938 461.05942 495.2313Q461.40317 495.68442 462.13754 495.9813Q462.55942 496.13754 464.62192 496.70004Q467.6063 497.49692 468.78598 498.00473Q469.96567 498.51254 470.63754 499.4813Q471.30942 500.45004 471.30942 501.88754Q471.30942 503.2938 470.4891 504.53598Q469.6688 505.77817 468.12192 506.45786Q466.57504 507.13754 464.62192 507.13754Q461.38754 507.13754 459.69223 505.7938Q457.99692 504.45004 457.52817 501.80942Z" fill-rule="nonzero" fill="#000000"></path><path d="M286.5013 496.26254L320.73752 496.26254" fill-rule="nonzero" stroke="#000000" stroke-width="2.0" stroke-linejoin="round" stroke-linecap="butt"></path><path d="M181.142 114.81052L181.64594 363.03098" fill-rule="nonzero" stroke="#000000" stroke-width="2.0" stroke-linejoin="round" stroke-linecap="butt"></path><path d="M215.98425 135.23878L359.98425 135.23878L359.98425 183.23878L215.98425 183.23878Z" fill-rule="nonzero" stroke="#bf9000" stroke-width="2.0" stroke-linejoin="round" stroke-linecap="butt"></path><path d="M255.40613 169.73878L255.40613 153.14503L257.92175 153.14503L257.92175 155.47316Q258.703 154.25441 259.99988 153.51222Q261.29675 152.77003 262.953 152.77003Q264.79675 152.77003 265.97644 153.53566Q267.15613 154.30128 267.6405 155.67628Q269.60925 152.77003 272.7655 152.77003Q275.23425 152.77003 276.56238 154.13722Q277.8905 155.50441 277.8905 158.34816L277.8905 169.73878L275.09363 169.73878L275.09363 159.28566Q275.09363 157.59816 274.8202 156.85597Q274.54675 156.11378 273.828 155.66066Q273.10925 155.20753 272.1405 155.20753Q270.3905 155.20753 269.23425 156.3716Q268.078 157.53566 268.078 160.09816L268.078 169.73878L265.2655 169.73878L265.2655 158.95753Q265.2655 157.08253 264.578 156.14503Q263.8905 155.20753 262.328 155.20753Q261.1405 155.20753 260.1327 155.83253Q259.12488 156.45753 258.67175 157.66066Q258.21863 158.86378 258.21863 161.12941L258.21863 169.73878L255.40613 169.73878ZM292.8905 167.69191Q291.328 169.02003 289.8827 169.56691Q288.43738 170.11378 286.78113 170.11378Q284.04675 170.11378 282.578 168.77785Q281.10925 167.44191 281.10925 165.36378Q281.10925 164.14503 281.66394 163.13722Q282.21863 162.12941 283.11707 161.52003Q284.0155 160.91066 285.1405 160.59816Q285.96863 160.37941 287.6405 160.17628Q291.04675 159.77003 292.65613 159.20753Q292.67175 158.62941 292.67175 158.47316Q292.67175 156.75441 291.87488 156.05128Q290.79675 155.09816 288.67175 155.09816Q286.68738 155.09816 285.74207 155.79347Q284.79675 156.48878 284.34363 158.25441L281.59363 157.87941Q281.96863 156.11378 282.828 155.02785Q283.68738 153.94191 285.31238 153.35597Q286.93738 152.77003 289.078 152.77003Q291.203 152.77003 292.53113 153.27003Q293.85925 153.77003 294.48425 154.52785Q295.10925 155.28566 295.35925 156.44191Q295.49988 157.16066 295.49988 159.03566L295.49988 162.78566Q295.49988 166.70753 295.67957 167.7466Q295.85925 168.78566 296.3905 169.73878L293.453 169.73878Q293.0155 168.86378 292.8905 167.69191ZM292.65613 161.41066Q291.12488 162.03566 288.06238 162.47316Q286.328 162.72316 285.60925 163.03566Q284.8905 163.34816 284.49988 163.94972Q284.10925 164.55128 284.10925 165.28566Q284.10925 166.41066 284.96082 167.16066Q285.81238 167.91066 287.453 167.91066Q289.078 167.91066 290.34363 167.19972Q291.60925 166.48878 292.203 165.25441Q292.65613 164.30128 292.65613 162.44191L292.65613 161.41066ZM299.87488 150.06691L299.87488 146.83253L302.68738 146.83253L302.68738 150.06691L299.87488 150.06691ZM299.87488 169.73878L299.87488 153.14503L302.68738 153.14503L302.68738 169.73878L299.87488 169.73878ZM306.96863 169.73878L306.96863 153.14503L309.49988 153.14503L309.49988 155.50441Q311.328 152.77003 314.78113 152.77003Q316.28113 152.77003 317.53894 153.3091Q318.79675 153.84816 319.42175 154.72316Q320.04675 155.59816 320.29675 156.80128Q320.453 157.58253 320.453 159.53566L320.453 169.73878L317.6405 169.73878L317.6405 159.64503Q317.6405 157.92628 317.31238 157.07472Q316.98425 156.22316 316.14832 155.71535Q315.31238 155.20753 314.18738 155.20753Q312.3905 155.20753 311.08582 156.34816Q309.78113 157.48878 309.78113 160.67628L309.78113 169.73878L306.96863 169.73878Z" fill-rule="nonzero" fill="#000000"></path><path d="M182.73254 159.23878L216.96877 159.23878" fill-rule="nonzero" stroke="#000000" stroke-width="2.0" stroke-linejoin="round" stroke-linecap="butt"></path><path d="M73.74803 48.42928L70.25197 630.16156" fill-rule="nonzero" stroke="#000000" stroke-width="2.0" stroke-linejoin="round" stroke-linecap="butt"></path><path d="M109.39396 67.83403L253.39397 67.83403L253.39397 115.83403L109.39396 115.83403Z" fill-rule="nonzero" stroke="#073763" stroke-width="2.0" stroke-linejoin="round" stroke-linecap="butt"></path><path d="M161.05022 97.380905L163.83147 96.943405Q164.06584 98.61528 165.13615 99.505905Q166.20647 100.39653 168.12834 100.39653Q170.06584 100.39653 171.00334 99.60747Q171.94084 98.818405 171.94084 97.755905Q171.94084 96.80278 171.11272 96.255905Q170.53459 95.880905 168.23772 95.30278Q165.14397 94.52153 163.94865 93.95122Q162.75334 93.380905 162.13615 92.37309Q161.51897 91.36528 161.51897 90.14653Q161.51897 89.037155 162.02678 88.09184Q162.53459 87.14653 163.40959 86.52153Q164.06584 86.037155 165.19865 85.70122Q166.33147 85.36528 167.62834 85.36528Q169.58147 85.36528 171.05803 85.92778Q172.53459 86.49028 173.23772 87.45122Q173.94084 88.412155 174.20647 90.02153L171.45647 90.39653Q171.26897 89.11528 170.37053 88.39653Q169.47209 87.67778 167.83147 87.67778Q165.89397 87.67778 165.06584 88.318405Q164.23772 88.95903 164.23772 89.818405Q164.23772 90.36528 164.58147 90.80278Q164.92522 91.255905 165.65959 91.55278Q166.08147 91.70903 168.14397 92.27153Q171.12834 93.068405 172.30803 93.57622Q173.48772 94.08403 174.15959 95.05278Q174.83147 96.02153 174.83147 97.45903Q174.83147 98.86528 174.01115 100.10747Q173.19084 101.349655 171.64397 102.02934Q170.09709 102.70903 168.14397 102.70903Q164.90959 102.70903 163.21428 101.36528Q161.51897 100.02153 161.05022 97.380905ZM178.14397 102.33403L178.14397 85.74028L180.67522 85.74028L180.67522 88.255905Q181.64397 86.49028 182.46428 85.92778Q183.28459 85.36528 184.26897 85.36528Q185.69084 85.36528 187.15959 86.27153L186.19084 88.880905Q185.15959 88.27153 184.12834 88.27153Q183.20647 88.27153 182.47209 88.82622Q181.73772 89.380905 181.42522 90.36528Q180.95647 91.86528 180.95647 93.64653L180.95647 102.33403L178.14397 102.33403ZM199.65959 96.255905L202.42522 96.61528Q201.97209 99.474655 200.1049 101.09184Q198.23772 102.70903 195.51897 102.70903Q192.11272 102.70903 190.0424 100.48247Q187.97209 98.255905 187.97209 94.099655Q187.97209 91.412155 188.86272 89.39653Q189.75334 87.380905 191.57365 86.37309Q193.39397 85.36528 195.53459 85.36528Q198.23772 85.36528 199.95647 86.73247Q201.67522 88.099655 202.15959 90.61528L199.42522 91.037155Q199.03459 89.36528 198.0424 88.52153Q197.05022 87.67778 195.64397 87.67778Q193.51897 87.67778 192.19084 89.20122Q190.86272 90.724655 190.86272 94.02153Q190.86272 97.36528 192.14397 98.880905Q193.42522 100.39653 195.48772 100.39653Q197.14397 100.39653 198.25334 99.380905Q199.36272 98.36528 199.65959 96.255905Z" fill-rule="nonzero" fill="#000000"></path><path d="M73.74803 91.519066L108.11024 92.148994" fill-rule="nonzero" stroke="#000000" stroke-width="2.0" stroke-linejoin="round" stroke-linecap="butt"></path><path d="M105.897896 539.6673L249.8979 539.6673L249.8979 587.6673L105.897896 587.6673Z" fill-rule="nonzero" stroke="#073763" stroke-width="2.0" stroke-linejoin="round" stroke-linecap="butt"></path><path d="M145.22603 571.6517L145.63228 574.13605Q144.44478 574.38605 143.50728 574.38605Q141.97603 574.38605 141.13228 573.9017Q140.28853 573.4173 139.94478 572.62823Q139.60103 571.8392 139.60103 569.3079L139.60103 559.76105L137.53853 559.76105L137.53853 557.57355L139.60103 557.57355L139.60103 553.4642L142.3979 551.7767L142.3979 557.57355L145.22603 557.57355L145.22603 559.76105L142.3979 559.76105L142.3979 569.4642Q142.3979 570.6673 142.54634 571.01105Q142.69478 571.3548 143.03072 571.5579Q143.36665 571.76105 143.99165 571.76105Q144.4604 571.76105 145.22603 571.6517ZM158.80415 572.1204Q157.24165 573.44855 155.79634 573.9954Q154.35103 574.5423 152.69478 574.5423Q149.9604 574.5423 148.49165 573.20636Q147.0229 571.8704 147.0229 569.7923Q147.0229 568.57355 147.57759 567.56573Q148.13228 566.5579 149.03072 565.94855Q149.92915 565.3392 151.05415 565.0267Q151.88228 564.8079 153.55415 564.6048Q156.9604 564.19855 158.56978 563.63605Q158.5854 563.0579 158.5854 562.9017Q158.5854 561.1829 157.78853 560.4798Q156.7104 559.5267 154.5854 559.5267Q152.60103 559.5267 151.65572 560.222Q150.7104 560.9173 150.25728 562.6829L147.50728 562.3079Q147.88228 560.5423 148.74165 559.45636Q149.60103 558.3704 151.22603 557.7845Q152.85103 557.19855 154.99165 557.19855Q157.11665 557.19855 158.44478 557.69855Q159.7729 558.19855 160.3979 558.95636Q161.0229 559.7142 161.2729 560.8704Q161.41353 561.5892 161.41353 563.4642L161.41353 567.2142Q161.41353 571.13605 161.59322 572.1751Q161.7729 573.2142 162.30415 574.1673L159.36665 574.1673Q158.92915 573.2923 158.80415 572.1204ZM158.56978 565.8392Q157.03853 566.4642 153.97603 566.9017Q152.24165 567.1517 151.5229 567.4642Q150.80415 567.7767 150.41353 568.37823Q150.0229 568.9798 150.0229 569.7142Q150.0229 570.8392 150.87447 571.5892Q151.72603 572.3392 153.36665 572.3392Q154.99165 572.3392 156.25728 571.62823Q157.5229 570.9173 158.11665 569.6829Q158.56978 568.7298 158.56978 566.8704L158.56978 565.8392ZM165.74165 574.1673L165.74165 557.57355L168.2729 557.57355L168.2729 560.0892Q169.24165 558.32355 170.06197 557.76105Q170.88228 557.19855 171.86665 557.19855Q173.28853 557.19855 174.75728 558.1048L173.78853 560.7142Q172.75728 560.1048 171.72603 560.1048Q170.80415 560.1048 170.06978 560.6595Q169.3354 561.2142 169.0229 562.19855Q168.55415 563.69855 168.55415 565.4798L168.55415 574.1673L165.74165 574.1673ZM175.91353 575.5423L178.6479 575.94855Q178.81978 577.2142 179.60103 577.7923Q180.6479 578.57355 182.4604 578.57355Q184.41353 578.57355 185.47603 577.7923Q186.53853 577.01105 186.91353 575.6048Q187.13228 574.7454 187.11665 571.9954Q185.2729 574.1673 182.5229 574.1673Q179.10103 574.1673 177.22603 571.69855Q175.35103 569.2298 175.35103 565.7767Q175.35103 563.4017 176.2104 561.39386Q177.06978 559.38605 178.70259 558.2923Q180.3354 557.19855 182.53853 557.19855Q185.47603 557.19855 187.38228 559.57355L187.38228 557.57355L189.97603 557.57355L189.97603 571.9173Q189.97603 575.7923 189.18697 577.4095Q188.3979 579.0267 186.68697 579.9642Q184.97603 580.9017 182.47603 580.9017Q179.50728 580.9017 177.67915 579.56573Q175.85103 578.2298 175.91353 575.5423ZM178.24165 565.57355Q178.24165 568.8392 179.53853 570.3392Q180.8354 571.8392 182.78853 571.8392Q184.72603 571.8392 186.03853 570.347Q187.35103 568.8548 187.35103 565.6673Q187.35103 562.6204 185.99947 561.07355Q184.6479 559.5267 182.74165 559.5267Q180.86665 559.5267 179.55415 561.0501Q178.24165 562.57355 178.24165 565.57355ZM205.5854 568.82355L208.49165 569.1829Q207.80415 571.7298 205.94478 573.13605Q204.0854 574.5423 201.19478 574.5423Q197.55415 574.5423 195.42134 572.3001Q193.28853 570.0579 193.28853 566.01105Q193.28853 561.82355 195.44478 559.51105Q197.60103 557.19855 201.03853 557.19855Q204.36665 557.19855 206.47603 559.4642Q208.5854 561.7298 208.5854 565.8392Q208.5854 566.0892 208.56978 566.5892L196.19478 566.5892Q196.35103 569.32355 197.74165 570.7767Q199.13228 572.2298 201.2104 572.2298Q202.75728 572.2298 203.85103 571.4173Q204.94478 570.6048 205.5854 568.82355ZM196.35103 564.2767L205.61665 564.2767Q205.42915 562.1829 204.55415 561.13605Q203.2104 559.51105 201.06978 559.51105Q199.13228 559.51105 197.81197 560.8079Q196.49165 562.1048 196.35103 564.2767ZM218.16353 571.6517L218.56978 574.13605Q217.38228 574.38605 216.44478 574.38605Q214.91353 574.38605 214.06978 573.9017Q213.22603 573.4173 212.88228 572.62823Q212.53853 571.8392 212.53853 569.3079L212.53853 559.76105L210.47603 559.76105L210.47603 557.57355L212.53853 557.57355L212.53853 553.4642L215.3354 551.7767L215.3354 557.57355L218.16353 557.57355L218.16353 559.76105L215.3354 559.76105L215.3354 569.4642Q215.3354 570.6673 215.48384 571.01105Q215.63228 571.3548 215.96822 571.5579Q216.30415 571.76105 216.92915 571.76105Q217.3979 571.76105 218.16353 571.6517Z" fill-rule="nonzero" fill="#000000"></path><path d="M70.25197 563.3523L104.614174 563.98224" fill-rule="nonzero" stroke="#000000" stroke-width="2.0" stroke-linejoin="round" stroke-linecap="butt"></path><path d="M105.897896 607.072L249.8979 607.072L249.8979 655.072L105.897896 655.072Z" fill-rule="nonzero" stroke="#073763" stroke-width="2.0" stroke-linejoin="round" stroke-linecap="butt"></path><path d="M119.554146 647.9314L119.554146 624.9783L122.116646 624.9783L122.116646 627.1345Q123.022896 625.8689 124.16352 625.2361Q125.304146 624.6033 126.929146 624.6033Q129.05415 624.6033 130.67915 625.697Q132.30415 626.7908 133.13228 628.78296Q133.9604 630.77515 133.9604 633.15015Q133.9604 635.697 133.04634 637.7361Q132.13228 639.77515 130.39009 640.8611Q128.6479 641.947 126.72602 641.947Q125.31977 641.947 124.20258 641.3533Q123.085396 640.7595 122.366646 639.8533L122.366646 647.9314L119.554146 647.9314ZM122.10102 633.3689Q122.10102 636.572 123.397896 638.1033Q124.69477 639.6345 126.53852 639.6345Q128.41353 639.6345 129.74947 638.0486Q131.0854 636.46265 131.0854 633.1345Q131.0854 629.96265 129.78072 628.3845Q128.47603 626.8064 126.66352 626.8064Q124.866646 626.8064 123.48383 628.4861Q122.10102 630.1658 122.10102 633.3689ZM136.30415 633.27515Q136.30415 628.6658 138.86665 626.447Q141.00728 624.6033 144.0854 624.6033Q147.50728 624.6033 149.67915 626.84546Q151.85103 629.08765 151.85103 633.0408Q151.85103 636.2439 150.89009 638.07983Q149.92915 639.9158 148.09322 640.9314Q146.25728 641.947 144.0854 641.947Q140.60103 641.947 138.45259 639.71265Q136.30415 637.4783 136.30415 633.27515ZM139.19478 633.27515Q139.19478 636.46265 140.5854 638.0486Q141.97603 639.6345 144.0854 639.6345Q146.17915 639.6345 147.56978 638.0408Q148.9604 636.447 148.9604 633.1814Q148.9604 630.1033 147.56197 628.51733Q146.16353 626.9314 144.0854 626.9314Q141.97603 626.9314 140.5854 628.5095Q139.19478 630.08765 139.19478 633.27515ZM155.1479 641.572L155.1479 624.9783L157.66353 624.9783L157.66353 627.3064Q158.44478 626.08765 159.74165 625.34546Q161.03853 624.6033 162.69478 624.6033Q164.53853 624.6033 165.71822 625.3689Q166.8979 626.1345 167.38228 627.5095Q169.35103 624.6033 172.50728 624.6033Q174.97603 624.6033 176.30415 625.97046Q177.63228 627.33765 177.63228 630.1814L177.63228 641.572L174.8354 641.572L174.8354 631.1189Q174.8354 629.4314 174.56197 628.6892Q174.28853 627.947 173.56978 627.4939Q172.85103 627.0408 171.88228 627.0408Q170.13228 627.0408 168.97603 628.20483Q167.81978 629.3689 167.81978 631.9314L167.81978 641.572L165.00728 641.572L165.00728 630.7908Q165.00728 628.9158 164.31978 627.9783Q163.63228 627.0408 162.06978 627.0408Q160.88228 627.0408 159.87447 627.6658Q158.86665 628.2908 158.41353 629.4939Q157.9604 630.697 157.9604 632.96265L157.9604 641.572L155.1479 641.572ZM182.60103 641.572L182.60103 638.3689L185.80415 638.3689L185.80415 641.572L182.60103 641.572ZM188.81978 641.572L194.88228 632.947L189.2729 624.9783L192.78853 624.9783L195.3354 628.8689Q196.05415 629.9783 196.49165 630.7283Q197.17915 629.697 197.75728 628.90015L200.55415 624.9783L203.91353 624.9783L198.17915 632.7908L204.35103 641.572L200.8979 641.572L197.49165 636.4158L196.5854 635.02515L192.22603 641.572L188.81978 641.572ZM206.69478 641.572L206.69478 624.9783L209.2104 624.9783L209.2104 627.3064Q209.99165 626.08765 211.28853 625.34546Q212.5854 624.6033 214.24165 624.6033Q216.0854 624.6033 217.26509 625.3689Q218.44478 626.1345 218.92915 627.5095Q220.8979 624.6033 224.05415 624.6033Q226.5229 624.6033 227.85103 625.97046Q229.17915 627.33765 229.17915 630.1814L229.17915 641.572L226.38228 641.572L226.38228 631.1189Q226.38228 629.4314 226.10884 628.6892Q225.8354 627.947 225.11665 627.4939Q224.3979 627.0408 223.42915 627.0408Q221.67915 627.0408 220.5229 628.20483Q219.36665 629.3689 219.36665 631.9314L219.36665 641.572L216.55415 641.572L216.55415 630.7908Q216.55415 628.9158 215.86665 627.9783Q215.17915 627.0408 213.61665 627.0408Q212.42915 627.0408 211.42134 627.6658Q210.41353 628.2908 209.9604 629.4939Q209.50728 630.697 209.50728 632.96265L209.50728 641.572L206.69478 641.572ZM233.28853 641.572L233.28853 618.6658L236.10103 618.6658L236.10103 641.572L233.28853 641.572Z" fill-rule="nonzero" fill="#000000"></path><path d="M70.25197 630.7571L104.614174 631.387" fill-rule="nonzero" stroke="#000000" stroke-width="2.0" stroke-linejoin="round" stroke-linecap="butt"></path><path d="M0 0.42927954L205.10236 0.42927954L205.10236 48.42928L0 48.42928Z" fill-rule="nonzero" fill="#f4cccc" stroke="#660000" stroke-width="2.0" stroke-linejoin="round" stroke-linecap="butt"></path><path d="M12.15625 41.288654L12.15625 18.33553L14.71875 18.33553L14.71875 20.49178Q15.625 19.226154 16.765625 18.593342Q17.90625 17.96053 19.53125 17.96053Q21.65625 17.96053 23.28125 19.05428Q24.90625 20.14803 25.734375 22.140217Q26.5625 24.132404 26.5625 26.507404Q26.5625 29.05428 25.648438 31.093342Q24.734375 33.132404 22.992188 34.21834Q21.25 35.30428 19.328125 35.30428Q17.921875 35.30428 16.804688 34.71053Q15.6875 34.11678 14.96875 33.21053L14.96875 41.288654L12.15625 41.288654ZM14.703125 26.726154Q14.703125 29.92928 16.0 31.46053Q17.296875 32.99178 19.140625 32.99178Q21.015625 32.99178 22.351562 31.405842Q23.6875 29.819904 23.6875 26.49178Q23.6875 23.319904 22.382812 21.74178Q21.078125 20.163654 19.265625 20.163654Q17.46875 20.163654 16.085938 21.843342Q14.703125 23.52303 14.703125 26.726154ZM29.921875 34.92928L29.921875 18.33553L32.453125 18.33553L32.453125 20.851154Q33.421875 19.08553 34.242188 18.52303Q35.0625 17.96053 36.046875 17.96053Q37.46875 17.96053 38.9375 18.86678L37.96875 21.476154Q36.9375 20.86678 35.90625 20.86678Q34.984375 20.86678 34.25 21.421467Q33.515625 21.976154 33.203125 22.96053Q32.734375 24.46053 32.734375 26.24178L32.734375 34.92928L29.921875 34.92928ZM39.5625 26.632404Q39.5625 22.02303 42.125 19.80428Q44.265625 17.96053 47.34375 17.96053Q50.765625 17.96053 52.9375 20.202717Q55.109375 22.444904 55.109375 26.39803Q55.109375 29.601154 54.148438 31.437092Q53.1875 33.27303 51.351562 34.288654Q49.515625 35.30428 47.34375 35.30428Q43.859375 35.30428 41.710938 33.069904Q39.5625 30.83553 39.5625 26.632404ZM42.453125 26.632404Q42.453125 29.819904 43.84375 31.405842Q45.234375 32.99178 47.34375 32.99178Q49.4375 32.99178 50.828125 31.39803Q52.21875 29.80428 52.21875 26.538654Q52.21875 23.46053 50.820312 21.874592Q49.421875 20.288654 47.34375 20.288654Q45.234375 20.288654 43.84375 21.86678Q42.453125 23.444904 42.453125 26.632404ZM58.390625 15.288654L58.390625 12.023029L61.203125 12.023029L61.203125 15.288654L58.390625 15.288654ZM54.828125 41.36678L55.359375 38.976154Q56.203125 39.194904 56.6875 39.194904Q57.546875 39.194904 57.96875 38.62459Q58.390625 38.05428 58.390625 35.77303L58.390625 18.33553L61.203125 18.33553L61.203125 35.83553Q61.203125 38.89803 60.40625 40.101154Q59.390625 41.663654 57.03125 41.663654Q55.890625 41.663654 54.828125 41.36678ZM76.875 29.58553L79.78125 29.944904Q79.09375 32.49178 77.234375 33.89803Q75.375 35.30428 72.484375 35.30428Q68.84375 35.30428 66.71094 33.06209Q64.578125 30.819904 64.578125 26.77303Q64.578125 22.58553 66.734375 20.27303Q68.890625 17.96053 72.328125 17.96053Q75.65625 17.96053 77.765625 20.226154Q79.875 22.49178 79.875 26.601154Q79.875 26.851154 79.859375 27.351154L67.484375 27.351154Q67.640625 30.08553 69.03125 31.538654Q70.421875 32.99178 72.5 32.99178Q74.046875 32.99178 75.140625 32.17928Q76.234375 31.36678 76.875 29.58553ZM67.640625 25.038654L76.90625 25.038654Q76.71875 22.944904 75.84375 21.89803Q74.5 20.27303 72.359375 20.27303Q70.421875 20.27303 69.10156 21.569904Q67.78125 22.86678 67.640625 25.038654ZM94.140625 28.851154L96.90625 29.21053Q96.453125 32.069904 94.58594 33.68709Q92.71875 35.30428 90.0 35.30428Q86.59375 35.30428 84.52344 33.077717Q82.453125 30.851154 82.453125 26.694904Q82.453125 24.007404 83.34375 21.99178Q84.234375 19.976154 86.05469 18.968342Q87.875 17.96053 90.015625 17.96053Q92.71875 17.96053 94.4375 19.327717Q96.15625 20.694904 96.640625 23.21053L93.90625 23.632404Q93.515625 21.96053 92.52344 21.11678Q91.53125 20.27303 90.125 20.27303Q88.0 20.27303 86.671875 21.796467Q85.34375 23.319904 85.34375 26.61678Q85.34375 29.96053 86.625 31.476154Q87.90625 32.99178 89.96875 32.99178Q91.625 32.99178 92.734375 31.976154Q93.84375 30.96053 94.140625 28.851154ZM105.453125 32.413654L105.859375 34.89803Q104.671875 35.14803 103.734375 35.14803Q102.203125 35.14803 101.359375 34.663654Q100.515625 34.17928 100.171875 33.390217Q99.828125 32.601154 99.828125 30.069904L99.828125 20.52303L97.765625 20.52303L97.765625 18.33553L99.828125 18.33553L99.828125 14.226154L102.625 12.538654L102.625 18.33553L105.453125 18.33553L105.453125 20.52303L102.625 20.52303L102.625 30.226154Q102.625 31.42928 102.77344 31.77303Q102.921875 32.11678 103.25781 32.319904Q103.59375 32.52303 104.21875 32.52303Q104.6875 32.52303 105.453125 32.413654ZM117.09375 34.92928L117.09375 12.023029L119.90625 12.023029L119.90625 20.24178Q121.875 17.96053 124.875 17.96053Q126.71875 17.96053 128.07812 18.687092Q129.4375 19.413654 130.02344 20.694904Q130.60938 21.976154 130.60938 24.413654L130.60938 34.92928L127.796875 34.92928L127.796875 24.413654Q127.796875 22.30428 126.88281 21.343342Q125.96875 20.382404 124.296875 20.382404Q123.046875 20.382404 121.94531 21.030842Q120.84375 21.67928 120.375 22.788654Q119.90625 23.89803 119.90625 25.851154L119.90625 34.92928L117.09375 34.92928ZM133.84375 26.632404Q133.84375 22.02303 136.40625 19.80428Q138.54688 17.96053 141.625 17.96053Q145.04688 17.96053 147.21875 20.202717Q149.39062 22.444904 149.39062 26.39803Q149.39062 29.601154 148.42969 31.437092Q147.46875 33.27303 145.63281 34.288654Q143.79688 35.30428 141.625 35.30428Q138.14062 35.30428 135.99219 33.069904Q133.84375 30.83553 133.84375 26.632404ZM136.73438 26.632404Q136.73438 29.819904 138.125 31.405842Q139.51562 32.99178 141.625 32.99178Q143.71875 32.99178 145.10938 31.39803Q146.5 29.80428 146.5 26.538654Q146.5 23.46053 145.10156 21.874592Q143.70312 20.288654 141.625 20.288654Q139.51562 20.288654 138.125 21.86678Q136.73438 23.444904 136.73438 26.632404ZM152.6875 34.92928L152.6875 18.33553L155.20312 18.33553L155.20312 20.663654Q155.98438 19.444904 157.28125 18.702717Q158.57812 17.96053 160.23438 17.96053Q162.07812 17.96053 163.25781 18.726154Q164.4375 19.49178 164.92188 20.86678Q166.89062 17.96053 170.04688 17.96053Q172.51562 17.96053 173.84375 19.327717Q175.17188 20.694904 175.17188 23.538654L175.17188 34.92928L172.375 34.92928L172.375 24.476154Q172.375 22.788654 172.10156 22.046467Q171.82812 21.30428 171.10938 20.851154Q170.39062 20.39803 169.42188 20.39803Q167.67188 20.39803 166.51562 21.562092Q165.35938 22.726154 165.35938 25.288654L165.35938 34.92928L162.54688 34.92928L162.54688 24.14803Q162.54688 22.27303 161.85938 21.33553Q161.17188 20.39803 159.60938 20.39803Q158.42188 20.39803 157.41406 21.02303Q156.40625 21.64803 155.95312 22.851154Q155.5 24.05428 155.5 26.319904L155.5 34.92928L152.6875 34.92928ZM190.70312 29.58553L193.60938 29.944904Q192.92188 32.49178 191.0625 33.89803Q189.20312 35.30428 186.3125 35.30428Q182.67188 35.30428 180.53906 33.06209Q178.40625 30.819904 178.40625 26.77303Q178.40625 22.58553 180.5625 20.27303Q182.71875 17.96053 186.15625 17.96053Q189.48438 17.96053 191.59375 20.226154Q193.70312 22.49178 193.70312 26.601154Q193.70312 26.851154 193.6875 27.351154L181.3125 27.351154Q181.46875 30.08553 182.85938 31.538654Q184.25 32.99178 186.32812 32.99178Q187.875 32.99178 188.96875 32.17928Q190.0625 31.36678 190.70312 29.58553ZM181.46875 25.038654L190.73438 25.038654Q190.54688 22.944904 189.67188 21.89803Q188.32812 20.27303 186.1875 20.27303Q184.25 20.27303 182.92969 21.569904Q181.60938 22.86678 181.46875 25.038654Z" fill-rule="nonzero" fill="#000000"></path></svg>

