<?xml version="1.0" encoding="UTF-8" standalone="no"?>
<!DOCTYPE svg PUBLIC "-//W3C//DTD SVG 1.1//EN"
 "http://www.w3.org/Graphics/SVG/1.1/DTD/svg11.dtd">
<!-- Generated by graphviz version 2.40.1 (20161225.0304)
 -->
<!-- Title: QtechNG repository Pages: 1 -->
<svg width="424pt" height="427pt"
 viewBox="0.00 0.00 424.00 427.00" xmlns="http://www.w3.org/2000/svg" xmlns:xlink="http://www.w3.org/1999/xlink">
<g id="graph0" class="graph" transform="scale(1 1) rotate(0) translate(4 423)">
<title>QtechNG repository</title>
<polygon fill="#ffffff" stroke="transparent" points="-4,4 -4,-423 420,-423 420,4 -4,4"/>
<text text-anchor="middle" x="208" y="-403.8" font-family="Times,serif" font-size="14.00" fill="#000000">QtechNG repository</text>
<!-- version -->
<g id="node1" class="node">
<title>version</title>
<polygon fill="none" stroke="#000000" points="235,-396 181,-396 181,-360 235,-360 235,-396"/>
<text text-anchor="middle" x="208" y="-374.3" font-family="Times,serif" font-size="14.00" fill="#000000">5.20</text>
</g>
<!-- admin -->
<g id="node2" class="node">
<title>admin</title>
<polygon fill="none" stroke="#000000" points="54,-324 0,-324 0,-288 54,-288 54,-324"/>
<text text-anchor="middle" x="27" y="-302.3" font-family="Times,serif" font-size="14.00" fill="#000000">admin</text>
</g>
<!-- version&#45;&gt;admin -->
<g id="edge1" class="edge">
<title>version&#45;&gt;admin</title>
<path fill="none" stroke="#000000" d="M180.9334,-368.8953C151.5471,-358.7855 103.4022,-341.5636 63,-324 60.1803,-322.7742 57.2664,-321.4381 54.374,-320.0657"/>
</g>
<!-- meta -->
<g id="node3" class="node">
<title>meta</title>
<polygon fill="none" stroke="#000000" points="126,-324 72,-324 72,-288 126,-288 126,-324"/>
<text text-anchor="middle" x="99" y="-302.3" font-family="Times,serif" font-size="14.00" fill="#000000">meta</text>
</g>
<!-- version&#45;&gt;meta -->
<g id="edge2" class="edge">
<title>version&#45;&gt;meta</title>
<path fill="none" stroke="#000000" d="M180.7759,-360.0171C164.1289,-349.0209 142.9074,-335.0031 126.2548,-324.0032"/>
</g>
<!-- objects -->
<g id="node4" class="node">
<title>objects</title>
<polygon fill="none" stroke="#000000" points="199.5,-324 144.5,-324 144.5,-288 199.5,-288 199.5,-324"/>
<text text-anchor="middle" x="172" y="-302.3" font-family="Times,serif" font-size="14.00" fill="#000000">objects</text>
</g>
<!-- version&#45;&gt;objects -->
<g id="edge3" class="edge">
<title>version&#45;&gt;objects</title>
<path fill="none" stroke="#000000" d="M198.9157,-359.8314C193.5,-349 186.6438,-335.2876 181.2066,-324.4133"/>
</g>
<!-- source -->
<g id="node8" class="node">
<title>source</title>
<polygon fill="none" stroke="#000000" points="272,-324 218,-324 218,-288 272,-288 272,-324"/>
<text text-anchor="middle" x="245" y="-302.3" font-family="Times,serif" font-size="14.00" fill="#000000">source</text>
</g>
<!-- version&#45;&gt;source -->
<g id="edge4" class="edge">
<title>version&#45;&gt;source</title>
<path fill="none" stroke="#000000" d="M217.3367,-359.8314C222.9028,-349 229.9494,-335.2876 235.5376,-324.4133"/>
</g>
<!-- tmp -->
<g id="node14" class="node">
<title>tmp</title>
<polygon fill="none" stroke="#000000" points="344,-324 290,-324 290,-288 344,-288 344,-324"/>
<text text-anchor="middle" x="317" y="-302.3" font-family="Times,serif" font-size="14.00" fill="#000000">tmp</text>
</g>
<!-- version&#45;&gt;tmp -->
<g id="edge5" class="edge">
<title>version&#45;&gt;tmp</title>
<path fill="none" stroke="#000000" d="M235.2241,-360.0171C251.8711,-349.0209 273.0926,-335.0031 289.7452,-324.0032"/>
</g>
<!-- unique -->
<g id="node15" class="node">
<title>unique</title>
<polygon fill="none" stroke="#000000" points="416,-324 362,-324 362,-288 416,-288 416,-324"/>
<text text-anchor="middle" x="389" y="-302.3" font-family="Times,serif" font-size="14.00" fill="#000000">unique</text>
</g>
<!-- version&#45;&gt;unique -->
<g id="edge6" class="edge">
<title>version&#45;&gt;unique</title>
<path fill="none" stroke="#000000" d="M235.0666,-368.8953C264.4529,-358.7855 312.5978,-341.5636 353,-324 355.8197,-322.7742 358.7336,-321.4381 361.626,-320.0657"/>
</g>
<!-- i4 -->
<g id="node5" class="node">
<title>i4</title>
<polygon fill="none" stroke="#000000" points="56,-252 2,-252 2,-216 56,-216 56,-252"/>
<text text-anchor="middle" x="29" y="-230.3" font-family="Times,serif" font-size="14.00" fill="#000000">i4</text>
</g>
<!-- objects&#45;&gt;i4 -->
<g id="edge7" class="edge">
<title>objects&#45;&gt;i4</title>
<path fill="none" stroke="#000000" d="M144.4282,-292.1177C118.9438,-279.2864 81.3035,-260.3346 56.0022,-247.5955"/>
</g>
<!-- m4 -->
<g id="node6" class="node">
<title>m4</title>
<polygon fill="none" stroke="#000000" points="128,-252 74,-252 74,-216 128,-216 128,-252"/>
<text text-anchor="middle" x="101" y="-230.3" font-family="Times,serif" font-size="14.00" fill="#000000">m4</text>
</g>
<!-- objects&#45;&gt;m4 -->
<g id="edge9" class="edge">
<title>objects&#45;&gt;m4</title>
<path fill="none" stroke="#000000" d="M154.0837,-287.8314C143.4028,-277 129.8808,-263.2876 119.1575,-252.4133"/>
</g>
<!-- l4 -->
<g id="node7" class="node">
<title>l4</title>
<polygon fill="none" stroke="#000000" points="200,-252 146,-252 146,-216 200,-216 200,-252"/>
<text text-anchor="middle" x="173" y="-230.3" font-family="Times,serif" font-size="14.00" fill="#000000">l4</text>
</g>
<!-- objects&#45;&gt;l4 -->
<g id="edge8" class="edge">
<title>objects&#45;&gt;l4</title>
<path fill="none" stroke="#000000" d="M172.2523,-287.8314C172.4028,-277 172.5932,-263.2876 172.7443,-252.4133"/>
</g>
<!-- data -->
<g id="node9" class="node">
<title>data</title>
<polygon fill="none" stroke="#000000" points="272,-252 218,-252 218,-216 272,-216 272,-252"/>
<text text-anchor="middle" x="245" y="-230.3" font-family="Times,serif" font-size="14.00" fill="#000000">data</text>
</g>
<!-- source&#45;&gt;data -->
<g id="edge10" class="edge">
<title>source&#45;&gt;data</title>
<path fill="none" stroke="#000000" d="M245,-287.8314C245,-277 245,-263.2876 245,-252.4133"/>
</g>
<!-- hg -->
<g id="node10" class="node">
<title>hg</title>
<polygon fill="none" stroke="#000000" points="344,-252 290,-252 290,-216 344,-216 344,-252"/>
<text text-anchor="middle" x="317" y="-230.3" font-family="Times,serif" font-size="14.00" fill="#000000">.hg</text>
</g>
<!-- source&#45;&gt;hg -->
<g id="edge11" class="edge">
<title>source&#45;&gt;hg</title>
<path fill="none" stroke="#000000" d="M263.1686,-287.8314C274,-277 287.7124,-263.2876 298.5867,-252.4133"/>
</g>
<!-- core -->
<g id="node13" class="node">
<title>core</title>
<polygon fill="none" stroke="#000000" points="272,-180 218,-180 218,-144 272,-144 272,-180"/>
<text text-anchor="middle" x="245" y="-158.3" font-family="Times,serif" font-size="14.00" fill="#000000">core</text>
</g>
<!-- data&#45;&gt;core -->
<g id="edge12" class="edge">
<title>data&#45;&gt;core</title>
<path fill="none" stroke="#000000" d="M245,-215.8314C245,-205 245,-191.2876 245,-180.4133"/>
</g>
<!-- python3 -->
<g id="node11" class="node">
<title>python3</title>
<polygon fill="none" stroke="#000000" points="237.5,-108 176.5,-108 176.5,-72 237.5,-72 237.5,-108"/>
<text text-anchor="middle" x="207" y="-86.3" font-family="Times,serif" font-size="14.00" fill="#000000">python3</text>
</g>
<!-- bjson -->
<g id="node16" class="node">
<title>bjson</title>
<ellipse fill="none" stroke="#000000" cx="151" cy="-18" rx="55.7903" ry="18"/>
<text text-anchor="middle" x="151" y="-14.3" font-family="Times,serif" font-size="14.00" fill="#000000">brocade.json</text>
</g>
<!-- python3&#45;&gt;bjson -->
<g id="edge15" class="edge">
<title>python3&#45;&gt;bjson</title>
<path fill="none" stroke="#000000" d="M192.8688,-71.8314C184.3149,-60.8334 173.4505,-46.865 164.9327,-35.9134"/>
</g>
<!-- basepy -->
<g id="node17" class="node">
<title>basepy</title>
<ellipse fill="none" stroke="#000000" cx="263" cy="-18" rx="37.8943" ry="18"/>
<text text-anchor="middle" x="263" y="-14.3" font-family="Times,serif" font-size="14.00" fill="#000000">base.py</text>
</g>
<!-- python3&#45;&gt;basepy -->
<g id="edge16" class="edge">
<title>python3&#45;&gt;basepy</title>
<path fill="none" stroke="#000000" d="M221.1312,-71.8314C229.9444,-60.5001 241.21,-46.0157 249.8351,-34.9263"/>
</g>
<!-- python -->
<g id="node12" class="node">
<title>python</title>
<polygon fill="none" stroke="#000000" points="310,-108 256,-108 256,-72 310,-72 310,-108"/>
<text text-anchor="middle" x="283" y="-86.3" font-family="Times,serif" font-size="14.00" fill="#000000">python</text>
</g>
<!-- core&#45;&gt;python3 -->
<g id="edge13" class="edge">
<title>core&#45;&gt;python3</title>
<path fill="none" stroke="#000000" d="M235.411,-143.8314C229.6945,-133 222.4573,-119.2876 216.7181,-108.4133"/>
</g>
<!-- core&#45;&gt;python -->
<g id="edge14" class="edge">
<title>core&#45;&gt;python</title>
<path fill="none" stroke="#000000" d="M254.589,-143.8314C260.3055,-133 267.5427,-119.2876 273.2819,-108.4133"/>
</g>
</g>
</svg>
