<?xml version="1.0" standalone="no"?>
<!DOCTYPE svg PUBLIC "-//W3C//DTD SVG 20010904//EN"
 "http://www.w3.org/TR/2001/REC-SVG-20010904/DTD/svg10.dtd">
<svg version="1.0" xmlns="http://www.w3.org/2000/svg"
 width="1280.000000pt" height="867.000000pt" viewBox="0 0 1280.000000 867.000000"
 preserveAspectRatio="xMidYMid meet">
<metadata>
Created by potrace 1.15, written by Peter Selinger 2001-2017
</metadata>
<g transform="translate(0.000000,867.000000) scale(0.100000,-0.100000)"
fill="#000000" stroke="none">
<path d="M11451 8644 c-65 -33 -102 -85 -109 -154 -7 -74 5 -117 45 -161 44
-49 74 -65 135 -74 l47 -7 95 -174 c91 -167 94 -175 84 -211 -12 -43 -5 -98
19 -147 l16 -34 -204 -331 -204 -331 -40 0 c-23 0 -62 -11 -92 -26 l-51 -27
-315 182 -315 182 -4 61 -3 61 101 115 100 115 76 1 c68 1 81 4 119 31 118 83
119 256 1 340 -81 56 -204 44 -268 -27 -45 -49 -57 -87 -52 -167 l5 -76 -90
-102 c-49 -57 -94 -103 -101 -103 -6 1 -35 6 -63 13 -50 12 -57 18 -148 127
-71 85 -94 120 -90 135 24 92 12 156 -43 217 -45 50 -85 68 -152 68 -67 0
-107 -18 -152 -68 -73 -81 -76 -189 -6 -268 47 -53 99 -76 168 -73 l59 2 85
-102 c47 -57 86 -105 86 -107 0 -3 -9 -22 -20 -44 -13 -26 -20 -59 -20 -99 l0
-59 -316 -182 c-290 -167 -317 -181 -333 -166 -67 61 -202 61 -272 0 -14 -12
-58 10 -355 182 -354 204 -366 212 -360 223 3 4 0 26 -5 49 l-9 42 94 107 94
106 75 1 c67 1 80 4 118 31 63 44 91 104 87 182 -13 215 -295 268 -393 74 -13
-26 -16 -53 -14 -111 l4 -78 -88 -101 c-76 -86 -92 -101 -110 -95 -12 4 -39 8
-61 9 -37 1 -43 7 -137 120 -91 110 -98 122 -92 150 37 147 -53 275 -194 275
-70 0 -109 -17 -155 -68 -73 -81 -76 -189 -6 -268 47 -54 99 -76 169 -73 l60
3 89 -108 c50 -60 90 -111 90 -115 -1 -3 -9 -31 -20 -61 l-19 -55 -338 -196
c-283 -164 -342 -194 -361 -187 -31 11 -119 10 -140 -1 -14 -7 -68 35 -272
216 -140 124 -274 242 -298 262 l-43 37 12 45 c12 44 13 45 134 109 l122 64
51 -22 c93 -40 186 -21 249 51 115 131 21 335 -156 339 -103 3 -196 -80 -208
-184 l-5 -43 -110 -58 -109 -58 -35 31 c-19 16 -39 30 -44 30 -6 0 -10 62 -10
154 0 144 1 155 19 161 11 3 35 23 55 45 77 85 74 203 -8 284 -97 98 -248 80
-320 -38 -57 -91 -33 -213 53 -274 l38 -27 7 -149 c7 -134 6 -150 -9 -159 -10
-5 -31 -22 -48 -37 l-31 -28 -157 78 -156 79 -7 49 c-7 57 -35 102 -89 146
-36 29 -45 31 -116 31 -67 0 -83 -4 -118 -27 -50 -33 -93 -114 -93 -172 1
-151 157 -247 300 -185 l48 21 173 -89 c173 -88 173 -88 200 -141 15 -30 36
-60 46 -68 37 -30 99 -54 143 -54 44 -1 49 -4 354 -274 l310 -274 -3 -54 c-3
-69 20 -128 65 -168 19 -16 39 -30 44 -30 6 0 10 -243 10 -660 l0 -660 -27
-11 c-25 -9 -31 -5 -103 73 -67 72 -76 86 -69 106 27 71 -13 183 -80 228 -159
105 -363 -29 -322 -212 24 -105 112 -169 226 -162 l60 3 76 -80 76 -80 -6 -58
-6 -59 -334 -193 -335 -193 -33 27 -33 26 0 574 0 573 45 40 c31 27 50 55 62
90 l18 50 122 61 123 61 31 -18 c18 -11 58 -20 93 -23 50 -3 69 1 106 20 147
77 146 292 -2 368 -42 22 -126 27 -169 11 -68 -26 -119 -95 -128 -172 l-6 -45
-110 -56 -110 -57 -26 22 c-14 11 -33 26 -42 31 -13 8 -16 36 -18 159 l-3 149
41 28 c98 68 113 224 29 311 -130 136 -355 44 -356 -145 0 -28 8 -64 19 -86
20 -38 83 -101 101 -101 6 0 10 -62 10 -154 l0 -154 -35 -22 c-19 -12 -39 -28
-43 -37 -7 -12 -36 -1 -169 69 l-161 83 -5 48 c-16 174 -248 241 -362 106 -36
-44 -47 -74 -46 -136 1 -154 159 -249 300 -181 l45 22 173 -90 173 -89 24 -52
c16 -33 39 -62 64 -80 l39 -28 6 -224 c4 -123 7 -383 7 -576 l0 -353 -29 -12
c-28 -11 -45 -3 -393 198 -442 255 -418 221 -271 387 l97 110 44 -3 c125 -9
232 88 232 210 -1 122 -117 222 -235 203 -124 -19 -206 -143 -171 -258 l13
-45 -55 -64 c-30 -34 -69 -79 -87 -99 l-33 -37 -48 16 c-38 12 -57 13 -98 5
l-51 -11 -78 77 c-74 73 -77 79 -67 105 45 120 -62 265 -198 266 -163 1 -264
-181 -176 -317 47 -71 134 -109 214 -92 34 8 38 5 116 -74 l81 -82 -6 -60 -6
-60 -300 -173 c-165 -95 -319 -184 -342 -198 l-42 -24 29 77 c69 190 62 177
101 184 117 19 197 150 159 263 -37 113 -170 175 -278 131 -126 -53 -169 -223
-81 -321 19 -20 18 -22 -29 -150 -38 -101 -52 -130 -67 -131 -15 -2 -43 27
-105 108 -83 108 -85 112 -82 160 8 135 -82 239 -208 239 -113 0 -209 -94
-210 -206 0 -58 42 -136 92 -170 37 -26 50 -29 127 -30 l85 0 74 -92 74 -92
-18 -38 c-26 -51 -25 -136 2 -187 11 -22 39 -53 62 -70 l41 -30 0 -415 1 -415
-80 80 -80 80 11 40 c24 87 -30 197 -115 236 -143 65 -311 -54 -293 -207 13
-122 131 -210 245 -183 37 9 38 8 119 -76 54 -55 81 -89 77 -99 -3 -8 -6 -34
-7 -58 l-2 -42 -344 -199 c-317 -183 -346 -198 -368 -186 l-23 12 0 573 0 574
25 16 c28 18 69 84 78 124 5 20 30 37 131 87 l125 63 33 -19 c136 -78 307 23
308 182 0 81 -54 159 -132 191 -124 52 -271 -39 -280 -172 l-3 -43 -111 -57
-111 -56 -31 26 c-17 14 -35 28 -40 30 -5 1 -12 72 -15 156 l-6 152 27 14
c129 67 137 265 14 350 -59 42 -147 47 -212 14 -141 -73 -147 -292 -9 -364
l29 -15 0 -154 c0 -93 -4 -155 -10 -155 -5 0 -26 -15 -46 -32 l-37 -33 -156
82 -156 81 -6 45 c-20 134 -147 217 -270 176 -169 -57 -195 -286 -42 -376 62
-36 139 -38 200 -6 l43 23 174 -91 174 -90 26 -54 c19 -38 40 -63 70 -82 l43
-28 6 -410 c4 -225 7 -477 7 -560 l0 -150 -28 -16 -28 -16 -367 211 -367 211
2 37 c3 30 20 55 98 145 l95 109 56 -4 c156 -11 267 157 195 298 -64 127 -234
151 -332 47 -54 -56 -71 -112 -55 -180 6 -27 11 -52 11 -57 0 -5 -37 -51 -82
-102 -62 -70 -87 -92 -103 -89 -11 2 -57 4 -103 5 l-83 2 -75 75 c-71 71 -74
77 -64 103 27 72 -13 179 -88 231 -38 26 -53 30 -110 30 -53 0 -75 -5 -105
-24 -148 -92 -137 -296 20 -368 47 -22 64 -24 112 -19 l58 7 76 -84 c42 -46
74 -87 71 -90 -3 -2 -5 -27 -6 -53 l0 -49 -350 -202 -349 -203 -27 20 c-29 21
-107 41 -127 34 -19 -8 -208 235 -198 255 4 9 8 45 10 81 3 53 -1 72 -19 105
-76 131 -266 140 -352 17 -21 -30 -31 -57 -34 -96 -11 -133 76 -228 210 -228
l58 0 58 -71 c118 -146 117 -143 97 -173 -9 -14 -19 -53 -23 -86 l-7 -61 -115
-79 c-75 -51 -119 -76 -130 -72 -125 54 -241 19 -295 -89 -29 -59 -31 -97 -10
-158 53 -150 246 -186 352 -66 34 38 53 91 53 144 0 30 8 38 122 114 94 63
125 79 137 72 14 -9 16 -60 19 -421 l2 -410 -35 -22 c-19 -12 -46 -41 -60 -64
l-25 -43 -98 -6 c-53 -4 -122 -7 -153 -7 -54 0 -57 1 -82 39 -32 49 -113 91
-174 91 -100 0 -191 -81 -201 -180 -7 -75 4 -113 49 -164 81 -92 207 -97 294
-12 23 22 44 48 47 56 4 12 33 15 169 17 l164 2 32 -37 31 -37 -39 -250 c-21
-138 -38 -253 -39 -257 0 -4 -17 -16 -38 -27 -67 -35 -112 -102 -112 -169 l0
-39 -146 -77 -146 -78 -48 21 c-236 102 -416 -214 -204 -357 46 -32 53 -34
120 -30 114 5 176 61 199 177 l11 53 142 75 142 75 46 -22 c64 -32 148 -25
206 16 109 77 119 243 19 327 l-30 25 35 228 c18 126 36 239 39 251 3 14 21
29 50 42 l45 20 359 -207 359 -207 5 -50 5 -50 -100 -101 -101 -102 -58 5
c-154 14 -263 -111 -225 -259 18 -67 84 -132 149 -146 94 -19 190 26 235 108
21 40 23 54 18 116 l-6 71 103 95 102 95 57 -5 c31 -2 70 0 86 6 28 10 31 7
119 -98 l91 -108 -13 -49 c-44 -169 124 -315 281 -244 141 64 167 251 49 348
-43 36 -112 56 -159 47 -33 -6 -36 -3 -132 113 -98 117 -99 118 -94 163 l5 45
358 207 359 206 41 -19 c46 -21 121 -25 163 -9 25 10 56 -6 358 -176 415 -235
406 -229 406 -256 0 -41 42 -110 85 -140 l43 -30 -5 -152 c-5 -140 -7 -152
-27 -166 -140 -98 -131 -297 17 -366 62 -28 118 -30 172 -5 147 68 168 263 38
356 l-42 30 0 151 -1 150 43 31 c50 35 87 101 87 154 l0 34 362 209 c358 206
362 208 388 193 15 -9 44 -19 66 -23 37 -5 43 -12 112 -121 l73 -116 -17 -41
c-82 -205 159 -387 323 -243 146 128 54 366 -142 367 -27 0 -36 10 -97 105
l-67 105 24 37 c14 20 28 53 31 74 6 37 7 38 134 94 l127 56 48 -25 c185 -99
379 93 283 279 -88 168 -354 124 -386 -65 l-7 -44 -123 -55 -122 -54 -35 19
-35 19 0 417 c0 509 -14 477 153 365 l112 -74 1 -50 c2 -91 65 -167 160 -192
161 -42 305 132 235 284 -49 105 -159 149 -272 109 l-46 -17 -112 77 c-166
115 -184 90 240 335 l350 202 62 -25 61 -24 33 -88 34 -87 -20 -21 c-23 -24
-51 -97 -51 -131 0 -38 29 -108 58 -138 47 -50 97 -70 168 -65 80 5 133 40
169 111 32 65 32 119 0 184 -29 57 -80 98 -139 110 -38 8 -40 10 -72 96 l-34
88 31 39 31 38 852 1 852 2 25 -38 c15 -25 42 -47 76 -63 51 -25 51 -26 67
-93 9 -38 21 -98 28 -133 12 -65 12 -65 -16 -91 -62 -57 -82 -153 -47 -228 40
-88 110 -129 208 -123 51 3 69 9 100 34 77 62 106 139 83 223 -14 52 -72 118
-121 138 -44 17 -40 7 -69 155 l-24 116 34 39 c19 22 40 47 45 55 8 13 40 17
165 22 l155 7 16 -30 c9 -16 37 -41 63 -56 156 -92 353 52 307 225 -33 126
-170 194 -286 141 -37 -16 -86 -63 -110 -105 -8 -15 -34 -19 -160 -26 -111 -6
-151 -5 -154 3 -2 7 -25 33 -52 58 l-49 47 0 398 0 399 30 17 c17 10 43 38 58
63 l27 46 65 -5 c36 -3 98 -6 138 -6 60 0 75 -3 90 -21 65 -77 101 -108 137
-118 62 -17 97 -13 156 16 181 92 136 356 -66 388 -67 11 -124 -10 -177 -66
l-48 -49 -156 9 c-136 8 -158 11 -167 27 -6 10 -23 30 -39 44 l-28 26 28 135
28 134 40 18 c83 40 127 108 127 197 0 199 -260 278 -376 114 -33 -48 -45
-124 -27 -179 7 -21 28 -55 48 -77 l35 -39 -29 -140 -29 -140 -42 -19 -41 -18
-366 211 c-345 199 -366 213 -366 240 0 35 -20 84 -51 122 l-25 30 4 676 c4
648 5 676 23 687 16 10 32 1 119 -66 l100 -77 0 -55 c1 -123 93 -220 208 -220
50 0 136 43 164 83 49 69 52 176 6 242 -49 73 -152 109 -230 83 l-45 -16 -109
85 c-108 84 -109 85 -114 134 l-5 48 314 182 c256 147 318 179 331 170 70 -52
157 -64 225 -31 l41 20 362 -207 c308 -178 361 -211 362 -231 0 -13 7 -36 15
-52 15 -28 14 -29 -79 -141 l-95 -113 -63 -1 c-78 0 -130 -25 -175 -83 -63
-82 -53 -192 23 -268 146 -146 390 -9 344 194 l-11 52 98 120 98 119 53 2 c28
1 58 3 65 3 7 1 51 -42 99 -96 l85 -96 -5 -70 c-6 -89 8 -130 63 -181 80 -73
193 -77 272 -8 156 137 40 388 -167 364 l-45 -6 -85 100 c-76 89 -85 103 -83
136 2 20 6 40 10 44 5 4 161 96 348 203 206 119 346 194 355 190 35 -14 93
-16 134 -4 l45 12 337 -194 c332 -192 338 -196 349 -235 27 -92 89 -149 172
-162 l45 -6 209 -337 209 -337 -21 -41 c-16 -31 -20 -54 -17 -105 l3 -66 -105
-170 c-66 -106 -110 -167 -118 -164 -7 2 -36 0 -65 -6 -73 -16 -140 -83 -155
-154 -27 -128 57 -244 185 -253 49 -3 66 1 113 25 44 23 59 39 82 82 33 63 36
127 9 187 l-18 40 94 152 c91 145 96 150 119 141 14 -5 40 -9 58 -9 32 0 36
-5 109 -131 l75 -132 -19 -31 c-13 -21 -19 -49 -19 -91 0 -71 25 -122 83 -169
32 -26 48 -31 106 -34 54 -3 76 0 108 17 80 40 119 113 111 207 -8 100 -97
183 -195 184 l-41 0 -76 131 -75 131 19 36 c11 20 20 42 20 48 0 11 107 24
204 24 47 0 53 -3 69 -30 10 -16 39 -42 64 -57 113 -66 259 -10 301 116 45
130 -59 271 -198 271 -77 0 -132 -35 -190 -117 -13 -20 -29 -23 -150 -31
l-135 -9 -37 33 c-26 24 -54 37 -98 46 l-61 12 -205 332 c-186 302 -204 335
-192 353 12 20 22 21 160 21 137 0 147 -1 153 -20 19 -59 145 -120 217 -105
198 42 235 307 55 391 -62 28 -117 30 -172 5 -39 -17 -105 -81 -105 -101 0 -6
-57 -10 -140 -10 l-139 0 -16 31 c-19 35 -37 1 244 454 l149 240 45 6 c50 8
81 22 113 51 21 19 25 19 151 4 71 -9 134 -16 140 -16 7 0 15 -9 18 -21 11
-33 65 -89 108 -111 59 -29 150 -22 206 16 49 34 91 113 91 170 -1 77 -58 163
-127 192 -44 19 -127 18 -169 -2 -18 -9 -49 -33 -67 -53 l-33 -37 -122 15
-122 14 -10 36 c-6 20 -14 42 -19 50 -6 10 15 50 75 141 80 119 86 126 114
122 43 -6 122 24 158 61 86 89 81 223 -11 304 -132 115 -338 21 -340 -155 0
-33 6 -70 16 -87 l15 -31 -81 -127 -82 -127 -47 0 c-25 0 -52 -2 -60 -5 -9 -3
-41 47 -97 152 l-84 156 22 44 c40 82 24 178 -41 240 -69 67 -151 80 -237 37z
m-5770 -3885 l345 -199 12 -58 c14 -70 48 -121 96 -147 l36 -20 0 -412 c0
-392 -1 -412 -19 -418 -29 -9 -89 -74 -101 -109 -5 -17 -11 -47 -13 -66 -4
-35 -7 -37 -356 -239 l-353 -204 -34 16 c-55 27 -104 31 -154 12 -25 -9 -52
-18 -60 -21 -16 -5 -721 398 -732 418 -4 7 -10 29 -13 49 -7 48 -42 98 -88
128 l-37 24 0 412 0 411 30 17 c43 26 79 77 92 135 l12 51 358 206 359 207 39
-16 c56 -22 108 -20 160 8 25 13 52 21 60 19 8 -2 170 -94 361 -204z m2099
-26 c197 -114 357 -210 354 -214 -2 -4 1 -31 7 -61 9 -44 20 -62 65 -106 l54
-52 0 -394 0 -394 -34 -22 c-19 -11 -45 -37 -56 -56 l-22 -34 -858 0 c-845 0
-859 0 -865 20 -3 10 -26 37 -51 58 l-44 40 0 406 0 406 49 48 c36 34 53 60
62 93 l12 46 355 205 c354 204 356 205 385 190 44 -22 128 -19 174 6 21 11 42
21 46 21 4 1 169 -92 367 -206z m-5053 -1895 c145 -83 163 -96 163 -119 0 -70
51 -153 113 -185 l27 -15 0 -407 0 -408 -27 -16 c-56 -33 -86 -76 -104 -145
l-16 -67 -351 -203 -351 -203 -43 20 c-56 26 -130 26 -183 0 l-42 -20 -354
204 -354 204 -7 46 c-9 61 -49 129 -93 156 l-35 22 0 413 c0 403 1 414 20 420
35 11 88 84 101 139 l11 51 359 207 359 207 35 -15 c52 -21 125 -18 176 9 l43
23 196 -113 c107 -62 268 -154 357 -205z m1903 115 c328 -190 360 -210 360
-234 0 -65 48 -147 106 -181 l34 -20 0 -407 0 -406 -36 -20 c-48 -25 -85 -83
-99 -151 l-11 -55 -353 -204 -354 -204 -39 20 c-45 23 -124 27 -168 9 -16 -6
-35 -10 -42 -8 -8 1 -172 93 -366 203 -339 192 -352 200 -352 229 0 46 -39
115 -81 145 l-38 26 -1 414 0 414 41 35 c45 39 78 100 79 147 1 29 15 38 353
232 l353 202 39 -14 c60 -21 115 -18 165 9 25 13 46 24 48 25 1 0 165 -92 362
-206z m-1003 -1734 c186 -106 340 -193 341 -195 2 -1 0 -9 -5 -18 -7 -12 -63
16 -308 155 -408 231 -385 217 -379 234 4 8 8 15 10 15 2 0 155 -86 341 -191z"/>
</g>
</svg>
