<?xml version="1.0" encoding="utf-8"?>
<!-- Generator: Adobe Illustrator 16.0.3, SVG Export Plug-In . SVG Version: 6.00 Build 0)  -->
<!DOCTYPE svg PUBLIC "-//W3C//DTD SVG 1.1//EN" "http://www.w3.org/Graphics/SVG/1.1/DTD/svg11.dtd">
<svg version="1.1" id="Layer_1" xmlns="http://www.w3.org/2000/svg" xmlns:xlink="http://www.w3.org/1999/xlink" x="0px" y="0px"
	 width="346.309px" height="115.91px" viewBox="0 0 346.309 115.91" enable-background="new 0 0 346.309 115.91"
	 xml:space="preserve">
<g>
	
		<path fill="#FFFFFF" stroke="#000000" stroke-width="0.709" stroke-linecap="round" stroke-linejoin="round" stroke-miterlimit="500" d="
		M324.354,115.555c11.929,0,21.601-9.671,21.601-21.601v-72c0-5.728-2.275-11.223-6.326-15.273
		c-4.052-4.051-9.545-6.327-15.272-6.327H21.954c-11.929,0-21.599,9.671-21.599,21.6v72c0,11.93,9.67,21.601,21.599,21.601H324.354z
		"/>
	<g>
		<path fill="none" d="M324.354,14.755h-286.2h-16.2c-3.976,0-7.2,3.224-7.2,7.2v72c0,3.978,3.224,7.199,7.2,7.199h302.399
			c3.977,0,7.2-3.223,7.2-7.199v-72C331.555,17.979,328.33,14.755,324.354,14.755z"/>
		<path d="M324.354,5.755H21.954c-8.947,0-16.2,7.253-16.2,16.2v72c0,8.946,7.253,16.199,16.2,16.199h302.399
			c8.945,0,16.2-7.253,16.2-16.199v-72C340.555,13.008,333.3,5.755,324.354,5.755z M331.555,93.955c0,3.978-3.225,7.199-7.199,7.199
			h-302.4c-3.976,0-7.2-3.223-7.2-7.199v-72c0-3.976,3.224-7.2,7.2-7.2h302.4c3.976,0,7.199,3.224,7.199,7.2V93.955z"/>
	</g>
	<g>
		<polygon points="97.036,40.055 103.337,40.055 103.337,84.154 109.888,84.154 109.888,40.055 116.189,40.055 116.189,33.754 
			97.036,33.754 		"/>
		<polygon points="181.979,33.754 175.425,33.754 175.425,84.154 194.577,84.154 194.577,78.107 181.979,78.107 		"/>
		<polygon points="157.527,33.754 150.974,33.754 150.974,84.154 170.127,84.154 170.127,78.107 157.527,78.107 		"/>
		<path d="M128.792,33.754l-10.332,50.4h6.688l2.738-13.355h8.363l2.739,13.355h6.688l-10.332-50.4H128.792z M129.229,64.248
			l2.839-13.848l2.838,13.848H129.229z"/>
		<path d="M83.928,33.049c-5.382,0-9.815,4.229-10.068,9.606c-0.273,5.8,1.968,11.436,6.149,15.466
			c4.437,4.274,6.943,10.171,6.943,16.332c0,2.227-1.805,4.031-4.031,4.031c-2.227,0-4.033-1.805-4.033-4.031V71.68h-6.551v2.772
			c0,5.846,4.738,10.584,10.584,10.584c5.845,0,10.584-4.738,10.584-10.584c0-7.941-3.231-15.541-8.95-21.051
			c-2.822-2.719-4.335-6.524-4.15-10.439c0.091-1.946,1.743-3.45,3.69-3.358c1.881,0.088,3.362,1.64,3.362,3.524v1.764h6.552v-1.764
			C94.009,37.562,89.495,33.049,83.928,33.049z"/>
		<rect x="29.73" y="33.754" width="6.552" height="50.4"/>
		<polygon points="59.729,59.458 51.521,33.754 44.609,33.754 44.609,84.154 51.161,84.154 51.161,54.167 60.737,84.154 
			66.281,84.154 66.281,33.754 59.729,33.754 		"/>
		<path d="M274.002,33.28c-3.732,0.825-6.65,3.743-7.477,7.477c-2.66,12.045-2.66,24.526,0,36.573
			c1.17,5.299,6.416,8.646,11.716,7.476c3.737-0.824,6.653-3.742,7.479-7.476c2.658-12.047,2.658-24.528,0-36.573
			C284.548,35.458,279.305,32.11,274.002,33.28z M279.32,75.916c-0.274,1.244-1.246,2.217-2.492,2.492
			c-1.766,0.389-3.514-0.726-3.905-2.492c-2.454-11.115-2.454-22.63,0-33.746c0.276-1.245,1.247-2.217,2.492-2.492
			c1.767-0.39,3.517,0.726,3.905,2.492C281.775,53.285,281.775,64.8,279.32,75.916z"/>
		<polygon points="310.026,33.754 310.026,59.458 301.818,33.754 294.906,33.754 294.906,84.154 301.457,84.154 301.457,54.167 
			311.033,84.154 316.577,84.154 316.577,33.754 		"/>
		<path d="M207.182,33.754l-10.332,50.4h6.687l2.739-13.355h8.363l2.737,13.355h6.688l-10.332-50.4H207.182z M207.618,64.248
			l2.838-13.848l2.839,13.848H207.618z"/>
		<polygon points="226.334,33.754 226.334,40.055 232.636,40.055 232.636,84.154 239.188,84.154 239.188,40.055 245.486,40.055 
			245.486,33.754 		"/>
		<rect x="250.786" y="33.754" width="6.552" height="50.4"/>
	</g>
</g>
</svg>
