<?xml version="1.0"?><svg width="640" height="480" xmlns="http://www.w3.org/2000/svg">
 <g>
  <title>Layer 1</title>
  <path fill="#000000" stroke="#000000" stroke-width="5" id="svg_1" d="m332.5,384c1,0 1.5,0 2,0c0.5,0 1,0.5 1.5,0.5c0.5,0 1,0 1.5,0c0.5,0 1.5,-0.5 2,-0.5c0.5,0 1.146454,-0.353546 1.5,0c0.353546,0.353546 0,1 0,1.5c0,0.5 0,1 0,1.5c0,0.5 0,1 0,2c0,0.5 0,1.5 0,2c0,0.5 -0.5,0.5 -1,0.5c-0.5,0 -1,0 -2,0c-0.5,0 -1.248108,0.046112 -1.5,-2c-0.061096,-0.496246 0,-1 0,-1.5l0,-0.5l0,-0.5l-0.5,0"/>
  <path fill="#000000" stroke="#000000" stroke-width="5" id="svg_2" d="m336,388.5c0,-0.5 -0.5,-0.5 -0.5,-1l-0.5,0"/>
  <path fill="#000000" stroke="#000000" stroke-width="5" id="svg_3" d="m331,370c0.5,0.5 2,1.5 2.5,1.5c0.5,0 1,0 1.5,0c0.5,0 1,0 1.5,0c0.5,0 0.646454,-0.646454 1,-1c0.353546,-0.353546 1.229401,0.15329 1.5,-0.5c0.191345,-0.461945 0.5,-0.5 1,-0.5c0.5,0 0.646454,-0.146454 1,-0.5c0.353546,-0.353546 0,-1 0,-1.5c0,-0.5 0,-1 0,-1.5c0,-0.5 0,-1 0,-1.5c0,-0.5 0,-1 0,-1.5c0,-1 0.191345,-1.538055 0,-2c-0.270599,-0.65329 -0.5,-1 -0.5,-1.5c0,-0.5 -0.229401,-0.84671 -0.5,-1.5c-0.191345,-0.461945 -0.146454,-0.646454 -0.5,-1c-0.353546,-0.353546 -0.538055,-0.191345 -1,0c-0.65329,0.270599 -1,0.5 -1.5,0.5c-0.5,0 -1.146454,-0.353546 -1.5,0c-0.353546,0.353546 -0.646454,0.146454 -1,0.5c-0.353546,0.353546 0,1 0,1.5c0,0.5 0,1 0,2c0,0.5 -0.5,1 -0.5,1.5c0,0.5 -0.5,1 -0.5,1.5c0,0.5 0,1 0,1.5c0,0.5 -0.5,0.5 -1,0.5c-0.5,0 -0.5,0.5 -1,0.5c-0.5,0 0,-1 0,-1.5c0,-0.5 0.398499,-0.628265 1,-1c1.345001,-0.831268 1.538055,-0.808655 2,-1c0.65329,-0.270599 0.5,-1 0.5,-1.5c0,-0.5 -0.5,-0.5 -0.5,-1c0,-0.5 -0.353546,-1.146454 0,-1.5c0.353546,-0.353546 0.538055,-0.308655 1,-0.5c0.65329,-0.270599 0.5,-1 1,-1c0.5,0 0.646454,-0.146454 1,-0.5c0.353546,-0.353546 1,0 1,-0.5c0,-0.5 -0.146454,-1.353546 -0.5,-1c-0.353546,0.353546 0,1 0,1.5c0,0.5 0,1 0,1.5c0,0.5 0,1 0,4c0,0.5 0,1 0,1.5c0,0.5 0.353546,1.146454 0,1.5c-0.353546,0.353546 -0.5,0.5 -0.5,1c0,0.5 -0.646454,1.353546 -1,1c-0.353546,-0.353546 -0.385132,-1.013367 -0.5,-1.5c-0.256866,-1.088135 -0.808655,-1.538055 -1,-2c-0.270599,-0.65329 -1,-0.5 -1,-1l-0.5,0l-0.5,-0.5l-0.5,0"/>
  <path fill="#000000" stroke="#000000" stroke-width="5" id="svg_4" d="m335.5,361c-0.5,0 -0.5,0.5 -1,0.5c-0.5,0 -1.646454,0.146454 -2,0.5c-0.353546,0.353546 -0.5,1 -0.5,1.5c0,0.5 -0.229401,0.84671 -0.5,1.5c-0.191345,0.461945 0,1 0,1.5c0,0.5 0,1 0,1.5c0,0.5 0,1 0,1.5l0,0.5l-0.5,-0.5"/>
  <path fill="#000000" stroke="#000000" stroke-width="5" id="svg_5" d="m357.5,300.5c0.5,0.5 0.646454,1.146454 1,1.5c0.353546,0.353546 1,0 1.5,0c0.5,0 0.5,0.5 1.5,0.5c1,0 1.5,0 1.5,0.5l0.5,0"/>
  <polyline fill="none" stroke="#000000" stroke-width="5" stroke-linecap="round" points="363.5,303 364,303" id="svg_6"/>
  <path fill="#000000" stroke="#000000" stroke-width="5" id="svg_7" d="m364,303c0.5,0 0.5,-0.5 0.5,-1c0,-0.5 0,-1.5 0,-2c0,-0.5 0,-1 0,-1.5c0,-1 0,-1.5 0,-2c0,-0.5 -0.146454,-0.646454 -0.5,-1c-0.707092,-0.707092 -0.146454,-1.146454 -0.5,-1.5c-0.353546,-0.353546 -0.5,-0.5 -1,-0.5c-0.5,0 -0.646454,-0.146454 -1,-0.5c-0.353546,-0.353546 -0.5,-0.5 -0.5,-1c0,-0.5 -0.5,-0.5 -0.5,-1c0,-0.5 0,-1 -0.5,-1c-0.5,0 -0.5,1 -0.5,1.5c0,0.5 0,1 0,1.5c0,0.5 -0.5,0.5 -0.5,1.5c0,0.5 0,1 0,1.5c0,1.5 0,2 0,2.5c0,0.5 0.353546,1.146454 0,1.5c-0.353546,0.353546 -0.5,0.5 0,0.5c0.5,0 1,0 1.5,0c0.5,0 1,0 2,0c0.5,0 1,0 1.5,0c0.5,0 0.5,-0.5 0.5,-1c0,-0.5 0.5,-0.5 1,-0.5c0.5,0 0.646454,0.853546 1,0.5c0.353546,-0.353546 0,-1 -0.5,-1.5c-0.5,-0.5 -0.146454,-1.146454 -0.5,-1.5c-0.353546,-0.353546 -0.729401,-0.34671 -1,-1c-0.191345,-0.461945 -0.146454,-1.146454 -0.5,-1.5c-0.353546,-0.353546 -1.146454,-0.146454 -1.5,-0.5c-0.353546,-0.353546 -0.5,-0.5 -1,-1c-0.5,-0.5 -0.646454,-0.646454 -1,-1c-0.353546,-0.353546 0,-1 -0.5,-1c-0.5,0 -0.5,0.5 -0.5,1c0,0.5 -0.292908,0.292908 -1,1c-0.353546,0.353546 0,1 0,1.5c0,0.5 -0.5,0.5 -0.5,1c0,0.5 0,1 0,1.5c0,0.5 0,1 0,2c0,0.5 0,1 0,1.5l0,0.5"/>
  <path fill="#000000" stroke="#000000" stroke-width="5" id="svg_8" d="m362,299c-0.5,0 -0.5,-0.5 -0.5,-1c0,-0.5 0,-1 0,-2c0,-0.5 -0.353546,-1.146454 0,-1.5c0.353546,-0.353546 0.5,0.5 1,1c0.5,0.5 1,1 1.5,1.5c0.5,0.5 1,1.5 1,2l0.5,0l0,0.5l0,0.5"/>
  <path fill="#000000" stroke="#000000" stroke-width="5" id="svg_9" d="m361,302.5c-0.5,0 -0.646454,-0.146454 -1,-0.5c-0.353546,-0.353546 -0.646454,-0.146454 -1,-0.5c-0.353546,-0.353546 -1.146454,0.353546 -1.5,0c-0.353546,-0.353546 -0.5,-0.5 -0.5,-1c0,-0.5 0.191345,-1.038055 0,-1.5c-0.270599,-0.65329 -0.5,-1 -0.5,-1.5c0,-0.5 0,-1 0,-1.5c0,-0.5 0,-1 0,-1.5c0,-0.5 0.146454,-0.646454 0.5,-1c0.353546,-0.353546 0.538055,-0.308655 1,-0.5c0.65329,-0.270599 1,-0.5 1,-1c0,-0.5 0.5,-0.5 0.5,-1c0,-0.5 0.5,-0.5 1,-0.5c0.5,0 1.229401,-0.15329 1.5,0.5c0.191345,0.461945 0.146454,0.646454 0.5,1c0.353546,0.353546 1,0.5 1.5,0.5l0.5,0l0.5,0"/>
  <path fill="#000000" stroke="#000000" stroke-width="5" id="svg_10" d="m360.5,316c0.5,0 1,0 1,-0.5c0,-0.5 0.5,-0.5 1,-0.5c0.5,0 1,0 1.5,0c0.5,0 0.5,0.5 1,0.5c0.5,0 1.146454,-0.353546 1.5,0c0.353546,0.353546 0,1 0,1.5c0,0.5 -0.538055,0.308655 -1,0.5c-0.65329,0.270599 -1.229401,0.34671 -1.5,1c-0.191345,0.461945 -0.146454,0.646454 -0.5,1c-0.353546,0.353546 0,1 -0.5,1c-0.5,0 -1.146454,0.353546 -1.5,0c-0.353546,-0.353546 -0.146454,-0.646454 -0.5,-1c-0.353546,-0.353546 -0.34671,-1.229401 -1,-1.5c-0.461945,-0.191345 -0.770599,0.15329 -0.5,-0.5c0.191345,-0.461945 0,-1 0,-1.5l0,-0.5l0,-0.5l0,0.5"/>
  <path fill="#000000" stroke="#000000" stroke-width="5" id="svg_11" d="m365,321c1,0 1.5,-0.5 2,-0.5l0,-0.5l0,-0.5"/>
  <path fill="#000000" stroke="#000000" stroke-width="5" id="svg_12" d="m362,316c-0.5,0 -0.5,-0.5 -1,-0.5l-0.5,0"/>
  <path fill="#000000" stroke="#000000" stroke-width="5" id="svg_13" d="m329.5,246.5c-0.5,0.5 -1,1 -1,1.5c0,0.5 0.207092,0.792892 -0.5,1.5c-0.353546,0.353546 -0.538055,0.308655 -1,0.5c-0.65329,0.270599 -1,0.5 -1.5,0.5c-0.5,0 -1.146454,-0.353546 -1.5,0c-0.353546,0.353546 -0.5,1 -0.5,1.5c0,0.5 -0.146454,0.646454 -0.5,1c-0.353546,0.353546 0,1 0,1.5c0,0.5 0,1 0,1.5c0,0.5 0.146454,0.646454 0.5,1c0.353546,0.353546 1.34671,0.729401 2,1c0.461945,0.191345 0.84671,0.729401 1.5,1c0.461945,0.191345 0.646454,0.853546 1,0.5c0.353546,-0.353546 0.5,-0.5 0.5,-1c0,-0.5 0,-1 0.5,-1.5c0.5,-0.5 1,-0.5 1.5,-0.5c0.5,0 1.146454,-0.146454 1.5,-0.5c0.353546,-0.353546 0.146454,-0.646454 0.5,-1c0.707092,-0.707108 1,-0.5 1,-1c0,-0.5 0,-1 0,-1.5c0,-0.5 0,-1 0,-1.5c0,-0.5 0.353546,-1.146454 0,-1.5c-0.353546,-0.353546 -0.5,-0.5 -1,-0.5c-0.5,0 -0.646454,-0.646454 -1,-1c-0.353546,-0.353546 -0.292908,-0.292892 -1,-1c-0.353546,-0.353546 -0.646454,-0.146454 -1,-0.5c-0.353546,-0.353546 -1,0 -1,0.5c0,0.5 -0.146454,1.646454 -0.5,2c-0.353546,0.353546 -0.5,0.5 -0.5,1c0,0.5 0,1 0,2c0,0.5 -0.5,1 -0.5,1.5c0,0.5 0,1 0,1.5c0,0.5 0.5,0.5 1,0.5c0.5,0 0.5,-1 0.5,-1.5c0,-0.5 0,-1 0,-1.5c0,-0.5 -0.353546,-1.146454 0,-1.5c0.353546,-0.353546 0.5,-0.5 0.5,0c0,1 0,3 0,4c0,0.5 0,1 0,1.5l0,0.5l-0.5,0"/>
  <path fill="#000000" stroke="#000000" stroke-width="5" id="svg_14" d="m324,250c0,-0.5 0.013367,-0.885117 0.5,-1c1.088135,-0.256866 1.5,-0.5 2,-0.5c0.5,0 0.646454,-0.146454 1,-0.5c0.353546,-0.353546 1.5,-1 1,-1c-0.5,0 -0.146454,0.646454 -0.5,1c-0.707092,0.707108 -3.243134,1.41188 -3.5,2.5c-0.114868,0.486618 -0.5,0.5 -0.5,1.5c0,0.5 -0.5,1 -0.5,1.5c0,0.5 -0.5,0.5 -0.5,1c0,0.5 0,1 0,1.5c0,0.5 -0.146454,1.353546 -0.5,1c-0.353546,-0.353546 0.353546,-1.146454 0,-1.5c-0.353546,-0.353546 -0.5,0.5 -0.5,1l0,0.5l0,0.5"/>
  <path fill="#000000" stroke="#000000" stroke-width="5" id="svg_15" d="m322,274.5c0,-0.5 -0.353546,-1.146454 0,-1.5c0.353546,-0.353546 0.729401,-0.34671 1,-1c0.191345,-0.461945 0.5,-0.5 1,-0.5c0.5,0 1,0 2,1c0.5,0.5 1,0.5 1.5,0.5c0.5,0 0.5,0.5 0.5,1c0,0.5 -0.646454,0.646454 -1,1c-0.353546,0.353546 -0.5,0.5 -1,0.5c-0.5,0 -0.5,0.5 -1,0.5c-0.5,0 -0.5,0.5 -1,0.5c-0.5,0 -1,0 -1,-0.5l-0.5,0l-0.5,-0.5"/>
  <path fill="#000000" stroke="#000000" stroke-width="5" id="svg_16" d="m322.5,275c0,-0.5 -0.5,-0.5 -1,-0.5c-0.5,0 -1.45105,0.412201 -0.5,1c0.425323,0.262878 1,0 1,0.5l0.5,0l0.5,0l0.5,0.5"/>
  <path fill="#000000" stroke="#000000" stroke-width="5" id="svg_17" d="m326.5,277.5c0,-0.5 -0.538055,-0.308655 -1,-0.5c-0.65329,-0.270599 -1,-0.5 -1.5,-0.5c-0.5,0 -1,0 -1.5,0l-0.5,0l-0.5,0"/>
  <path fill="#000000" stroke="#000000" stroke-width="5" id="svg_18" d="m354.5,192.5c-0.5,0 -1.146454,-0.353546 -1.5,0c-0.353546,0.353546 -0.264069,0.559158 -0.5,1c-0.850647,1.589462 -2,1.5 -2,2c0,0.5 0,1 0,1.5c0,0.5 0.308655,0.538055 0.5,1c0.270599,0.653275 0.5,1 0.5,1.5c0,0.5 0,1 0,1.5c0,1 0.025665,2.841888 0.5,3c2.371704,0.790573 2.646454,1.146454 3,1.5c0.353546,0.353546 0.5,0.5 1,0.5c0.5,0 0.646454,-0.146454 1,-0.5c0.353546,-0.353546 0.729401,-0.346725 1,-1c0.191345,-0.461945 -0.191345,-1.038055 0,-1.5c0.270599,-0.653275 1,-0.5 1,-1c0,-0.5 -0.5,-1.5 -0.5,-2c0,-0.5 -0.146454,-0.646454 -0.5,-1c-0.353546,-0.353546 -0.229401,-0.846725 -0.5,-1.5c-0.191345,-0.461945 0,-1 0,-1.5c0,-0.5 0.191345,-1.038055 0,-1.5c-0.270599,-0.653275 -1,-1 -1.5,-1c-0.5,0 -0.729401,0.346725 -1,1c-0.191345,0.461945 0,1 0,1.5c0,0.5 0,1 0,2c0,0.5 0.146454,0.646454 0.5,1c0.353546,0.353546 -0.353546,1.146454 0,1.5c0.353546,0.353546 0.308655,0.538055 0.5,1c0.270599,0.653275 0.5,1.5 0.5,2c0,0.5 0,1 0,1.5l0,0.5l0,0.5"/>
  <path fill="#000000" stroke="#000000" stroke-width="5" id="svg_19" d="m353.5,218.5c0.5,0 0.646454,-0.146454 1,-0.5c0.353546,-0.353546 1,0 1.5,0c0.5,0 1,0 1.5,0c0.5,0 0.146454,0.646454 0.5,1c0.353546,0.353546 0.5,0.5 0.5,1c0,0.5 0,1 0,1.5c0,0.5 0,1 -0.5,1c-0.5,0 -1,0 -1,-0.5c0,-0.5 -0.34671,-0.729401 -1,-1c-0.461945,-0.191345 -0.853546,-0.646454 -0.5,-1c0.353546,-0.353546 1,0 1.5,0c0.5,0 0.5,-0.5 1,-0.5l0,-0.5l0.5,0l0,-0.5"/>
  <path fill="#000000" stroke="#000000" stroke-width="5" id="svg_20" d="m358,221c-1,-0.5 -1,-1 -1.5,-1c-0.5,0 -1,-0.5 -1.5,-0.5l0,-0.5l-0.5,0"/>
  <path fill="#000000" stroke="#000000" stroke-width="5" id="svg_21" d="m355,218c0,-0.5 -0.5,-0.5 -0.5,0l-0.5,0l0,0.5"/>
  <path fill="#000000" stroke="#000000" stroke-width="5" id="svg_22" d="m314.5,177c0,-0.5 0,-1 0,-1.5c0,-0.5 0,-1 0,-1.5c0,-0.5 0,-1 0,-1.5c0,-0.5 -0.353546,-1.146454 0,-1.5c0.353546,-0.353546 0.5,-1 0.5,-1.5c0,-0.5 0.146454,-0.646454 0.5,-1c0.353546,-0.353546 0,-1 0.5,-1c0.5,0 0.5,-0.5 1,-0.5c0.5,0 0.5,-0.5 1,-0.5c0.5,0 0.646454,-0.146454 1,-0.5c0.353546,-0.353546 0.729401,-0.346725 1,-1c0.191345,-0.461945 0.729401,-0.653275 1,0c0.191345,0.461945 0,1 0,1.5c0,0.5 0.146454,0.646454 0.5,1c0.353546,0.353546 0,1 0,1.5c0,0.5 0,1 0,1.5c0,0.5 0.146454,0.646454 0.5,1c0.353546,0.353546 0.5,0.5 0.5,1c0,0.5 -0.5,1 -0.5,1.5c0,0.5 -0.5,0.5 -0.5,1c0,0.5 0,1 0,1.5c0,0.5 -0.5,0.5 -1,0.5c-0.5,0 -0.84671,-0.729401 -1.5,-1c-0.461945,-0.191345 -1.229401,-0.846725 -1.5,-1.5c-0.191345,-0.461945 -0.306549,-1.458801 1,-2c0.461945,-0.191345 0.646454,-0.146454 1,-0.5c0.353546,-0.353546 0.646454,-0.146454 1,-0.5c0.353546,-0.353546 0.146454,-0.646454 0.5,-1c0.353546,-0.353546 0,-1 0.5,-1.5l0,-0.5l0.5,-0.5"/>
  <path fill="#000000" stroke="#000000" stroke-width="5" id="svg_23" d="m321.5,185.5c-0.5,0 -1,0 -1.5,0c-0.5,0 -1.538055,-0.191345 -2,0c-0.65329,0.270599 -0.646454,0.646454 -1,1c-0.353546,0.353546 -0.646454,0.146454 -1,0.5c-0.353546,0.353546 -0.5,0.5 -0.5,1c0,0.5 0.646454,0.146454 1,0.5c0.353546,0.353546 0.5,0.5 1,0.5c0.5,0 1,0 1.5,0c0.5,0 1,0 1.5,0l0,-0.5l0,-0.5"/>
  <path fill="#000000" stroke="#000000" stroke-width="5" id="svg_24" d="m320,172.5c-0.5,0 -0.538055,-0.308655 -1,-0.5c-0.65329,-0.270599 -1.229401,-0.346725 -1.5,-1c-0.191345,-0.461945 -0.5,-0.5 -0.5,-1l0.5,-0.5"/>
  <path fill="#000000" stroke="#000000" stroke-width="5" id="svg_25" d="m318.5,169.5c0.5,-0.5 1,-0.5 1.5,-0.5l0.5,0"/>
  <path fill="#000000" stroke="#000000" stroke-width="5" id="svg_26" d="m320.5,169.5c0,0.5 -0.538055,1.308655 -1,1.5c-0.65329,0.270599 -0.43927,1.246735 -2,1.5c-0.49353,0.080093 -0.5,-0.5 -0.5,-1c0,-0.5 -0.353546,-1.146454 0,-1.5c0.353546,-0.353546 1,0 1.5,0c0.5,0 1,0 1.5,0l0.5,0"/>
  <path fill="#000000" stroke="#000000" stroke-width="5" id="svg_27" d="m333,137.5c0,0.5 0,1 0,1.5c0,1 -0.114868,1.513382 0,2c0.256866,1.08812 1.5,1 2,1c0.5,0 1,0.5 1.5,0.5c0.5,0 0.646454,0.146454 1,0.5c0.353546,0.353546 0.5,0.5 0.5,1c0,0.5 0,1 0,1.5c0,1 -0.353546,1.646454 0,2c0.353546,0.353546 1,0 1.5,0c0.5,0 0.84671,-0.229401 1.5,-0.5c0.461945,-0.191345 0.61731,-0.076126 1,-1c0.270599,-0.653275 0.646454,-1.146454 1,-1.5c0.353546,-0.353546 0.646454,-0.146454 1,-0.5c0.353546,-0.353546 0.309692,-1.721756 -2.5,-2.5c-0.481873,-0.133469 -2.5,-1.5 -3,-2c-0.5,-0.5 -1.146454,-0.146454 -1.5,-0.5c-0.353546,-0.353546 -0.5,-0.5 -1.5,-0.5c-0.5,0 -0.5,-0.5 -1,-0.5c-0.5,0 -0.5,0.5 -0.5,1c0,0.5 0,1 0,1.5c0,1 -0.353546,1.646454 0,2c0.353546,0.353546 1,0.5 1.5,0.5c0.5,0 1,0.5 1.5,0.5c0.5,0 0.646454,0.146454 1,0.5c0.353546,0.353546 -0.353546,1.146454 0,1.5c0.353546,0.353546 0.646454,0.146454 1,0.5c0.353546,0.353546 1.5,0 2,0c0.5,0 0.5,-1 1,-1c0.5,0 0.538055,-0.808655 1,-1c0.65329,-0.270599 1,-0.5 1,-1c0,-0.5 0.15329,-1.229401 -0.5,-1.5c-0.461945,-0.191345 -0.646454,-0.146454 -1,-0.5c-0.707092,-0.707108 -1.308655,-0.038055 -1.5,-0.5c-0.270599,-0.653275 -1.146454,-1.146454 -1.5,-1.5c-0.353546,-0.353546 -0.5,-0.5 -0.5,-1l-0.5,0l-0.5,0"/>
  <path fill="#000000" stroke="#000000" stroke-width="5" id="svg_28" d="m348,156c0.5,0 1,-0.5 1.5,-0.5c0.5,0 1,-0.5 1.5,-0.5c0.5,0 1.146454,-0.146454 1.5,-0.5c0.353546,-0.353546 0,-1 -0.5,-1c-0.5,0 -1,0 -1.5,0c-0.5,0 -1.146454,-0.353546 -1.5,0c-0.353546,0.353546 -0.353546,1.146454 0,1.5c0.353546,0.353546 0.146454,1.146454 0.5,1.5c0.353546,0.353546 0.5,0.5 1,0.5c0.5,0 0.5,0.5 1,0.5c0.5,0 1,0 1,-0.5c0,-0.5 0,-1 0,-1.5l0,-0.5l0.5,0"/>
  <path fill="#000000" stroke="#000000" stroke-width="5" id="svg_29" d="m342,146c-0.5,0 -1,0 -2,0c-0.5,0 -1,0 -1.5,0c-0.5,0 -0.84671,-0.229401 -1.5,-0.5c-0.461945,-0.191345 -0.5,-0.5 -0.5,-1l0,-0.5l-0.5,-0.5"/>
  <path fill="#000000" stroke="#000000" stroke-width="5" id="svg_30" d="m323.5,278c0,-0.5 -0.146454,-1.146454 -0.5,-1.5c-0.353546,-0.353546 -0.646454,-0.146454 -1,-0.5c-0.353546,-0.353546 -0.5,-0.5 -1,-0.5l-0.5,0l0,0.5l0,0.5"/>
  <path fill="#000000" stroke="#000000" stroke-width="5" id="svg_31" d="m285.5,110.5c0,0.5 0,1 0,1.5c0,0.5 0.191345,1.038063 0,1.5c-0.270599,0.653282 -0.5,1 -0.5,1.5l0,0.5"/>
  <path fill="#000000" stroke="#000000" stroke-width="5" id="svg_32" d="m286.5,125c0,-0.5 0.5,-0.5 0.5,-1c0,-0.5 -0.353546,-1.646446 0,-2c0.353546,-0.353554 0.5,-0.5 1,-0.5c0.5,0 1,0 1.5,0c0.5,0 1.146454,0.353554 1.5,0c0.353546,-0.353554 0,-1 0,-2c0,-0.5 0.191345,-1.038063 0,-1.5c-0.270599,-0.653282 -1.038055,-0.308647 -1.5,-0.5c-0.65329,-0.270599 -0.646454,-0.646446 -1,-1c-0.353546,-0.353554 -0.729401,-0.346718 -1,-1c-0.191345,-0.461937 -0.229401,-0.846718 -0.5,-1.5c-0.191345,-0.461937 0.15329,-1.229401 -0.5,-1.5c-0.461945,-0.191353 -0.5,-0.5 -1,-0.5c-0.5,0 -1,0 -1.5,0c-0.5,0 -1,0 -1.5,0c-0.5,0 -0.5,0.5 -0.5,1c0,0.5 0.146454,0.646446 0.5,1c0.353546,0.353554 0.146454,1.146446 0.5,1.5c0.353546,0.353554 0.939331,-0.560661 2,0.5c0.353546,0.353554 0.5,0.5 0.5,1c0,0.5 0,1 0,1.5c0,0.5 0,1 0,1.5c0,0.5 0,1 0.5,1l0,0.5l0.5,0"/>
  <path fill="#000000" stroke="#000000" stroke-width="5" id="svg_33" d="m290,117c0,-0.5 -0.5,-0.5 -0.5,-1l0,-0.5l-0.5,0l0,-0.5"/>
  <path fill="#000000" stroke="#000000" stroke-width="5" id="svg_34" d="m286.5,120.5c-0.5,0 -1,0 -1.5,0c-0.5,0 -1,0 -1,-0.5c0,-0.5 -0.5,-0.5 -0.5,-1l0,-0.5l0,-0.5l0,-0.5"/>
  <path fill="#000000" stroke="#000000" stroke-width="5" id="svg_35" d="m297.5,133c0.5,0 1,0 1.5,0c0.5,0 0.84671,-0.229401 1.5,-0.5c0.461945,-0.191345 1,-0.5 1,-1c0,-0.5 0.146454,-0.353546 0.5,0c0.353546,0.353546 0.5,0.5 0.5,1c0,0.5 0,1 0,1.5c0,0.5 0,1 0,1.5c0,0.5 0,1 0,1.5c0,0.5 -0.5,0.5 -1,0c-0.5,-0.5 -0.646454,-0.646454 -1,-1c-0.353546,-0.353546 -0.5,-0.5 -1,-0.5c-0.5,0 -0.646454,-0.646454 -1,-1c-0.353546,-0.353546 0,-1 0,-1.5c0,-0.5 0,-1 0.5,-1c0.5,0 0.646454,-0.646454 1,-1c0.707092,-0.707108 1.5,-0.5 2,-0.5c0.5,0 0.5,0.5 0.5,1l0.5,0.5l0,0.5"/>
  <path fill="#000000" stroke="#000000" stroke-width="5" id="svg_36" d="m307,94.5c0.5,0 1.146454,0.353554 1.5,0c0.353546,-0.353554 0.146454,-0.646446 0.5,-1c0.353546,-0.353554 0.729401,-0.346718 1,-1c0.191345,-0.461937 0.646454,-0.146446 1,-0.5c0.353546,-0.353554 0.5,-1 0.5,-0.5c0,0.5 0.5,0.5 0.5,1c0,0.5 -0.353546,1.146446 0,1.5c0.353546,0.353554 0.5,1.5 0.5,2c0,0.5 1.270599,0.346718 1,1c-0.191345,0.461937 -1,0 -1.5,0c-0.5,0 -1,0 -1.5,0c-0.5,0 0.146454,0.353554 0.5,0c0.353546,-0.353554 -0.074036,-0.614182 0.5,-2c0.270599,-0.653282 0.5,-1 0.5,-1.5l0,-0.5l0.5,0"/>
  <path fill="#000000" stroke="#000000" stroke-width="5" id="svg_37" d="m295.5,86.5c0.5,0 1.146454,0.353554 1.5,0c0.353546,-0.353554 0.308655,-0.538063 0.5,-1c0.270599,-0.653282 0.84671,-0.729401 1.5,-1c0.461945,-0.191353 0.808655,-0.538063 1,-1c0.270599,-0.653282 0.646454,-0.646446 1,-1c0.353546,-0.353554 0.646454,-0.146446 1,-0.5c0.353546,-0.353554 0,-1 -0.5,-1c-0.5,0 -1.146454,-0.146446 -1.5,-0.5c-0.707092,-0.707108 -1.5,0 -1.5,-0.5c0,-0.5 -0.146454,-0.646446 -0.5,-1c-0.353546,-0.353554 -1.146454,0.353554 -1.5,0c-0.353546,-0.353554 -0.34671,-0.729401 -1,-1c-0.461945,-0.191353 -0.5,-0.5 -1,-0.5c-0.5,0 -0.5,-0.5 -1,-0.5c-0.5,0 -0.646454,-0.146446 -1,-0.5c-0.707092,-0.707108 -1.5,0 -2,0c-0.5,0 -1.191345,0.038063 -1,0.5c0.270599,0.653282 0.693451,1.958801 2,2.5c0.461945,0.191353 0.538055,0.308647 1,0.5c0.65329,0.270599 1.146454,0.146446 1.5,0.5c0.353546,0.353554 0.5,0.5 0.5,1c0,0.5 0,1 0,1.5c0,0.5 0,1 0,1.5c0,0.5 0.146454,1.353554 0.5,1c0.353546,-0.353554 -0.207092,-0.792892 0.5,-1.5c0.353546,-0.353554 0.61731,-0.576118 1,-1.5c0.270599,-0.653282 1,-0.5 1.5,-0.5l0,-0.5l0.5,0"/>
  <path fill="#000000" stroke="#000000" stroke-width="5" id="svg_38" d="m302.5,80.5c-0.5,0 -1.146454,-0.146446 -1.5,-0.5c-0.353546,-0.353554 -0.538055,-0.308647 -1,-0.5c-0.65329,-0.270599 -1.013367,-0.385117 -1.5,-0.5c-1.088135,-0.256866 -1.34671,-0.729401 -2,-1c-0.461945,-0.191353 -1,-0.5 -1.5,-0.5c-0.5,0 -0.5,-0.5 -1,-0.5c-0.5,0 -1,0 -1.5,0c-0.5,0 -1,0 -1.5,0c-0.5,0 -1,0 -1,0.5c0,1.5 0,2 0,2.5c0,0.5 -0.353546,1.146446 0,1.5c0.353546,0.353554 1,0 1.5,0c0.5,0 1,0 1.5,0c0.5,0 0.5,0.5 1,0.5l0,0.5"/>
  <path fill="#000000" stroke="#000000" stroke-width="5" id="svg_39" d="m255,89c0.5,0 1,0 1.5,0c0.5,0 1.146454,-0.146446 1.5,-0.5c0.353546,-0.353554 0.229401,-0.846718 0.5,-1.5c0.191345,-0.461937 0,-1 0,-1.5c0,-0.5 0.229401,-1.153282 0.5,-0.5c0.191345,0.461937 0.308655,0.538063 0.5,1c0.270599,0.653282 0.926361,1.086548 1.5,1.5c0.906982,0.653732 1.146454,0.646446 1.5,1c0.353546,0.353554 0.5,0.5 0,0.5c-0.5,0 -1,0 -1.5,0c-0.5,0 -1.5,0 -2,0l-0.5,0l-0.5,0l0,0.5"/>
  <path fill="#000000" stroke="#000000" stroke-width="5" id="svg_40" d="m241,86.5c0.5,0 1,0 1.5,0c0.5,0 1.646454,-0.146446 2,-0.5c0.353546,-0.353554 0.729401,-0.346718 1,-1c0.191345,-0.461937 0.5,-1 0.5,-1.5c0,-0.5 0,-1 0,-1.5c0,-0.5 0,-1 0,-1.5c0,-0.5 -0.146454,-0.646446 -0.5,-1c-0.353546,-0.353554 -0.5,-1 -1,-1.5c-0.5,-0.5 -0.646454,-0.646446 -1,-1c-0.353546,-0.353554 -1,-0.5 -1.5,-0.5c-0.5,0 -0.646454,-0.146446 -1,-0.5c-0.353546,-0.353554 -0.646454,-0.146446 -1,-0.5c-0.353546,-0.353554 -0.646454,-0.146446 -1,-0.5c-0.707108,-0.707108 -1.5,0 -2,0c-0.5,0 -1.146454,0.353554 -1.5,0c-0.353546,-0.353554 -0.5,-0.5 -1,-0.5c-0.5,0 -1.146454,-0.353554 -1.5,0c-0.353546,0.353554 0,1 0,1.5c0,1 -0.191345,1.538063 0,2c0.270599,0.653282 0.898499,0.62825 1.5,1c2.689987,1.662514 3.5,3.5 3.5,4c0,0.5 0.346725,0.729401 1,1c0.461945,0.191353 1,0 2,0c0.5,0 1.086548,0.073631 1.5,-0.5c0.653732,-0.906998 0.853546,-1.646446 0.5,-2c-0.353546,-0.353554 -1,-0.5 -1.5,-0.5c-1.5,0 -2.038055,-0.691338 -2.5,-0.5c-0.653275,0.270599 -0.729401,0.846718 -1,1.5c-0.191345,0.461937 0,1 -0.5,1c-0.5,0 -1,0 -1.5,0l-0.5,0l0,-0.5l-0.5,-0.5"/>
  <path fill="#000000" stroke="#000000" stroke-width="5" id="svg_41" d="m243.5,87c0,0.5 -1.038055,0.691338 -1.5,0.5c-0.653275,-0.270599 -0.146454,-1.146446 -0.5,-1.5c-0.353546,-0.353554 -0.146454,-0.646446 -0.5,-1c-0.353546,-0.353554 -0.646454,-0.146446 -1,-0.5c-0.353546,-0.353554 -0.5,-0.5 -1,-1c-0.5,-0.5 -0.846725,-0.729401 -1.5,-1c-0.461945,-0.191353 -0.538055,-0.308647 -1,-0.5c-0.653275,-0.270599 -1.229401,-0.346718 -1.5,-1c-0.191345,-0.461937 -0.729401,-0.846718 -1,-1.5c-0.191345,-0.461937 0,-1 0.5,-1c0.5,0 2,-0.5 3.5,-0.5l0.5,0l0.5,0"/>
  <path fill="#000000" stroke="#000000" stroke-width="5" id="svg_42" d="m259,83.5c-0.5,0 -0.808655,0.038063 -1,0.5c-0.270599,0.653282 -1.229401,0.846718 -1.5,1.5c-0.191345,0.461937 0,1 0,1.5c0,0.5 0,1 0,1.5c0,0.5 0.146454,0.646446 0.5,1c0.707092,0.707108 1.146454,0.146446 1.5,0.5c0.353546,0.353554 1,0 1.5,0c0.5,0 1,0 1,-0.5l0.5,0l0,-0.5l0.5,-0.5"/>
  <path fill="#000000" stroke="#000000" stroke-width="5" id="svg_43" d="m298,86c-0.5,0 -1,0 -1.5,0c-0.5,0 -2.375061,-3.231293 -4,-4.5c-0.394104,-0.307709 -0.5,-0.5 -1,-1l0,-0.5"/>
  <path fill="#000000" stroke="#000000" stroke-width="5" id="svg_44" d="m306.5,94c0.5,0 1,-0.5 1.5,-0.5c0.5,0 0.646454,-0.146446 1,-0.5c0.353546,-0.353554 0.308655,-0.538063 0.5,-1c0.270599,-0.653282 0.513367,-0.885117 1,-1c1.088135,-0.256866 1,-1 1.5,-1c0.5,0 1.038055,-0.191353 1.5,0c0.65329,0.270599 1.5,1.5 1.5,2c0,0.5 0,1 0,1.5c0,0.5 0,1 0,1.5c0,0.5 0.191345,1.038063 0,1.5c-0.270599,0.653282 -0.646454,0.646446 -1,1c-0.707092,0.707108 -1.5,0 -2,0c-1,0 -1.5,0 -1.5,-0.5c0,-0.5 -0.5,-0.5 -0.5,-1c0,-0.5 0,-1 -0.5,-1l-0.5,0l0,0.5"/>
  <path fill="#000000" stroke="#000000" stroke-width="5" id="svg_45" d="m284,111c0.5,0 1,0 1.5,0c0.5,0 1.5,0 2,0c0.5,0 1,0 1,0.5c0,0.5 0,1 0,1.5c0,0.5 0.5,0.5 0.5,1l0,0.5l0.5,0l0.5,0.5"/>
  <polyline fill="none" stroke="#000000" stroke-width="5" stroke-linecap="round" points="291,115 291.5,115" id="svg_46"/>
  <path fill="#000000" stroke="#000000" stroke-width="5" id="svg_47" d="m286,123.5c0.5,0 0.84671,-0.229401 1.5,-0.5c0.461945,-0.191353 0.646454,-0.146446 1,-0.5c0.353546,-0.353554 0.646454,-0.146446 1,-0.5c0.353546,-0.353554 0.34671,-0.729401 1,-1c0.461945,-0.191353 1.646454,-0.146446 2,-0.5c0.353546,-0.353554 0.646454,-0.646446 1,-1c0.353546,-0.353554 1,0 1,-0.5c0,-0.5 -1,-0.5 -1.5,-0.5c-0.5,0 -0.5,-0.5 -1,-0.5c-0.5,0 -0.646454,-0.146446 -1,-0.5c-0.353546,-0.353554 0,-1 0,-1.5c0,-0.5 -0.743134,-0.411873 -1,-1.5c-0.114868,-0.486633 0.15329,-1.229401 -0.5,-1.5c-0.461945,-0.191353 -0.5,-0.5 -1,-0.5c-0.5,0 -0.84671,-0.229401 -1.5,-0.5c-0.461945,-0.191353 -1.038055,0.191353 -1.5,0c-0.65329,-0.270599 -1,-0.5 -1,-1l-0.5,0l-0.5,0"/>
  <path fill="#000000" stroke="#000000" stroke-width="5" id="svg_48" d="m297,133.5c0.5,0 1,0 1.5,0c0.5,0 1,-0.5 1.5,-0.5c0.5,0 0.646454,-0.146454 1,-0.5c0.353546,-0.353546 0.646454,-0.146454 1,-0.5c0.353546,-0.353546 0.146454,-0.646454 0.5,-1c0.353546,-0.353546 0.5,-0.5 1,-0.5c0.5,0 1.038055,-0.191345 1.5,0c0.65329,0.270599 0.308655,1.038055 0.5,1.5c0.270599,0.653275 0.5,1 0.5,1.5c0,0.5 -0.5,0.5 -1,0.5l-0.5,0l-1,2"/>
  <path fill="#000000" stroke="#000000" stroke-width="5" id="svg_49" d="m318.5,186.5c0.5,-0.5 1.038055,-1.191345 1.5,-1c0.65329,0.270599 0.5,1 0.5,1.5l0.5,0l0.5,0"/>
  <path fill="#000000" stroke="#000000" stroke-width="5" id="svg_50" d="m353.5,218.5c0.5,0 1,0 1.5,0c0.5,0 1,0 1.5,0c0.5,0 1,0 1.5,0c0.5,0 1,0 1.5,0c0.5,0 0.5,-0.5 0.5,0c0,0.5 0,1 0,0.5l0.5,-0.5"/>
  <path fill="#000000" stroke="#000000" stroke-width="5" id="svg_51" d="m359.5,222.5c0,-0.5 0.146454,-0.646454 0.5,-1c0.353546,-0.353546 0.5,-0.5 0.5,-1l0,-0.5"/>
  <path fill="#000000" stroke="#000000" stroke-width="5" id="svg_52" d="m320.5,271.5c0.5,0 1,0 1.5,0c0.5,0 1.146454,0.353546 1.5,0c0.353546,-0.353546 0.5,-0.5 1,-0.5c0.5,0 1,0 1.5,0c0.5,0 1,0 1.5,0c0.5,0 1.146454,-0.353546 1.5,0c0.707092,0.707092 0,1.5 0,2c0,0.5 0,1 0,1.5c0,0.5 0.353546,1.146454 0,1.5c-0.353546,0.353546 -1.038055,-0.191345 -1.5,0c-0.65329,0.270599 -1,0.5 -1.5,0.5l-1,0l-0.5,0l-0.5,0"/>
  <path fill="#000000" stroke="#000000" stroke-width="5" id="svg_53" d="m322,186.5c0,0.5 0,1 0,1.5l0,0.5l0,0.5"/>
 </g>
</svg>