<?xml version="1.0" encoding="UTF-8" standalone="no"?>
<!DOCTYPE svg PUBLIC "-//W3C//DTD SVG 1.1//EN"
 "http://www.w3.org/Graphics/SVG/1.1/DTD/svg11.dtd">
<!-- Generated by graphviz version 2.40.1 (20161225.0304)
 -->
<!-- Title: QtechNG repository Pages: 1 -->
<svg width="547pt" height="427pt"
 viewBox="0.00 0.00 546.90 427.00" xmlns="http://www.w3.org/2000/svg" xmlns:xlink="http://www.w3.org/1999/xlink">
<g id="graph0" class="graph" transform="scale(1 1) rotate(0) translate(4 423)">
<title>QtechNG repository</title>
<polygon fill="#ffffff" stroke="transparent" points="-4,4 -4,-423 542.895,-423 542.895,4 -4,4"/>
<text text-anchor="middle" x="269.4475" y="-403.8" font-family="Times,serif" font-size="14.00" fill="#000000">QtechNG repository</text>
<!-- version -->
<g id="node1" class="node">
<title>version</title>
<polygon fill="none" stroke="#ff0000" points="356.895,-396 302.895,-396 302.895,-360 356.895,-360 356.895,-396"/>
<text text-anchor="middle" x="329.895" y="-374.3" font-family="Times,serif" font-size="14.00" fill="#000000">5.20</text>
</g>
<!-- meta -->
<g id="node2" class="node">
<title>meta</title>
<polygon fill="none" stroke="#0000ff" points="176.895,-324 122.895,-324 122.895,-288 176.895,-288 176.895,-324"/>
<text text-anchor="middle" x="149.895" y="-302.3" font-family="Times,serif" font-size="14.00" fill="#000000">meta</text>
</g>
<!-- version&#45;&gt;meta -->
<g id="edge2" class="edge">
<title>version&#45;&gt;meta</title>
<path fill="none" stroke="#000000" d="M302.7532,-368.7789C273.5503,-358.6367 225.9104,-341.4495 185.895,-324 183.0768,-322.771 180.1638,-321.4328 177.2719,-320.0591"/>
</g>
<!-- source -->
<g id="node3" class="node">
<title>source</title>
<polygon fill="none" stroke="#0000ff" points="248.895,-324 194.895,-324 194.895,-288 248.895,-288 248.895,-324"/>
<text text-anchor="middle" x="221.895" y="-302.3" font-family="Times,serif" font-size="14.00" fill="#000000">source</text>
</g>
<!-- version&#45;&gt;source -->
<g id="edge4" class="edge">
<title>version&#45;&gt;source</title>
<path fill="none" stroke="#000000" d="M302.6421,-359.8314C286.2701,-348.9167 265.5097,-335.0764 249.1393,-324.1628"/>
</g>
<!-- admin -->
<g id="node5" class="node">
<title>admin</title>
<polygon fill="none" stroke="#000000" points="320.895,-324 266.895,-324 266.895,-288 320.895,-288 320.895,-324"/>
<text text-anchor="middle" x="293.895" y="-302.3" font-family="Times,serif" font-size="14.00" fill="#000000">admin</text>
</g>
<!-- version&#45;&gt;admin -->
<g id="edge1" class="edge">
<title>version&#45;&gt;admin</title>
<path fill="none" stroke="#000000" d="M320.8107,-359.8314C315.3951,-349 308.5388,-335.2876 303.1017,-324.4133"/>
</g>
<!-- objects -->
<g id="node6" class="node">
<title>objects</title>
<polygon fill="none" stroke="#000000" points="394.395,-324 339.395,-324 339.395,-288 394.395,-288 394.395,-324"/>
<text text-anchor="middle" x="366.895" y="-302.3" font-family="Times,serif" font-size="14.00" fill="#000000">objects</text>
</g>
<!-- version&#45;&gt;objects -->
<g id="edge3" class="edge">
<title>version&#45;&gt;objects</title>
<path fill="none" stroke="#000000" d="M339.2317,-359.8314C344.7978,-349 351.8445,-335.2876 357.4327,-324.4133"/>
</g>
<!-- tmp -->
<g id="node14" class="node">
<title>tmp</title>
<polygon fill="none" stroke="#000000" points="466.895,-324 412.895,-324 412.895,-288 466.895,-288 466.895,-324"/>
<text text-anchor="middle" x="439.895" y="-302.3" font-family="Times,serif" font-size="14.00" fill="#000000">tmp</text>
</g>
<!-- version&#45;&gt;tmp -->
<g id="edge5" class="edge">
<title>version&#45;&gt;tmp</title>
<path fill="none" stroke="#000000" d="M357.0861,-360.2022C374.0093,-349.1252 395.6995,-334.928 412.6356,-323.8425"/>
</g>
<!-- unique -->
<g id="node15" class="node">
<title>unique</title>
<polygon fill="none" stroke="#000000" points="538.895,-324 484.895,-324 484.895,-288 538.895,-288 538.895,-324"/>
<text text-anchor="middle" x="511.895" y="-302.3" font-family="Times,serif" font-size="14.00" fill="#000000">unique</text>
</g>
<!-- version&#45;&gt;unique -->
<g id="edge6" class="edge">
<title>version&#45;&gt;unique</title>
<path fill="none" stroke="#000000" d="M357.1538,-368.9189C386.7473,-358.8292 435.2283,-341.6245 475.895,-324 478.7161,-322.7774 481.6309,-321.4433 484.5239,-320.0722"/>
</g>
<!-- data -->
<g id="node4" class="node">
<title>data</title>
<polygon fill="none" stroke="#0000ff" points="176.895,-252 122.895,-252 122.895,-216 176.895,-216 176.895,-252"/>
<text text-anchor="middle" x="149.895" y="-230.3" font-family="Times,serif" font-size="14.00" fill="#000000">data</text>
</g>
<!-- source&#45;&gt;data -->
<g id="edge10" class="edge">
<title>source&#45;&gt;data</title>
<path fill="none" stroke="#000000" d="M203.7264,-287.8314C192.8951,-277 179.1826,-263.2876 168.3083,-252.4133"/>
</g>
<!-- hg -->
<g id="node10" class="node">
<title>hg</title>
<polygon fill="none" stroke="#000000" points="248.895,-252 194.895,-252 194.895,-216 248.895,-216 248.895,-252"/>
<text text-anchor="middle" x="221.895" y="-230.3" font-family="Times,serif" font-size="14.00" fill="#000000">.hg</text>
</g>
<!-- source&#45;&gt;hg -->
<g id="edge11" class="edge">
<title>source&#45;&gt;hg</title>
<path fill="none" stroke="#000000" d="M221.895,-287.8314C221.895,-277 221.895,-263.2876 221.895,-252.4133"/>
</g>
<!-- core -->
<g id="node13" class="node">
<title>core</title>
<polygon fill="none" stroke="#000000" points="176.895,-180 122.895,-180 122.895,-144 176.895,-144 176.895,-180"/>
<text text-anchor="middle" x="149.895" y="-158.3" font-family="Times,serif" font-size="14.00" fill="#000000">core</text>
</g>
<!-- data&#45;&gt;core -->
<g id="edge12" class="edge">
<title>data&#45;&gt;core</title>
<path fill="none" stroke="#000000" d="M149.895,-215.8314C149.895,-205 149.895,-191.2876 149.895,-180.4133"/>
</g>
<!-- i4 -->
<g id="node7" class="node">
<title>i4</title>
<polygon fill="none" stroke="#000000" points="321.895,-252 267.895,-252 267.895,-216 321.895,-216 321.895,-252"/>
<text text-anchor="middle" x="294.895" y="-230.3" font-family="Times,serif" font-size="14.00" fill="#000000">i4</text>
</g>
<!-- objects&#45;&gt;i4 -->
<g id="edge7" class="edge">
<title>objects&#45;&gt;i4</title>
<path fill="none" stroke="#000000" d="M348.7264,-287.8314C337.8951,-277 324.1826,-263.2876 313.3083,-252.4133"/>
</g>
<!-- m4 -->
<g id="node8" class="node">
<title>m4</title>
<polygon fill="none" stroke="#000000" points="393.895,-252 339.895,-252 339.895,-216 393.895,-216 393.895,-252"/>
<text text-anchor="middle" x="366.895" y="-230.3" font-family="Times,serif" font-size="14.00" fill="#000000">m4</text>
</g>
<!-- objects&#45;&gt;m4 -->
<g id="edge9" class="edge">
<title>objects&#45;&gt;m4</title>
<path fill="none" stroke="#000000" d="M366.895,-287.8314C366.895,-277 366.895,-263.2876 366.895,-252.4133"/>
</g>
<!-- l4 -->
<g id="node9" class="node">
<title>l4</title>
<polygon fill="none" stroke="#000000" points="465.895,-252 411.895,-252 411.895,-216 465.895,-216 465.895,-252"/>
<text text-anchor="middle" x="438.895" y="-230.3" font-family="Times,serif" font-size="14.00" fill="#000000">l4</text>
</g>
<!-- objects&#45;&gt;l4 -->
<g id="edge8" class="edge">
<title>objects&#45;&gt;l4</title>
<path fill="none" stroke="#000000" d="M385.0637,-287.8314C395.895,-277 409.6075,-263.2876 420.4818,-252.4133"/>
</g>
<!-- python3 -->
<g id="node11" class="node">
<title>python3</title>
<polygon fill="none" stroke="#000000" points="142.395,-108 81.395,-108 81.395,-72 142.395,-72 142.395,-108"/>
<text text-anchor="middle" x="111.895" y="-86.3" font-family="Times,serif" font-size="14.00" fill="#000000">python3</text>
</g>
<!-- bjson -->
<g id="node16" class="node">
<title>bjson</title>
<ellipse fill="none" stroke="#00ff00" cx="55.895" cy="-18" rx="55.7903" ry="18"/>
<text text-anchor="middle" x="55.895" y="-14.3" font-family="Times,serif" font-size="14.00" fill="#000000">brocade.json</text>
</g>
<!-- python3&#45;&gt;bjson -->
<g id="edge15" class="edge">
<title>python3&#45;&gt;bjson</title>
<path fill="none" stroke="#000000" d="M97.7639,-71.8314C89.2099,-60.8334 78.3456,-46.865 69.8277,-35.9134"/>
</g>
<!-- basepy -->
<g id="node17" class="node">
<title>basepy</title>
<ellipse fill="none" stroke="#000000" cx="167.895" cy="-18" rx="37.8943" ry="18"/>
<text text-anchor="middle" x="167.895" y="-14.3" font-family="Times,serif" font-size="14.00" fill="#000000">base.py</text>
</g>
<!-- python3&#45;&gt;basepy -->
<g id="edge16" class="edge">
<title>python3&#45;&gt;basepy</title>
<path fill="none" stroke="#000000" d="M126.0262,-71.8314C134.8394,-60.5001 146.1051,-46.0157 154.7301,-34.9263"/>
</g>
<!-- python -->
<g id="node12" class="node">
<title>python</title>
<polygon fill="none" stroke="#000000" points="214.895,-108 160.895,-108 160.895,-72 214.895,-72 214.895,-108"/>
<text text-anchor="middle" x="187.895" y="-86.3" font-family="Times,serif" font-size="14.00" fill="#000000">python</text>
</g>
<!-- core&#45;&gt;python3 -->
<g id="edge13" class="edge">
<title>core&#45;&gt;python3</title>
<path fill="none" stroke="#000000" d="M140.306,-143.8314C134.5895,-133 127.3524,-119.2876 121.6132,-108.4133"/>
</g>
<!-- core&#45;&gt;python -->
<g id="edge14" class="edge">
<title>core&#45;&gt;python</title>
<path fill="none" stroke="#000000" d="M159.484,-143.8314C165.2006,-133 172.4377,-119.2876 178.1769,-108.4133"/>
</g>
</g>
</svg>
